<?xml version="1.0" encoding="UTF-8" standalone="no"?>
<!DOCTYPE svg PUBLIC "-//W3C//DTD SVG 1.1//EN" "http://www.w3.org/Graphics/SVG/1.1/DTD/svg11.dtd">
<svg width="100%" height="100%" viewBox="0 0 140 200" version="1.1" xmlns="http://www.w3.org/2000/svg" xmlns:xlink="http://www.w3.org/1999/xlink" xml:space="preserve" xmlns:serif="http://www.serif.com/" style="fill-rule:evenodd;clip-rule:evenodd;">
    <g id="Calque-1" serif:id="Calque 1" transform="matrix(1,0,0,1,0,-852.362)">
        <path id="path4045-7-5-5" d="M7.977,970.149C7.988,974.05 8.09,977.953 7.906,981.85C7.751,985.127 7.394,988.392 7.261,991.67C7.11,995.358 7.245,999.069 7.894,1002.7C8.92,1008.44 11.353,1014.1 15.686,1018C18.511,1020.55 22.025,1022.24 25.668,1023.33C29.311,1024.41 33.1,1024.92 36.881,1025.33C45.569,1026.25 54.309,1026.63 63.045,1026.67C72.923,1026.71 82.807,1026.33 92.632,1025.31C99.482,1024.6 106.313,1023.58 112.986,1021.88C116.046,1021.1 119.128,1020.15 121.715,1018.34C125.381,1015.77 127.732,1011.7 129.248,1007.49C132.342,998.904 132.371,989.567 132.561,980.442C132.87,965.627 133.681,950.641 130.656,936.135C129.793,931.997 128.613,927.902 126.777,924.094C124.94,920.286 122.426,916.763 119.161,914.077C114.017,909.846 107.34,907.933 100.745,907.008C91.261,905.677 81.631,906.172 72.055,906.111C62.8,906.052 53.518,905.472 44.31,906.399C35.102,907.326 25.819,909.879 18.431,915.452C13.341,919.292 9.236,924.616 7.55,930.765C6.43,934.847 6.394,939.145 6.608,943.373C6.907,949.249 7.675,955.097 7.894,960.977C7.95,962.472 7.971,963.969 7.976,965.465C7.982,967.026 7.972,968.588 7.977,970.149Z" style="fill:none;stroke:white;stroke-width:2px;"/>
        <path id="path4047-0-7-0" d="M8.201,979.098C11.767,979.614 15.359,979.955 18.959,980.122C21.052,980.22 23.17,980.256 25.221,979.827C27.272,979.398 29.273,978.465 30.655,976.889C31.568,975.849 32.177,974.569 32.578,973.245C32.98,971.92 33.183,970.544 33.359,969.171C34.197,962.651 34.464,956.049 35.748,949.601C36.179,947.438 36.726,945.288 37.587,943.257C38.447,941.227 39.632,939.312 41.22,937.781C43.628,935.461 46.851,934.134 50.128,933.469C53.405,932.804 56.771,932.754 60.114,932.677C71.004,932.423 81.91,931.848 92.78,932.548C95.484,932.721 98.208,932.979 100.787,933.811C103.365,934.644 105.812,936.099 107.41,938.287C108.525,939.812 109.185,941.632 109.549,943.486C109.914,945.339 109.995,947.236 110.039,949.124C110.191,955.552 109.934,961.983 109.877,968.413C109.822,974.522 109.947,980.642 109.455,986.732C108.986,992.528 107.876,998.251 106.642,1003.93L102.282,1024.01" style="fill:none;stroke:white;stroke-width:2px;"/>
        <path id="path4085-6-5-6" d="M108.595,991.457C106.634,991.643 104.655,991.643 102.694,991.457C100.433,991.243 98.182,990.778 96.091,989.892C94.308,989.137 92.615,988.042 91.497,986.461C90.455,984.987 89.972,983.158 89.982,981.353C89.999,978.193 91.539,975.091 94.001,973.108C95.855,971.615 98.14,970.763 100.43,970.117C103.536,969.24 106.734,968.695 109.955,968.493" style="fill:none;stroke:white;stroke-width:2px;"/>
        <path id="path4089-44-4-7" d="M106.769,1002.38C103.211,1002.66 99.611,1002.39 96.132,1001.6C93.353,1000.96 90.642,999.985 88.172,998.562C85.47,997.004 83.062,994.9 81.307,992.321C79.7,989.959 78.657,987.211 78.324,984.373C77.846,980.305 78.832,976.143 80.711,972.503C82.627,968.791 85.478,965.557 88.959,963.248C92.594,960.837 96.822,959.469 101.076,958.504C103.949,957.852 106.861,957.371 109.791,957.065" style="fill:none;stroke:white;stroke-width:2px;"/>
        <ellipse id="path4093-70-1-4" cx="96.571" cy="1014.71" rx="0.659" ry="0.501" style="fill:none;stroke:white;stroke-width:2px;stroke-linecap:round;stroke-linejoin:round;"/>
        <ellipse id="path4093-6-0-2-6" cx="71.629" cy="965.634" rx="0.659" ry="0.501" style="fill:none;stroke:white;stroke-width:2px;stroke-linecap:round;stroke-linejoin:round;"/>
        <ellipse id="path4093-7-0-7-3" cx="66.326" cy="983.009" rx="0.659" ry="0.501" style="fill:none;stroke:white;stroke-width:2px;stroke-linecap:round;stroke-linejoin:round;"/>
        <ellipse id="path4093-4-8-6-3" cx="83.475" cy="1010.35" rx="0.659" ry="0.501" style="fill:none;stroke:white;stroke-width:2px;stroke-linecap:round;stroke-linejoin:round;"/>
        <ellipse id="path4093-69-2-2-5" cx="71.261" cy="1000.46" rx="0.659" ry="0.501" style="fill:none;stroke:white;stroke-width:2px;stroke-linecap:round;stroke-linejoin:round;"/>
        <ellipse id="path4093-86-8-3-3" cx="83.494" cy="953.739" rx="0.659" ry="0.501" style="fill:none;stroke:white;stroke-width:2px;stroke-linecap:round;stroke-linejoin:round;"/>
        <ellipse id="path4093-447-6-7-4" cx="97.559" cy="948.322" rx="0.659" ry="0.501" style="fill:none;stroke:white;stroke-width:2px;stroke-linecap:round;stroke-linejoin:round;"/>
        <path id="path4047-0-8-0-4" d="M23.039,980.188C23.462,975.353 23.984,970.527 24.605,965.714C25.453,959.144 26.49,952.582 28.245,946.194C29.693,940.924 31.772,935.57 35.844,931.924C39.142,928.97 43.487,927.403 47.858,926.696C52.229,925.988 56.684,926.075 61.111,926.041C72.172,925.955 83.252,925.1 94.281,925.94C97.499,926.186 100.726,926.579 103.813,927.52C106.9,928.46 109.859,929.974 112.163,932.233C114.386,934.412 115.93,937.218 116.916,940.17C119.473,947.82 118.378,956.127 118.004,964.184C117.688,970.972 117.907,977.785 117.332,984.557C116.827,990.509 115.618,996.376 114.269,1002.2L109.534,1022.63" style="fill:none;stroke:white;stroke-width:2px;"/>
        <path id="path4702-2" d="M52.176,971.478C52.13,968.943 52.077,966.407 52.018,963.872C51.995,962.904 51.974,961.919 52.239,960.988C52.618,959.658 53.543,958.561 54.487,957.55C56.076,955.847 57.788,954.258 59.605,952.8" style="fill:none;stroke:white;stroke-width:2px;"/>
        <path id="path4706-8" d="M52.09,961.335C51.212,959.392 49.977,957.611 48.466,956.106C47.285,954.93 45.937,953.922 44.474,953.124" style="fill:none;stroke:white;stroke-width:2px;"/>
        <path id="path4710-04" d="M15.571,1017.6C13.07,1021.58 11.819,1026.34 12.035,1031.03C12.162,1033.77 12.785,1036.51 14.048,1038.95C15.311,1041.38 17.233,1043.5 19.637,1044.82C21.954,1046.1 24.624,1046.59 27.263,1046.77C29.901,1046.94 32.551,1046.82 35.193,1046.94C37.514,1047.05 39.83,1047.36 42.153,1047.3C44.476,1047.24 46.855,1046.79 48.805,1045.53C50.303,1044.56 51.495,1043.12 52.164,1041.46C52.904,1039.63 52.997,1037.61 53.047,1035.63C53.126,1032.57 53.126,1029.5 53.047,1026.44" style="fill:none;stroke:white;stroke-width:2px;"/>
        <path id="path4710-0-7" d="M54.056,1026.66C53.432,1028.69 53.133,1030.82 53.172,1032.94C53.223,1035.65 53.842,1038.38 55.205,1040.72C56.233,1042.48 57.686,1044.02 59.448,1045.05C61.577,1046.3 64.073,1046.79 66.537,1046.96C69.001,1047.12 71.476,1046.99 73.943,1047.08C75.993,1047.16 78.037,1047.4 80.088,1047.38C82.139,1047.35 84.229,1047.05 86.053,1046.11C88.707,1044.75 90.579,1042.1 91.356,1039.22C91.843,1037.41 91.932,1035.52 91.886,1033.65C91.821,1031.03 91.495,1028.42 90.914,1025.87" style="fill:none;stroke:white;stroke-width:2px;"/>
        <path id="path4710-9-7" d="M117.868,1020.32C120.341,1020.64 122.727,1021.61 124.725,1023.1C125.472,1023.66 126.168,1024.29 126.764,1025.01C127.971,1026.46 128.747,1028.24 129.127,1030.09C129.507,1031.94 129.501,1033.86 129.253,1035.73C129.031,1037.4 128.613,1039.06 127.896,1040.59C127.18,1042.12 126.156,1043.52 124.834,1044.57C123.167,1045.89 121.091,1046.62 118.996,1046.99C116.9,1047.36 114.762,1047.39 112.636,1047.49C108.264,1047.67 103.734,1048.07 99.643,1046.51C96.817,1045.44 94.291,1043.37 93.102,1040.59C92.054,1038.14 92.105,1035.36 92.484,1032.72C92.867,1030.06 93.567,1027.43 94.566,1024.93" style="fill:none;stroke:white;stroke-width:2px;"/>
        <path id="path5245-4-38-60" d="M23.402,912.193C19.484,912.298 15.546,910.802 12.687,908.121C10.137,905.731 8.484,902.502 7.53,899.139C5.583,892.274 6.471,884.702 9.691,878.333C11.385,874.983 13.697,871.954 16.431,869.383C22.932,863.27 31.623,859.902 40.413,858.366C49.203,856.83 58.19,856.994 67.112,857.107C82.931,857.307 99.099,857.388 114.023,862.638C116.717,863.585 119.368,864.705 121.763,866.26C124.158,867.815 126.298,869.827 127.729,872.298C129.26,874.942 129.924,877.994 130.36,881.018C130.816,884.184 131.046,887.385 130.974,890.583C130.896,894.061 130.433,897.623 128.79,900.69C127.288,903.491 124.852,905.74 122.051,907.241C118.612,909.085 114.597,909.831 110.725,909.347" style="fill:none;stroke:white;stroke-width:2px;"/>
        <path id="path4108-8" d="M50.095,857.429C50.15,863.508 50.18,869.587 50.183,875.666C50.189,885.726 50.124,895.787 49.988,905.846" style="fill:none;stroke:white;stroke-width:2px;"/>
        <path id="path4108-7-4" d="M61.2,856.899C61.205,864.514 61.173,872.128 61.104,879.742C61.025,888.443 60.898,897.143 60.722,905.843" style="fill:none;stroke:white;stroke-width:2px;"/>
        <path id="path4108-5-5" d="M88.506,858.003C88.674,864.427 88.706,870.854 88.602,877.28C88.448,886.858 87.991,896.432 87.234,905.981" style="fill:none;stroke:white;stroke-width:2px;"/>
        <path id="path4108-5-4-2" d="M77.425,857.324C77.782,865.196 77.934,873.078 77.881,880.958C77.825,889.248 77.543,897.537 77.034,905.812" style="fill:none;stroke:white;stroke-width:2px;"/>
        <path id="path4156-88" d="M7.45,884.211C11.315,883.432 15.247,882.984 19.188,882.876C20.808,882.831 22.463,882.849 23.997,883.369C24.765,883.629 25.495,884.015 26.105,884.547C26.716,885.08 27.205,885.761 27.462,886.53C27.857,887.713 27.673,889.051 27.085,890.152C26.498,891.253 25.533,892.125 24.439,892.725C22.25,893.923 19.653,894.044 17.159,894.142C13.809,894.273 10.459,894.411 7.109,894.557" style="fill:none;stroke:white;stroke-width:2px;"/>
        <path id="path4156-8-6" d="M130.038,881.113C127.76,880.996 125.48,880.918 123.199,880.879C121.493,880.85 119.776,880.843 118.097,881.138C116.797,881.367 115.508,881.786 114.435,882.555C113.362,883.324 112.52,884.472 112.312,885.775C112.141,886.844 112.405,887.961 112.957,888.891C113.51,889.822 114.337,890.573 115.271,891.12C117.139,892.214 119.361,892.493 121.518,892.678C124.657,892.946 127.808,893.063 130.957,893.027" style="fill:none;stroke:white;stroke-width:2px;"/>
    </g>
</svg>
