<?xml version="1.0" encoding="UTF-8" standalone="no"?>
<!DOCTYPE svg PUBLIC "-//W3C//DTD SVG 1.1//EN" "http://www.w3.org/Graphics/SVG/1.1/DTD/svg11.dtd">
<svg width="100%" height="100%" viewBox="0 0 140 200" version="1.1" xmlns="http://www.w3.org/2000/svg" xmlns:xlink="http://www.w3.org/1999/xlink" xml:space="preserve" xmlns:serif="http://www.serif.com/" style="fill-rule:evenodd;clip-rule:evenodd;">
    <g id="Calque-1" serif:id="Calque 1" transform="matrix(1,0,0,1,0,-852.362)">
        <path id="path4462-4-4-5-5-1-6" d="M117.343,996.685C109.995,1001.23 101.343,1003.31 92.73,1004.01C84.118,1004.71 75.461,1004.09 66.833,1003.62C52.39,1002.83 37.719,1002.42 23.918,998.087C20.45,996.999 16.993,995.632 14.185,993.324C11.422,991.055 9.413,987.965 8.046,984.662C6.679,981.358 5.924,977.834 5.369,974.302C3.756,964.024 3.793,953.567 3.831,943.163C3.866,933.71 3.903,924.206 5.491,914.887C6.067,911.506 6.853,908.141 8.189,904.982C9.526,901.823 11.437,898.866 14.026,896.615C16.722,894.27 20.076,892.762 23.548,891.913C27.756,890.884 32.129,890.789 36.46,890.728C46.125,890.591 55.794,890.597 65.455,890.27C79.146,889.808 93.058,888.7 106.384,891.88C114.881,893.908 123.232,897.886 128.67,904.723C131.606,908.414 133.585,912.809 134.788,917.369C137.177,926.422 136.563,935.949 136.391,945.31C136.27,951.876 136.375,958.461 135.654,964.988C134.933,971.516 133.348,978.044 130.068,983.733C127.015,989.031 122.543,993.469 117.343,996.685Z" style="fill:none;stroke:white;stroke-width:2px;"/>
        <path id="path5245-8-7-2" d="M113.544,998.848C116.553,998.879 119.551,999.703 122.152,1001.22C124.754,1002.73 126.954,1004.92 128.471,1007.52C130.421,1010.87 131.216,1014.83 130.924,1018.69C130.632,1022.55 129.28,1026.29 127.228,1029.57C125.424,1032.46 123.087,1034.99 120.442,1037.13C113.554,1042.71 104.764,1045.5 95.978,1046.66C87.192,1047.83 78.287,1047.5 69.423,1047.5C59.743,1047.51 50.02,1047.92 40.418,1046.7C30.816,1045.47 21.196,1042.49 13.658,1036.41C10.53,1033.89 7.768,1030.82 6.11,1027.16C4.447,1023.49 3.96,1019.31 4.661,1015.34C5.361,1011.37 7.238,1007.63 9.944,1004.64C13.291,1000.95 17.909,998.438 22.825,997.626" style="fill:none;stroke:white;stroke-width:2px;"/>
        <path id="path5245-4-38-6-6" d="M107.355,1001.24C108.78,1002.71 109.985,1004.4 110.918,1006.22C112.103,1008.54 112.85,1011.09 113.005,1013.68C113.16,1016.28 112.715,1018.92 111.629,1021.29C109.667,1025.56 105.762,1028.66 101.565,1030.77C91.328,1035.93 79.345,1035.92 67.89,1035.53C58.122,1035.2 48.219,1034.64 38.95,1031.54C36.119,1030.59 33.343,1029.4 30.913,1027.66C28.483,1025.93 26.405,1023.62 25.276,1020.86C24.355,1018.6 24.091,1016.11 24.352,1013.69C24.613,1011.27 25.386,1008.92 26.462,1006.74C27.677,1004.28 29.283,1002.01 31.2,1000.04" style="fill:none;stroke:white;stroke-width:2px;"/>
        <path id="path5245-4-3-1-2-8" d="M110.037,1000.37C112.625,1002.05 114.734,1004.47 116.058,1007.26C117.304,1009.88 117.854,1012.83 117.689,1015.73C117.524,1018.62 116.649,1021.48 115.2,1024C112.87,1028.05 109.129,1031.15 105.012,1033.36C99.312,1036.42 92.868,1037.88 86.427,1038.5C79.985,1039.11 73.498,1038.9 67.028,1038.81C59.851,1038.7 52.632,1038.73 45.556,1037.52C38.481,1036.31 31.469,1033.78 26.016,1029.11C23.444,1026.91 21.224,1024.2 20.053,1021.03C19.033,1018.26 18.848,1015.21 19.362,1012.31C19.876,1009.4 21.073,1006.64 22.701,1004.18C23.899,1002.37 25.332,1000.71 26.952,999.263" style="fill:none;stroke:white;stroke-width:2px;"/>
        <path id="path3929-6" d="M99.2,1003.25C100.234,1008.25 100.768,1013.35 100.791,1018.46C100.811,1022.84 100.456,1027.22 99.73,1031.54" style="fill:none;stroke:white;stroke-width:2px;"/>
        <path id="path3929-9-4" d="M86.571,1004.37C87.441,1010.1 87.56,1015.94 86.925,1021.7C86.41,1026.37 85.401,1030.99 83.919,1035.44" style="fill:none;stroke:white;stroke-width:2px;"/>
        <path id="path3929-8-4" d="M73.817,1004.13C74.504,1009.14 74.596,1014.23 74.089,1019.27C73.541,1024.71 72.292,1030.08 70.384,1035.2" style="fill:none;stroke:white;stroke-width:2px;"/>
        <path id="path3929-2-6" d="M60.617,1003.47C61.523,1009.07 61.493,1014.82 60.529,1020.41C59.666,1025.41 58.057,1030.29 55.772,1034.82" style="fill:none;stroke:white;stroke-width:2px;"/>
        <path id="path3929-7-6" d="M35.496,1001.28C35.736,1005.94 35.165,1010.64 33.816,1015.11C32.718,1018.74 31.106,1022.22 29.042,1025.41" style="fill:none;stroke:white;stroke-width:2px;"/>
        <path id="path3929-1-4" d="M47.508,1002.81C47.993,1007.97 47.784,1013.19 46.889,1018.3C46.018,1023.26 44.498,1028.11 42.38,1032.69" style="fill:none;stroke:white;stroke-width:2px;"/>
        <path id="path4005-8-6" d="M104.906,919.835C104.583,916.085 104.161,912.322 103.135,908.7C102.11,905.078 100.451,901.579 97.9,898.81C95.819,896.551 93.197,894.834 90.404,893.555C84.575,890.884 78.067,890.09 71.662,889.799C64.386,889.468 56.863,889.791 50.226,892.789C48.07,893.762 46.028,895.015 44.282,896.61C41.436,899.21 39.451,902.658 38.205,906.306C36.959,909.954 36.422,913.809 36.168,917.655C35.693,924.848 36.229,932.258 39.087,938.875C40.645,942.481 42.907,945.829 45.939,948.326C49.469,951.233 53.9,952.876 58.395,953.715C62.89,954.553 67.487,954.633 72.059,954.719C76.732,954.806 81.442,954.9 86.041,954.068C90.64,953.236 95.179,951.403 98.502,948.116C100.515,946.125 102.023,943.657 103.079,941.03C105.747,934.387 105.52,926.968 104.906,919.835Z" style="fill:none;stroke:white;stroke-width:2px;"/>
        <path id="path4430-9" d="M47.709,890.449C44.997,884.904 44.494,878.314 46.332,872.421C47.671,868.127 50.326,864.119 54.202,861.835C58.336,859.397 63.366,859.133 68.165,859.159C73.191,859.186 78.392,859.508 82.861,861.808C87.238,864.06 90.576,868.13 92.24,872.762C94.271,878.419 93.818,884.92 91.021,890.24" style="fill:none;stroke:white;stroke-width:2px;"/>
        <path id="path4430-5-1" d="M60.079,890.118C59.506,888.423 59.367,886.583 59.679,884.82C59.999,883.018 60.838,881.242 62.302,880.143C63.053,879.579 63.941,879.213 64.857,879.005C65.773,878.797 66.719,878.743 67.658,878.764C69.706,878.81 71.816,879.242 73.468,880.454C74.884,881.492 75.88,883.063 76.309,884.765C76.749,886.509 76.603,888.396 75.901,890.052" style="fill:none;stroke:white;stroke-width:2px;"/>
        <path id="path4173-83" d="M51.978,862.985C45.326,861.33 38.488,860.425 31.635,860.292C24.887,860.161 17.841,860.869 12.104,864.423C9,866.345 6.338,869.147 5.121,872.589C3.911,876.014 4.217,879.864 5.526,883.252C7.515,888.397 11.838,892.587 17.044,894.412" style="fill:none;stroke:white;stroke-width:2px;"/>
        <path id="path4173-4-8" d="M46.415,871.609C45.163,871.302 43.87,871.165 42.581,871.205C41.428,871.24 40.246,871.427 39.255,872.017C38.753,872.316 38.308,872.716 37.986,873.204C37.665,873.692 37.47,874.268 37.465,874.852C37.46,875.444 37.649,876.028 37.952,876.536C38.255,877.044 38.67,877.48 39.129,877.853C40.776,879.189 43.049,879.717 45.115,879.243" style="fill:none;stroke:white;stroke-width:2px;"/>
        <path id="path4195-4" d="M9.592,889.165C12.928,887.332 16.464,885.865 20.117,884.797C22.21,884.185 24.341,883.704 26.494,883.358" style="fill:none;stroke:white;stroke-width:2px;"/>
        <path id="path4199-0" d="M23.882,875.468C21.55,875.497 19.218,875.634 16.899,875.879C12.634,876.329 8.408,877.144 4.282,878.312" style="fill:none;stroke:white;stroke-width:2px;"/>
        <path id="path4203-8" d="M7.574,868.01C10.41,867.549 13.278,867.285 16.15,867.219C19.22,867.15 22.295,867.307 25.341,867.691" style="fill:none;stroke:white;stroke-width:2px;"/>
        <path id="path4173-8-9" d="M84.737,862.592C91.345,860.812 98.167,859.827 105.008,859.664C112.697,859.48 120.621,860.4 127.402,864.03C129.33,865.063 131.167,866.324 132.591,867.984C134.015,869.644 135.006,871.736 135.075,873.922C135.124,875.473 134.712,877.016 134.04,878.414C133.368,879.812 132.442,881.075 131.432,882.252C126.127,888.437 118.271,892.364 110.14,892.897" style="fill:none;stroke:white;stroke-width:2px;"/>
        <path id="path4173-4-5-0" d="M92,872.142C93.418,871.419 94.995,871.011 96.585,870.955C97.281,870.93 97.983,870.972 98.661,871.135C99.338,871.298 99.991,871.585 100.537,872.017C101.168,872.517 101.644,873.207 101.892,873.972C102.14,874.738 102.159,875.575 101.951,876.352C101.749,877.106 101.338,877.798 100.804,878.368C100.27,878.938 99.616,879.389 98.912,879.728C97.276,880.515 95.354,880.687 93.604,880.203" style="fill:none;stroke:white;stroke-width:2px;"/>
        <path id="path4195-6-8" d="M125.172,887.534C122.486,886.233 119.711,885.116 116.873,884.193C115.041,883.598 113.183,883.083 111.306,882.652" style="fill:none;stroke:white;stroke-width:2px;"/>
        <path id="path4199-8-6" d="M113.838,875.013C116.172,874.989 118.507,875.126 120.822,875.425C125.16,875.984 129.424,877.11 133.473,878.765" style="fill:none;stroke:white;stroke-width:2px;"/>
        <path id="path4203-6-1" d="M131.314,866.727C127.643,866.634 123.97,866.662 120.302,866.814C117.938,866.911 115.576,867.059 113.219,867.258" style="fill:none;stroke:white;stroke-width:2px;"/>
        <path id="path4005-8-6-2" d="M99.745,919.481C99.186,914.071 98.602,908.428 95.681,903.84C94.174,901.473 92.089,899.491 89.703,898.015C84.323,894.686 77.745,894.028 71.422,893.791C65.222,893.559 58.781,893.699 53.172,896.353C51.499,897.144 49.921,898.156 48.582,899.433C46.138,901.762 44.576,904.899 43.684,908.155C42.792,911.412 42.532,914.805 42.385,918.178C42.138,923.847 42.21,929.619 43.81,935.064C44.7,938.092 46.084,941.024 48.209,943.358C51.028,946.455 54.998,948.324 59.079,949.266C63.16,950.208 67.385,950.292 71.573,950.296C75.237,950.299 78.919,950.242 82.528,949.613C86.137,948.985 89.695,947.758 92.658,945.604C94.934,943.95 96.824,941.763 98.094,939.253C99.61,936.259 100.223,932.875 100.338,929.522C100.453,926.168 100.089,922.819 99.745,919.481Z" style="fill:none;stroke:white;stroke-width:2px;"/>
        <path id="path3929-7-6-2" d="M37.314,976.282C37.554,980.941 36.983,985.64 35.634,990.105C34.536,993.741 32.924,997.221 30.86,1000.41" style="fill:none;stroke:white;stroke-width:2px;"/>
        <path id="path3929-7-6-4" d="M41.075,976.691C41.27,981.197 40.743,985.734 39.52,990.076C38.478,993.78 36.93,997.341 34.934,1000.63" style="fill:none;stroke:white;stroke-width:2px;"/>
        <path id="path3929-7-6-20" d="M56.018,979.474C56.072,983.745 55.461,988.023 54.213,992.108C53.104,995.741 51.493,999.219 49.439,1002.41" style="fill:none;stroke:white;stroke-width:2px;"/>
        <path id="path3929-7-6-1" d="M81.121,979.657C81.361,984.316 80.79,989.015 79.441,993.48C78.343,997.116 76.731,1000.6 74.667,1003.78" style="fill:none;stroke:white;stroke-width:2px;"/>
        <path id="path3929-7-6-7" d="M60.371,979.157C60.639,983.816 60.067,988.521 58.691,992.98C57.602,996.51 56.01,999.886 53.98,1002.97" style="fill:none;stroke:white;stroke-width:2px;"/>
        <path id="path3929-7-6-6" d="M76.279,979.572C76.519,984.23 75.948,988.929 74.599,993.394C73.5,997.03 71.888,1000.51 69.825,1003.7" style="fill:none;stroke:white;stroke-width:2px;"/>
        <path id="path3929-7-6-8" d="M96.121,981.157C96.483,985.374 96.082,989.654 94.941,993.73C93.917,997.391 92.298,1000.89 90.167,1004.03" style="fill:none;stroke:white;stroke-width:2px;"/>
        <path id="path3929-7-6-9" d="M99.371,980.657C100.237,984.793 100.175,989.12 99.191,993.23C98.304,996.936 96.671,1000.46 94.417,1003.53" style="fill:none;stroke:white;stroke-width:2px;"/>
        <path id="path3929-7-6-5" d="M112.121,979.532C112.973,983.241 112.997,987.136 112.191,990.855C111.382,994.585 109.739,998.131 107.417,1001.16" style="fill:none;stroke:white;stroke-width:2px;"/>
        <path id="path3929-7-6-87" d="M114.934,978.657C115.94,982.766 115.989,987.107 115.074,991.237C114.425,994.169 113.295,996.994 111.742,999.565" style="fill:none;stroke:white;stroke-width:2px;"/>
        <ellipse id="path4093-69-2-2-6" cx="31.617" cy="947.002" rx="0.659" ry="0.501" style="stroke:white;stroke-width:2px;stroke-linecap:round;stroke-linejoin:round;"/>
        <ellipse id="path4093-69-2-2-63" cx="41.867" cy="958.502" rx="0.659" ry="0.501" style="stroke:white;stroke-width:2px;stroke-linecap:round;stroke-linejoin:round;"/>
        <ellipse id="path4093-69-2-2-9" cx="56.117" cy="964.252" rx="0.659" ry="0.501" style="stroke:white;stroke-width:2px;stroke-linecap:round;stroke-linejoin:round;"/>
        <ellipse id="path4093-69-2-2-7" cx="71.367" cy="966.252" rx="0.659" ry="0.501" style="stroke:white;stroke-width:2px;stroke-linecap:round;stroke-linejoin:round;"/>
        <ellipse id="path4093-69-2-2-73" cx="86.617" cy="965.252" rx="0.659" ry="0.501" style="stroke:white;stroke-width:2px;stroke-linecap:round;stroke-linejoin:round;"/>
        <ellipse id="path4093-69-2-2-2" cx="100.751" cy="960.002" rx="0.659" ry="0.501" style="stroke:white;stroke-width:2px;stroke-linecap:round;stroke-linejoin:round;"/>
        <ellipse id="path4093-69-2-2-67" cx="112.074" cy="949.734" rx="0.659" ry="0.501" style="stroke:white;stroke-width:2px;stroke-linecap:round;stroke-linejoin:round;"/>
        <path id="path4747" d="M78.461,950.303C79.046,948.453 80.077,946.746 81.441,945.366C83.505,943.277 86.263,941.989 89.096,941.217C91.824,940.474 94.671,940.175 97.493,940.333" style="fill:none;stroke:white;stroke-width:2px;"/>
        <path id="path4751" d="M72.809,950.064C74.128,946.801 76.125,943.814 78.636,941.348C80.854,939.17 83.477,937.395 86.356,936.222C90.445,934.557 95.032,934.14 99.354,935.04" style="fill:none;stroke:white;stroke-width:2px;"/>
        <path id="path4755" d="M50.659,945.737C52.081,939.703 54.814,933.983 58.613,929.085C61.538,925.314 65.1,922.023 69.165,919.522C77.986,914.095 89.153,912.645 99.068,915.639" style="fill:none;stroke:white;stroke-width:2px;"/>
        <path id="path4759" d="M47.693,942.571C48.721,937.211 50.836,932.061 53.873,927.526C56.38,923.782 59.521,920.449 63.193,917.837C67.763,914.588 73.097,912.496 78.59,911.368C85.159,910.019 92.004,910.025 98.571,911.388" style="fill:none;stroke:white;stroke-width:2px;"/>
        <path id="path5497-3" d="M55.77,948.29L81.568,914.788" style="fill:none;stroke:white;stroke-width:2px;"/>
        <path id="path5501-41" d="M86.771,914.213L60.129,949.254" style="fill:none;stroke:white;stroke-width:2px;"/>
        <path id="path5505-2" d="M64.93,949.998L91.274,914.143" style="fill:none;stroke:white;stroke-width:2px;"/>
        <path id="path5509-12" d="M95.541,914.788L70.187,950.105" style="fill:none;stroke:white;stroke-width:2px;"/>
        <path id="path5513-3" d="M83.744,937.558L99.158,916.223" style="fill:none;stroke:white;stroke-width:2px;"/>
        <path id="path5513-3-3" d="M90.572,934.862L100.01,922.092" style="fill:none;stroke:white;stroke-width:2px;"/>
        <path id="path5513-3-1" d="M95.252,934.536L100.403,927.777" style="fill:none;stroke:white;stroke-width:2px;"/>
        <path id="path5497-3-8" d="M52.306,946.489L75.452,916.523" style="fill:none;stroke:white;stroke-width:2px;"/>
        <path id="path5497-3-0" d="M52.113,940.957L69.646,919.211" style="fill:none;stroke:white;stroke-width:2px;"/>
    </g>
</svg>
