<?xml version="1.0" encoding="UTF-8" standalone="no"?>
<!DOCTYPE svg PUBLIC "-//W3C//DTD SVG 1.1//EN" "http://www.w3.org/Graphics/SVG/1.1/DTD/svg11.dtd">
<svg width="100%" height="100%" viewBox="0 0 140 200" version="1.1" xmlns="http://www.w3.org/2000/svg" xmlns:xlink="http://www.w3.org/1999/xlink" xml:space="preserve" xmlns:serif="http://www.serif.com/" style="fill-rule:evenodd;clip-rule:evenodd;">
    <g id="Calque-1" serif:id="Calque 1" transform="matrix(1,0,0,1,0,-852.362)">
        <path id="path5345" d="M14.694,981.096C10.157,972.666 7.829,963.058 8.005,953.486C8.054,950.865 8.288,948.234 8.951,945.698C9.614,943.162 10.718,940.717 12.381,938.69C14.904,935.614 18.547,933.677 22.227,932.167C24.575,931.204 26.989,930.378 29.483,929.914C30.658,929.695 31.854,929.557 33.047,929.622C34.24,929.686 35.433,929.961 36.484,930.529C37.662,931.166 38.623,932.15 39.405,933.237C40.187,934.324 40.803,935.519 41.427,936.704C43.161,939.999 45.009,943.351 45.472,947.045C45.704,948.892 45.571,950.805 44.912,952.546C44.253,954.287 43.044,955.846 41.427,956.767C40.166,957.486 38.704,957.799 37.254,957.861C35.804,957.922 34.355,957.743 32.919,957.531C31.483,957.319 30.048,957.074 28.598,957.002C27.148,956.931 25.672,957.038 24.301,957.514C22.589,958.108 21.115,959.251 19.844,960.542C17.245,963.181 15.368,966.524 14.468,970.117C13.568,973.71 13.647,977.543 14.694,981.096Z" style="fill:none;stroke:white;stroke-width:2px;"/>
        <path id="path5349" d="M22.385,981.085C22.269,983.39 22.527,985.78 23.635,987.805C24.19,988.817 24.954,989.721 25.901,990.381C26.848,991.041 27.979,991.449 29.133,991.477C30.758,991.516 32.31,990.818 33.712,989.995C35.113,989.172 36.443,988.203 37.955,987.606C39.677,986.926 41.563,986.76 43.414,986.819C45.264,986.878 47.1,987.153 48.943,987.324C50.334,987.454 51.748,987.523 53.121,987.257C54.493,986.992 55.833,986.362 56.731,985.29C57.578,984.279 57.974,982.927 57.922,981.609C57.869,980.291 57.387,979.009 56.656,977.911C55.192,975.716 52.824,974.304 50.453,973.146C46.713,971.319 42.662,969.92 38.499,969.942C35.816,969.956 33.162,970.562 30.634,971.46C29.1,972.005 27.593,972.665 26.266,973.606C24.939,974.548 23.793,975.79 23.147,977.284C22.632,978.477 22.45,979.787 22.385,981.085L22.385,981.085Z" style="fill:none;stroke:white;stroke-width:2px;"/>
        <path id="path5353" d="M36.055,929.786C47.525,922.629 61.951,920.384 75.053,923.717C81.428,925.339 87.471,928.208 93.948,929.358C97.187,929.933 100.538,930.066 103.754,929.379C106.971,928.692 110.053,927.145 112.274,924.719C114.362,922.437 115.608,919.477 116.2,916.441C116.793,913.406 116.766,910.283 116.556,907.198C115.901,897.605 113.366,887.906 107.662,880.165C101.163,871.344 90.973,865.722 80.323,863.145C70.123,860.676 59.141,860.842 49.36,864.646C44.5,866.537 39.867,869.409 36.843,873.657C34.241,877.313 32.978,881.786 32.552,886.252C32.126,890.719 32.492,895.219 32.891,899.689C33.786,909.737 34.841,919.771 36.055,929.786L36.055,929.786Z" style="fill:none;stroke:white;stroke-width:2px;"/>
        <path id="path5357" d="M34.639,920.645C30.312,920.656 26.011,918.798 23.054,915.639C21.01,913.455 19.621,910.722 18.685,907.881C17.75,905.04 17.246,902.076 16.796,899.119C15.93,893.437 15.25,887.611 16.353,881.97C16.916,879.094 17.962,876.268 19.757,873.953C21.973,871.095 25.309,869.13 28.883,868.579C32.457,868.027 36.231,868.895 39.205,870.953" style="fill:none;stroke:white;stroke-width:2px;"/>
        <path id="path5361" d="M103.713,875.409C104.456,872.364 106.384,869.625 109,867.899C111.623,866.169 114.888,865.476 118.004,865.875C121.121,866.274 124.073,867.742 126.355,869.902C129.406,872.79 131.21,876.798 132.132,880.898C133.054,884.997 133.161,889.23 133.272,893.43C133.507,902.317 133.761,911.333 131.625,919.962C130.471,924.624 128.625,929.114 126.166,933.239C126.933,934.133 127.617,935.098 128.206,936.118C129.792,938.867 130.666,941.984 131.067,945.132C131.469,948.279 131.411,951.468 131.228,954.636C130.91,960.134 130.216,965.611 129.151,971.016" style="fill:none;stroke:white;stroke-width:2px;"/>
        <path id="path5365" d="M34.242,957.397C35.104,959.3 35.798,961.279 36.313,963.303C36.855,965.436 37.199,967.62 37.339,969.817" style="fill:none;stroke:white;stroke-width:2px;"/>
        <path id="path5369" d="M46.701,987.11C58.655,989.893 70.923,991.323 83.196,991.362C85.343,991.369 87.512,991.331 89.596,990.815C91.68,990.299 93.697,989.261 95.028,987.577C96.422,985.813 96.952,983.461 96.743,981.223C96.591,979.601 96.061,978 95.104,976.682C93.768,974.843 91.676,973.658 89.487,973.044C87.298,972.43 85,972.339 82.727,972.336C76.653,972.327 70.579,972.565 64.512,972.276L46.243,971.405" style="fill:none;stroke:white;stroke-width:2px;"/>
        <path id="path5373" d="M129.91,972.038C128.44,970.099 126.135,968.963 123.802,968.271C117.411,966.374 110.173,967.47 104.698,971.275C101.852,973.252 99.465,975.954 98.131,979.151C96.796,982.349 96.568,986.05 97.781,989.296C98.868,992.207 101.042,994.626 103.591,996.404C106.139,998.183 109.055,999.365 112.012,1000.32C114.649,1001.17 117.386,1001.86 120.156,1001.77C121.541,1001.72 122.925,1001.48 124.216,1000.97C125.507,1000.47 126.705,999.708 127.652,998.696C129.189,997.055 129.998,994.851 130.409,992.64C130.82,990.429 130.87,988.169 131.105,985.933C131.354,983.558 131.814,981.197 131.825,978.809C131.836,976.421 131.353,973.941 129.91,972.038Z" style="fill:none;stroke:white;stroke-width:2px;"/>
        <path id="path5381" d="M55.942,930.304C54.958,931.594 54.298,933.131 54.06,934.736C53.821,936.34 54.008,938.008 54.613,939.513C55.317,941.268 56.584,942.782 58.149,943.843C59.714,944.904 61.569,945.517 63.454,945.667C65.34,945.817 67.268,945.505 68.984,944.708C70.699,943.912 72.194,942.626 73.183,941.013C74.015,939.659 74.483,938.085 74.54,936.497C74.596,934.909 74.243,933.309 73.533,931.887C72.708,930.236 71.406,928.832 69.837,927.862C68.268,926.891 66.438,926.353 64.594,926.291C62.944,926.236 61.28,926.56 59.779,927.249C58.278,927.938 56.944,928.992 55.942,930.304Z" style="fill:none;stroke:white;stroke-width:2px;"/>
        <path id="path5385" d="M49.269,923.966C47.204,920.376 46.079,916.25 46.038,912.109C45.996,907.967 47.038,903.82 49.031,900.189C50.108,898.227 51.483,896.39 53.284,895.059C55.085,893.729 57.345,892.94 59.571,893.181C61.134,893.35 62.624,894.019 63.859,894.991C65.094,895.963 66.081,897.23 66.822,898.616C68.305,901.388 68.801,904.571 69.124,907.698C69.629,912.601 69.762,917.542 69.52,922.465" style="fill:none;stroke:white;stroke-width:2px;"/>
        <path id="path5389" d="M65.247,896.207C67.116,894.816 69.424,894.025 71.752,893.976C74.081,893.928 76.42,894.623 78.345,895.935C79.956,897.033 81.264,898.541 82.273,900.21C83.282,901.878 84.003,903.708 84.569,905.574C86.661,912.456 86.671,919.956 84.599,926.844" style="fill:none;stroke:white;stroke-width:2px;"/>
        <path id="path5393" d="M110.996,885.583C113.195,883.426 116.517,882.485 119.52,883.169C122.286,883.798 124.674,885.727 126.108,888.175C127.278,890.171 127.845,892.481 127.985,894.79C128.124,897.1 127.85,899.417 127.426,901.691C127.139,903.225 126.78,904.759 126.119,906.172C125.457,907.586 124.472,908.882 123.144,909.701C122.204,910.28 121.11,910.605 120.006,910.634C118.903,910.662 117.793,910.394 116.825,909.864" style="fill:none;stroke:white;stroke-width:2px;"/>
        <path id="path5397" d="M32.232,893.418C29.989,892.758 27.982,891.323 26.632,889.413C25.199,887.385 24.523,884.857 24.625,882.375C24.726,879.893 25.586,877.465 26.961,875.396C28.958,872.393 32.06,870.143 35.534,869.176" style="fill:none;stroke:white;stroke-width:2px;"/>
        <path id="path5401" d="M9.985,969.272C10.149,965.347 11.694,961.493 14.287,958.541C15.703,956.929 17.418,955.585 19.308,954.569C20.986,953.667 22.819,953.019 24.716,952.83C26.687,952.634 28.712,952.946 30.518,953.761C31.518,954.212 32.454,954.797 33.47,955.21C34.486,955.622 35.573,955.824 36.662,955.958L41.739,956.583" style="fill:none;stroke:white;stroke-width:2px;"/>
        <path id="path5405" d="M31.389,937.206C30.619,937.297 29.908,937.791 29.553,938.481C29.199,939.172 29.213,940.038 29.588,940.717C29.876,941.238 30.367,941.644 30.934,941.828C31.501,942.012 32.137,941.973 32.676,941.72C33.183,941.483 33.6,941.061 33.832,940.553C34.064,940.044 34.108,939.453 33.955,938.915C33.802,938.377 33.452,937.898 32.987,937.588C32.521,937.278 31.945,937.14 31.389,937.206L31.389,937.206Z" style="fill:none;stroke:white;stroke-width:2px;"/>
        <path id="path5409" d="M61.193,979.908C60.945,981.371 60.632,982.889 61.032,984.319C61.232,985.034 61.618,985.709 62.195,986.176C62.484,986.409 62.818,986.588 63.175,986.687C63.533,986.787 63.914,986.806 64.277,986.731C64.958,986.59 65.539,986.129 65.957,985.574C66.376,985.019 66.651,984.371 66.912,983.727C67.367,982.607 67.796,981.464 67.98,980.269C68.164,979.074 68.09,977.811 67.571,976.719C67.299,976.146 66.904,975.625 66.39,975.255C65.876,974.884 65.239,974.672 64.607,974.716C64.047,974.756 63.51,974.994 63.073,975.347C62.636,975.699 62.295,976.162 62.043,976.663C61.537,977.665 61.38,978.801 61.193,979.908L61.193,979.908Z" style="fill:none;stroke:white;stroke-width:2px;"/>
        <path id="path4851-0-8" d="M128.013,998.267C129.447,1001.02 130.601,1003.92 131.452,1006.9C132.192,1009.49 132.705,1012.16 132.818,1014.86C133.081,1021.08 131.165,1027.33 127.631,1032.45C125.101,1036.12 121.698,1039.26 117.618,1041.05C112.822,1043.15 107.419,1043.29 102.184,1043.19C85.596,1042.89 69.017,1040.6 52.465,1041.72C44.585,1042.26 36.676,1043.56 28.832,1042.64C22.047,1041.84 15.465,1039.36 9.844,1035.48" style="fill:none;stroke:white;stroke-width:2px;"/>
        <path id="path4855-9-5" d="M24.919,989.63C21.901,991.289 19.369,993.82 17.708,996.836C16.048,999.853 15.264,1003.35 15.476,1006.78C15.609,1008.92 16.116,1011.02 16.362,1013.15C16.958,1018.34 15.981,1023.63 14.047,1028.47C12.998,1031.1 11.67,1033.61 10.092,1035.96" style="fill:none;stroke:white;stroke-width:2px;"/>
        <path id="path4911-8-0" d="M104.83,997.121C105.673,1002.27 103.803,1007.8 100.002,1011.38C97.415,1013.81 94.071,1015.33 90.627,1016.2C87.182,1017.07 83.616,1017.33 80.068,1017.52C68.283,1018.17 56.331,1018.1 44.856,1015.34C42.706,1014.82 40.569,1014.21 38.37,1013.97C36.172,1013.73 33.875,1013.88 31.882,1014.84C29.537,1015.97 27.758,1018.22 27.24,1020.77C26.798,1022.96 27.169,1025.23 26.835,1027.43C26.667,1028.53 26.335,1029.6 25.833,1030.6C25.331,1031.59 24.661,1032.49 23.979,1033.37L18.641,1040.25" style="fill:none;stroke:white;stroke-width:2px;"/>
        <path id="path4915-2-7" d="M113.784,1000.63C114.805,1005.04 114.6,1009.72 113.197,1014.01C111.794,1018.31 109.198,1022.21 105.775,1025.17C101.192,1029.12 95.287,1031.29 89.316,1032.27C81.205,1033.61 72.9,1032.88 64.758,1031.76C59.244,1031 53.755,1030.05 48.312,1028.88C46.637,1028.53 44.947,1028.14 43.233,1028.18C41.52,1028.21 39.751,1028.7 38.512,1029.89C37.444,1030.91 36.865,1032.34 36.506,1033.78C36.147,1035.21 35.978,1036.69 35.57,1038.11C35.078,1039.81 34.24,1041.42 33.121,1042.8" style="fill:none;stroke:white;stroke-width:2px;"/>
        <path id="path4919-0-7" d="M120.733,1001.53C122.799,1006.31 124.02,1011.44 124.321,1016.64C124.499,1019.7 124.356,1022.8 123.579,1025.77C122.803,1028.74 121.368,1031.57 119.201,1033.74C117.305,1035.64 114.905,1036.98 112.383,1037.89C109.862,1038.81 107.211,1039.31 104.557,1039.7C96.628,1040.86 88.554,1041.03 80.585,1040.19C76.244,1039.74 71.935,1038.98 67.583,1038.64C63.231,1038.3 58.791,1038.38 54.589,1039.57C52.588,1040.13 50.656,1040.94 48.852,1041.98" style="fill:none;stroke:white;stroke-width:2px;"/>
        <path id="path5409-1" d="M72.505,980.47C72.257,981.934 71.945,983.452 72.345,984.881C72.545,985.596 72.931,986.272 73.508,986.738C73.796,986.972 74.13,987.15 74.488,987.25C74.845,987.349 75.226,987.368 75.59,987.293C76.27,987.152 76.851,986.691 77.27,986.136C77.688,985.581 77.963,984.933 78.225,984.29C78.68,983.169 79.109,982.027 79.293,980.832C79.477,979.636 79.402,978.374 78.884,977.281C78.612,976.709 78.217,976.187 77.703,975.817C77.189,975.447 76.551,975.234 75.919,975.279C75.359,975.318 74.822,975.557 74.385,975.909C73.949,976.262 73.608,976.724 73.355,977.225C72.85,978.228 72.693,979.363 72.505,980.47L72.505,980.47Z" style="fill:none;stroke:white;stroke-width:2px;"/>
        <path id="path5409-6" d="M83.63,981.47C83.382,982.934 83.07,984.452 83.47,985.881C83.67,986.596 84.056,987.272 84.633,987.738C84.921,987.972 85.255,988.15 85.613,988.25C85.97,988.349 86.351,988.368 86.715,988.293C87.395,988.152 87.976,987.691 88.395,987.136C88.813,986.581 89.088,985.933 89.35,985.29C89.805,984.169 90.234,983.027 90.418,981.832C90.602,980.636 90.527,979.374 90.009,978.281C89.737,977.709 89.342,977.187 88.828,976.817C88.314,976.447 87.676,976.234 87.044,976.279C86.484,976.318 85.947,976.557 85.51,976.909C85.074,977.262 84.733,977.724 84.48,978.225C83.975,979.228 83.818,980.363 83.63,981.47L83.63,981.47Z" style="fill:none;stroke:white;stroke-width:2px;"/>
        <path id="path4911-8-0-1" d="M95.44,986.513C96.078,989.28 95.987,992.213 95.177,994.935C94.368,997.657 92.843,1000.16 90.797,1002.13C88.375,1004.46 85.269,1006.01 82.019,1006.87C78.768,1007.73 75.37,1007.91 72.013,1007.75C61.27,1007.23 50.819,1003.22 40.07,1003.62C33.56,1003.86 27.005,1005.82 21.882,1009.84C19.781,1011.49 17.939,1013.47 16.445,1015.69" style="fill:none;stroke:white;stroke-width:2px;"/>
        <path id="path5499" d="M88.656,990.919C85.623,993.861 81.819,996.001 77.731,997.067C71.37,998.726 64.653,997.782 58.163,996.744C54.198,996.11 50.228,995.444 46.218,995.231C35.602,994.67 24.836,997.394 15.765,1002.94" style="fill:none;stroke:white;stroke-width:2px;"/>
        <path id="path5381-3" d="M60.571,933.061C60.093,933.714 59.778,934.486 59.666,935.288C59.555,936.089 59.649,936.919 59.941,937.674C60.271,938.526 60.853,939.276 61.591,939.815C62.328,940.354 63.218,940.681 64.128,940.756C65.032,940.831 65.957,940.658 66.768,940.252C67.58,939.845 68.274,939.206 68.736,938.425C69.14,937.742 69.365,936.955 69.391,936.161C69.417,935.368 69.245,934.569 68.901,933.854C68.516,933.052 67.915,932.355 67.175,931.862C66.434,931.369 65.557,931.082 64.668,931.051C63.086,930.995 61.505,931.783 60.571,933.061Z" style="fill:none;stroke:white;stroke-width:2px;"/>
        <path id="path5522" d="M108.176,942.106C110.151,940.773 112.542,940.064 114.926,940.106C118.068,940.162 121.166,941.549 123.301,943.856" style="fill:none;stroke:white;stroke-width:2px;"/>
        <path id="path5522-1" d="M108.176,947.981C110.011,946.881 112.161,946.311 114.301,946.356C117.168,946.417 119.997,947.603 122.051,949.606" style="fill:none;stroke:white;stroke-width:2px;"/>
        <path id="path5522-5" d="M107.926,953.606C109.754,952.908 111.718,952.567 113.676,952.606C116.601,952.666 119.504,953.589 121.926,955.231" style="fill:none;stroke:white;stroke-width:2px;"/>
        <path id="path5509-0-1-0-02-7-0" d="M56.186,893.605L46.132,909.03" style="fill:none;stroke:white;stroke-width:2px;"/>
        <path id="path5509-0-1-0-07-2-8" d="M61.014,893.414L46.372,916.825" style="fill:none;stroke:white;stroke-width:2px;"/>
        <path id="path5509-0-1-0-3-3-7" d="M64.542,895.822L48.217,921.416" style="fill:none;stroke:white;stroke-width:2px;"/>
        <path id="path5509-0-1-0-06-9-2" d="M67.26,899.201L52.004,923.347" style="fill:none;stroke:white;stroke-width:2px;"/>
        <path id="path5509-0-1-0-2-1-8" d="M68.81,904.851L57.777,922.294" style="fill:none;stroke:white;stroke-width:2px;"/>
        <path id="path4150-3-6-8-1" d="M63.169,922.449L69.434,912.409" style="fill:none;stroke:white;stroke-width:2px;"/>
        <path id="path4150-3-7-4-0" d="M68.194,922.525L69.624,920.006" style="fill:none;stroke:white;stroke-width:2px;"/>
        <path id="path5509-0-1-0-02-7-5" d="M78.799,896.389L69.408,911.173" style="fill:none;stroke:white;stroke-width:2px;"/>
        <path id="path5509-0-1-0-07-2-7" d="M81.594,899.623L69.47,918.704" style="fill:none;stroke:white;stroke-width:2px;"/>
        <path id="path5509-0-1-0-3-3-12" d="M83.774,903.49L71.493,922.941" style="fill:none;stroke:white;stroke-width:2px;"/>
        <path id="path5509-0-1-0-06-9-1" d="M85.342,908.195L75.678,923.767" style="fill:none;stroke:white;stroke-width:2px;"/>
        <path id="path5509-0-1-0-2-1-7" d="M86.141,914.818L79.815,925.056" style="fill:none;stroke:white;stroke-width:2px;"/>
        <path id="path4150-3-6-8-9" d="M68.635,904.263L74.678,894.356" style="fill:none;stroke:white;stroke-width:2px;"/>
        <path id="path4150-3-7-4-1" d="M83.934,926.37L85.365,923.852" style="fill:none;stroke:white;stroke-width:2px;"/>
        <path id="path4150-3-6-8-9-9" d="M66.811,898.656L69.673,894.184" style="fill:none;stroke:white;stroke-width:2px;"/>
        <path id="path4150-3-6-8-9-0" d="M112.885,890.013L117.721,882.963" style="fill:none;stroke:white;stroke-width:2px;"/>
        <path id="path4150-3-6-8-9-8" d="M114.806,895.357L121.94,884.291" style="fill:none;stroke:white;stroke-width:2px;"/>
        <path id="path4150-3-6-8-9-7" d="M116.025,901.451L125.44,887.307" style="fill:none;stroke:white;stroke-width:2px;"/>
        <path id="path4150-3-6-8-9-78" d="M116.635,909.201L127.69,892.26" style="fill:none;stroke:white;stroke-width:2px;"/>
        <path id="path4150-3-6-8-9-2" d="M121.251,910.4L127.591,900.847" style="fill:none;stroke:white;stroke-width:2px;"/>
        <path id="path4150-3-6-8-9-5" d="M22.369,982.628L29.066,972" style="fill:none;stroke:white;stroke-width:2px;"/>
        <path id="path4150-3-6-8-9-1" d="M23.751,987.777L34.634,970.321" style="fill:none;stroke:white;stroke-width:2px;"/>
        <path id="path4150-3-6-8-9-95" d="M26.988,990.612L40.044,969.984" style="fill:none;stroke:white;stroke-width:2px;"/>
        <path id="path4150-3-6-8-9-3" d="M32.181,990.761L44.659,970.992" style="fill:none;stroke:white;stroke-width:2px;"/>
        <path id="path4150-3-6-8-9-20" d="M39.104,987.319L48.8,972.503" style="fill:none;stroke:white;stroke-width:2px;"/>
        <path id="path4150-3-6-8-9-88" d="M44.369,986.7L52.441,974.384" style="fill:none;stroke:white;stroke-width:2px;"/>
        <path id="path4150-3-6-8-9-6" d="M49.314,987.275L55.932,976.881" style="fill:none;stroke:white;stroke-width:2px;"/>
        <path id="path4150-3-6-8-9-54" d="M54.728,986.684L57.971,981.79" style="fill:none;stroke:white;stroke-width:2px;"/>
        <path id="path4150-3-6-8-9-71" d="M60.072,938.326L64.971,931.307" style="fill:none;stroke:white;stroke-width:2px;"/>
        <path id="path4150-3-6-8-9-4" d="M63.385,940.638L68.44,932.776" style="fill:none;stroke:white;stroke-width:2px;"/>
        <path id="path4150-3-6-8-9-11" d="M27.142,890.373L33.76,879.98" style="fill:none;stroke:white;stroke-width:2px;"/>
        <path id="path4150-3-6-8-9-18" d="M30.551,892.595L32.363,889.816" style="fill:none;stroke:white;stroke-width:2px;"/>
        <path id="path4150-3-6-8-9-783" d="M25.093,885.866L36.561,869.561" style="fill:none;stroke:white;stroke-width:2px;"/>
        <path id="path7286" d="M120.556,984.012C122.2,983.832 123.863,983.832 125.506,984.012C127.315,984.21 129.1,984.627 130.809,985.25" style="fill:none;stroke:white;stroke-width:2px;"/>
    </g>
</svg>
