<?xml version="1.0" encoding="UTF-8" standalone="no"?>
<!DOCTYPE svg PUBLIC "-//W3C//DTD SVG 1.1//EN" "http://www.w3.org/Graphics/SVG/1.1/DTD/svg11.dtd">
<svg width="100%" height="100%" viewBox="0 0 140 200" version="1.1" xmlns="http://www.w3.org/2000/svg" xmlns:xlink="http://www.w3.org/1999/xlink" xml:space="preserve" xmlns:serif="http://www.serif.com/" style="fill-rule:evenodd;clip-rule:evenodd;">
    <g id="Calque-1" serif:id="Calque 1" transform="matrix(1,0,0,1,0,-852.362)">
        <path id="path4462-4-0-0-2" d="M44.391,861.865C41.131,862.617 37.467,864.486 33.428,865.968C29.39,867.45 25.108,868.413 22.469,870.446C17.357,874.383 13.673,878.736 10.758,884.492C7.843,890.247 6.025,896.516 4.959,902.879C2.826,915.604 3.661,928.609 3.797,941.511C3.92,953.184 3.473,964.946 5.504,976.441C7.535,987.936 12.342,999.381 21.23,1006.95C28.329,1012.99 37.516,1016.12 46.736,1017.5C55.957,1018.87 65.33,1018.6 74.652,1018.59C81.671,1018.58 89.01,1018.22 95.975,1017.35C102.939,1016.48 108.533,1014.15 114.402,1010.3C119.486,1006.97 124.145,1002.1 127.194,996.843C130.244,991.583 131.887,986.287 133.138,980.337C135.639,968.436 136.075,956.677 136.205,944.517C136.35,930.939 137.222,917.238 134.812,903.875C133.608,897.193 131.571,890.624 128.34,884.652C125.109,878.68 120.652,873.314 115.082,869.431C109.131,865.284 106.81,862.933 99.67,861.654C98.579,861.458 96.637,861.078 94.625,861.01C92.614,860.942 90.645,860.943 89.499,861.039" style="fill:none;stroke:white;stroke-width:2px;"/>
        <path id="path5075-3-3-0" d="M30.451,1012.9C24.182,1012.55 17.819,1015.45 13.975,1020.41C11.562,1023.53 10.127,1027.42 10.068,1031.36C10.01,1035.3 11.355,1039.27 13.899,1042.28C15.679,1044.38 18.017,1046 20.595,1046.98C24.519,1048.47 28.824,1048.45 33.019,1048.62C36.424,1048.75 39.884,1049.01 43.2,1048.23C46.455,1047.46 49.461,1045.67 51.689,1043.17C53.918,1040.68 55.359,1037.49 55.76,1034.17C56.161,1030.85 55.519,1027.41 53.948,1024.46C52.377,1021.5 49.884,1019.05 46.906,1017.53" style="fill:none;stroke:white;stroke-width:2px;"/>
        <path id="path5935" d="M127.749,1021.39C124.691,1017.39 120.073,1014.55 115.077,1013.9C111.436,1013.43 107.71,1014.12 104.286,1015.44C101.467,1016.53 98.771,1018.09 96.774,1020.36C94.034,1023.47 92.816,1027.69 92.593,1031.83C92.368,1036.02 93.143,1040.39 95.525,1043.84C96.767,1045.64 98.429,1047.16 100.367,1048.17C102.535,1049.3 104.992,1049.79 107.433,1049.94C109.874,1050.1 112.323,1049.94 114.768,1049.88C116.901,1049.81 119.044,1049.81 121.154,1049.49C123.263,1049.17 125.362,1048.5 127.079,1047.24C128.57,1046.14 129.722,1044.62 130.518,1042.94C131.313,1041.27 131.762,1039.44 131.99,1037.61C132.695,1031.92 131.226,1025.95 127.749,1021.39L127.749,1021.39Z" style="fill:none;stroke:white;stroke-width:2px;"/>
        <path id="path5978" d="M55.16,1036.86C54.697,1040.93 55.071,1042.02 56.376,1044.09C57.673,1046.14 60.071,1047.41 62.346,1048.27C65.806,1049.57 70.24,1049.39 73.371,1049.45C76.38,1049.5 80.412,1049.51 83.808,1048.72C86.214,1048.16 89.189,1047.33 90.666,1045.91C92.143,1044.5 92.445,1043.75 92.7,1041.5C92.956,1039.24 92.818,1036.97 92.615,1034.71C92.224,1030.35 91.541,1025.87 89.248,1022.14L89.249,1022.14C88.165,1020.38 87.401,1019.46 85.745,1018.22" style="fill:none;stroke:white;stroke-width:2px;"/>
        <path id="path5969" d="M62.85,1018.57C61.283,1019.74 60.102,1019.28 58.271,1021.85C56.44,1024.41 56.222,1024.85 55.7,1029.18" style="fill:none;stroke:white;stroke-width:2px;"/>
        <path id="path5980" d="M4.117,943.352C15.331,942.98 26.547,942.657 37.765,942.382C57.259,941.903 76.76,941.569 96.258,941.796C109.568,941.95 122.875,942.366 136.169,943.042" style="fill:none;stroke:white;stroke-width:2px;"/>
        <path id="path5984" d="M4.258,967.651C8.312,969.159 12.848,969.337 17.008,968.151C19.125,967.548 21.196,966.562 22.676,964.932C24.174,963.283 24.953,961.113 25.539,958.964C26.962,953.75 27.461,948.286 27.008,942.901" style="fill:none;stroke:white;stroke-width:2px;"/>
        <path id="path5984-7" d="M134.996,966.651C130.942,968.159 126.405,968.337 122.246,967.151C120.129,966.548 118.058,965.562 116.578,963.932C115.08,962.283 114.301,960.113 113.714,957.964C112.292,952.75 111.792,947.286 112.246,941.901" style="fill:none;stroke:white;stroke-width:2px;"/>
        <path id="path6006" d="M53.758,968.651C55.907,971.634 58.946,973.969 62.383,975.276C64.835,976.209 67.478,976.624 70.1,976.539C73.837,976.419 77.551,975.267 80.633,973.151C82.366,971.961 83.895,970.475 85.133,968.776" style="fill:none;stroke:white;stroke-width:2px;"/>
        <path id="path6006-1" d="M54.258,992.383C56.407,989.4 59.446,987.065 62.883,985.758C65.335,984.825 67.978,984.41 70.6,984.495C74.337,984.615 78.051,985.767 81.133,987.883C82.866,989.073 84.395,990.559 85.633,992.258" style="fill:none;stroke:white;stroke-width:2px;"/>
        <path id="path6028" d="M62.133,975.401C60.807,976.578 59.942,978.262 59.758,980.026C59.528,982.228 60.387,984.518 62.008,986.026" style="fill:none;stroke:white;stroke-width:2px;"/>
        <path id="path6028-8" d="M76.459,975.151C77.785,976.328 78.65,978.012 78.834,979.776C79.064,981.978 78.205,984.268 76.584,985.776" style="fill:none;stroke:white;stroke-width:2px;"/>
        <path id="path6050" d="M64.867,941.578C64.964,933.311 65.019,925.044 65.032,916.776C65.042,909.859 65.023,902.94 64.813,896.026C64.641,890.366 64.342,884.711 64.032,879.057C63.914,876.903 63.793,874.74 63.377,872.623C62.96,870.505 62.236,868.42 61.001,866.651C59.695,864.781 57.841,863.312 55.751,862.401C52.326,860.908 48.39,860.929 44.751,861.776C40.01,862.88 35.676,865.299 31.001,866.651C29.097,867.202 27.124,867.575 25.143,867.523C23.162,867.471 21.165,866.977 19.501,865.901C17.538,864.633 16.112,862.562 15.626,860.276C18.583,859.729 21.541,859.188 24.501,858.651C32.957,857.117 41.436,855.623 50.001,854.901C52.053,854.728 54.125,854.6 56.169,854.854C58.213,855.107 60.247,855.765 61.876,857.026C63.197,858.05 64.207,859.436 64.955,860.932C65.703,862.427 66.202,864.034 66.626,865.651C69.474,876.514 69.079,887.921 69.001,899.151C68.934,908.651 69.108,918.152 69.251,927.651C69.321,932.338 69.383,937.026 69.438,941.714" style="fill:none;stroke:white;stroke-width:2px;"/>
        <path id="path6050-9" d="M73.851,941.298C73.759,933.207 73.704,925.117 73.686,917.026C73.671,910.109 73.683,903.19 73.905,896.276C74.086,890.617 74.407,884.963 74.686,879.307C74.792,877.149 74.894,874.982 75.304,872.861C75.714,870.74 76.448,868.65 77.717,866.901C79.591,864.319 82.523,862.648 85.592,861.776C89.147,860.766 92.919,860.74 96.592,861.151C101.556,861.706 106.409,863.04 111.092,864.776C112.852,865.429 114.612,866.144 116.471,866.401C117.401,866.53 118.352,866.541 119.275,866.37C120.197,866.199 121.092,865.841 121.842,865.276C122.752,864.59 123.431,863.603 123.744,862.507C124.057,861.411 124.003,860.214 123.592,859.151C120.595,858.716 117.595,858.3 114.592,857.901C105.993,856.76 97.37,855.766 88.717,855.151C86.664,855.005 84.596,854.881 82.553,855.129C80.51,855.378 78.474,856.021 76.842,857.276C75.516,858.296 74.505,859.682 73.757,861.178C73.01,862.674 72.514,864.283 72.092,865.901C69.259,876.768 69.642,888.171 69.717,899.401C69.78,908.901 69.609,918.402 69.467,927.901C69.397,932.588 69.335,937.276 69.28,941.964" style="fill:none;stroke:white;stroke-width:2px;"/>
        <path id="path6079" d="M8.133,942.651C7.922,934.236 7.964,925.814 8.258,917.401C8.435,912.337 8.706,907.258 9.633,902.276C10.627,896.937 12.387,891.712 15.133,887.026C18.172,881.841 22.422,877.353 27.508,874.151C32.051,871.291 37.183,869.484 42.383,868.151C48.152,866.673 54.063,865.75 60.008,865.401" style="fill:none;stroke:white;stroke-width:2px;"/>
        <path id="path6079-4" d="M131.03,943.151C131.261,934.736 131.219,926.313 130.905,917.901C130.716,912.838 130.427,907.763 129.53,902.776C128.568,897.426 126.885,892.152 124.03,887.526C120.886,882.432 116.42,878.276 111.655,874.651C107.181,871.248 102.346,868.23 97.03,866.401C91.505,864.501 85.527,863.933 79.744,864.761" style="fill:none;stroke:white;stroke-width:2px;"/>
        <path id="path6101" d="M33.683,871.271C33.759,883.291 33.759,895.313 33.683,907.333C33.609,918.932 33.464,930.531 33.247,942.128" style="fill:none;stroke:white;stroke-width:2px;"/>
        <path id="path6101-2" d="M103.594,869.408C103.719,881.841 103.749,894.275 103.682,906.708C103.62,918.307 103.475,929.906 103.246,941.503" style="fill:none;stroke:white;stroke-width:2px;"/>
        <path id="path6101-1" d="M96.454,866.101C96.726,879.593 96.844,893.089 96.808,906.583C96.776,918.183 96.631,929.782 96.372,941.378" style="fill:none;stroke:white;stroke-width:2px;"/>
        <path id="path6101-5" d="M41.12,868.646C41.046,881.542 40.942,894.438 40.808,907.333C40.687,918.932 40.542,930.53 40.372,942.128" style="fill:none;stroke:white;stroke-width:2px;"/>
        <path id="path5509-0-1-0-20" d="M54.402,865.73L41.107,885.94" style="fill:none;stroke:white;stroke-width:2px;"/>
        <path id="path5517-5-5-4-8" d="M59.188,865.418L40.931,893.707" style="fill:none;stroke:white;stroke-width:2px;"/>
        <path id="path4150-3-0" d="M40.935,878.773L48.456,866.738" style="fill:none;stroke:white;stroke-width:2px;"/>
        <path id="path5509-0-1-0-1-5" d="M61.836,868.082L40.923,901.102" style="fill:none;stroke:white;stroke-width:2px;"/>
        <path id="path5509-0-1-0-0-0" d="M63.325,872.76L40.923,908.882" style="fill:none;stroke:white;stroke-width:2px;"/>
        <path id="path5509-0-1-0-8-7" d="M63.95,878.517L40.673,916.451" style="fill:none;stroke:white;stroke-width:2px;"/>
        <path id="path5509-0-1-0-6-8" d="M64.322,885.259L40.577,923.756" style="fill:none;stroke:white;stroke-width:2px;"/>
        <path id="path5509-0-1-0-02-7" d="M64.596,892.674L40.444,930.483" style="fill:none;stroke:white;stroke-width:2px;"/>
        <path id="path5509-0-1-0-07-2" d="M64.784,899.267L40.507,938.013" style="fill:none;stroke:white;stroke-width:2px;"/>
        <path id="path5509-0-1-0-3-3" d="M64.931,907.066L42.529,942.251" style="fill:none;stroke:white;stroke-width:2px;"/>
        <path id="path5509-0-1-0-06-9" d="M64.997,914.777L47.907,942.149" style="fill:none;stroke:white;stroke-width:2px;"/>
        <path id="path5509-0-1-0-2-1" d="M65,922.769L52.973,941.891" style="fill:none;stroke:white;stroke-width:2px;"/>
        <path id="path4150-3-6-8" d="M58.365,942.046L64.983,931.652" style="fill:none;stroke:white;stroke-width:2px;"/>
        <path id="path4150-3-7-4" d="M63.544,941.835L64.975,939.316" style="fill:none;stroke:white;stroke-width:2px;"/>
        <path id="path4150-3-61-0" d="M41.111,871.467L43.291,867.91" style="fill:none;stroke:white;stroke-width:2px;"/>
        <path id="path5509-0-1-0-20-4" d="M86.763,864.22L74.507,883.26" style="fill:none;stroke:white;stroke-width:2px;"/>
        <path id="path5517-5-5-4-8-7" d="M91.152,864.77L74.154,891.159" style="fill:none;stroke:white;stroke-width:2px;"/>
        <path id="path4150-3-0-0" d="M74.866,876.225L82.209,864.433" style="fill:none;stroke:white;stroke-width:2px;"/>
        <path id="path5509-0-1-0-3-3-1" d="M96.784,905.049L74.029,942.001" style="fill:none;stroke:white;stroke-width:2px;"/>
        <path id="path5509-0-1-0-06-9-4" d="M96.806,913.334L79.407,941.899" style="fill:none;stroke:white;stroke-width:2px;"/>
        <path id="path5509-0-1-0-2-1-4" d="M96.677,921.923L84.473,941.641" style="fill:none;stroke:white;stroke-width:2px;"/>
        <path id="path4150-3-6-8-3" d="M89.865,941.796L96.483,931.403" style="fill:none;stroke:white;stroke-width:2px;"/>
        <path id="path4150-3-7-4-4" d="M95.044,941.585L96.475,939.067" style="fill:none;stroke:white;stroke-width:2px;"/>
        <path id="path5509-0-1-0-1-5-3" d="M94.526,865.774L73.922,898.507" style="fill:none;stroke:white;stroke-width:2px;"/>
        <path id="path5509-0-1-0-0-0-7" d="M96.633,869.856L73.745,906.596" style="fill:none;stroke:white;stroke-width:2px;"/>
        <path id="path5509-0-1-0-8-7-2" d="M96.639,876.43L73.672,913.546" style="fill:none;stroke:white;stroke-width:2px;"/>
        <path id="path5509-0-1-0-6-8-2" d="M96.813,883.194L73.753,920.719" style="fill:none;stroke:white;stroke-width:2px;"/>
        <path id="path5509-0-1-0-02-7-3" d="M96.822,890.277L73.753,927.578" style="fill:none;stroke:white;stroke-width:2px;"/>
        <path id="path5509-0-1-0-07-2-2" d="M96.811,897.423L73.815,935.109" style="fill:none;stroke:white;stroke-width:2px;"/>
    </g>
</svg>
