<?xml version="1.0" encoding="UTF-8" standalone="no"?>
<!DOCTYPE svg PUBLIC "-//W3C//DTD SVG 1.1//EN" "http://www.w3.org/Graphics/SVG/1.1/DTD/svg11.dtd">
<svg width="100%" height="100%" viewBox="0 0 140 200" version="1.1" xmlns="http://www.w3.org/2000/svg" xmlns:xlink="http://www.w3.org/1999/xlink" xml:space="preserve" xmlns:serif="http://www.serif.com/" style="fill-rule:evenodd;clip-rule:evenodd;">
    <g id="Calque-1" serif:id="Calque 1" transform="matrix(1,0,0,1,0,-852.362)">
        <path id="path4669" d="M22.623,944.245L11.029,946.803C10.604,946.05 10.222,945.274 9.885,944.478C7.618,939.126 7.478,933.157 7.085,927.358C6.571,919.781 5.57,912.198 6.065,904.621C6.703,894.859 9.995,885.064 16.523,877.777C22.358,871.262 30.467,867.077 38.918,864.824C47.369,862.57 56.199,862.133 64.945,862.204C72.846,862.268 80.738,862.736 88.638,862.861C93.299,862.934 97.975,862.89 102.603,863.445C107.232,864 111.852,865.182 115.868,867.548C121.421,870.82 125.523,876.212 128.059,882.137C130.596,888.063 131.667,894.519 132.135,900.947C132.815,910.275 132.27,919.643 131.921,928.99C131.659,935.999 131.508,943.013 131.471,950.027C131.448,954.243 131.465,958.492 130.646,962.627C129.828,966.763 128.101,970.835 125.062,973.757C122.413,976.304 118.92,977.833 115.342,978.672C111.763,979.511 108.07,979.704 104.4,979.895C89.559,980.666 74.703,981.445 59.845,981.145C51.426,980.975 43.01,980.459 34.591,980.603C29.756,980.686 24.795,980.969 20.211,979.435C17.298,978.46 14.618,976.747 12.608,974.425C10.534,972.03 9.203,969.01 8.786,965.87C8.367,962.721 8.866,959.456 10.205,956.575L19.68,953.049C25.189,953.845 30.753,954.265 36.319,954.304C39.313,954.326 42.405,954.216 45.127,952.968C48.028,951.639 50.308,949.009 51.193,945.943C52.078,942.876 51.545,939.427 49.76,936.782C47.985,934.153 45.061,932.389 41.946,931.79C38.831,931.192 35.553,931.709 32.655,932.999C27.925,935.103 24.176,939.307 22.623,944.245Z" style="fill:none;stroke:white;stroke-width:2px;"/>
        <path id="path4673" d="M17.342,982.858C14.67,984.376 12.473,986.718 11.138,989.485C9.804,992.253 9.34,995.434 9.839,998.466C10.348,1001.55 11.836,1004.44 13.919,1006.76C16.003,1009.09 18.666,1010.87 21.55,1012.07C25.163,1013.58 29.087,1014.19 32.989,1014.5C40.196,1015.07 47.44,1014.65 54.669,1014.67C64.911,1014.71 75.364,1015.63 85.227,1012.87C88.065,1012.08 90.914,1010.92 92.947,1008.79C94.716,1006.93 95.734,1004.45 96.138,1001.92C96.542,999.383 96.366,996.79 95.99,994.252C95.722,992.444 95.35,990.64 94.676,988.941C94.002,987.242 93.012,985.645 91.642,984.434C89.97,982.957 87.809,982.123 85.617,981.703C83.425,981.283 81.18,981.248 78.948,981.193C75.914,981.117 72.882,980.999 69.848,980.898C61.034,980.607 52.215,980.461 43.397,980.503C37.333,980.532 31.27,980.65 25.21,980.857C22.471,980.806 19.723,981.505 17.342,982.858Z" style="fill:none;stroke:white;stroke-width:2px;"/>
        <path id="path4744-7" d="M98.686,980.16C100.838,980.418 102.931,981.152 104.772,982.294C106.584,983.417 108.158,984.945 109.247,986.778C110.411,988.738 110.998,991.001 111.206,993.271C111.415,995.541 111.258,997.829 111.017,1000.1C110.835,1001.81 110.602,1003.53 110.085,1005.18C109.569,1006.83 108.755,1008.41 107.536,1009.63C106.402,1010.77 104.954,1011.56 103.431,1012.07C101.909,1012.58 100.309,1012.83 98.71,1012.98C94.812,1013.34 90.863,1013.14 87.02,1012.39" style="fill:none;stroke:white;stroke-width:2px;"/>
        <path id="path4725" d="M115.46,978.631C117.837,978.499 120.241,978.89 122.454,979.767C123.823,980.31 125.132,981.047 126.19,982.073C127.247,983.098 128.042,984.428 128.275,985.883C128.44,986.911 128.321,987.978 127.979,988.962C127.638,989.946 127.078,990.849 126.385,991.627C125,993.182 123.114,994.218 121.159,994.938C118.129,996.054 114.843,996.47 111.63,996.146" style="fill:none;stroke:white;stroke-width:2px;"/>
        <path id="path4462-4-3-4-0-9-9-9-0" d="M101.381,863.391C102.711,863.816 103.869,864.753 104.562,865.964C105.358,867.354 105.526,869.003 105.683,870.597C106.227,876.123 106.842,881.651 106.909,887.203C106.945,890.197 106.819,893.216 106.126,896.129C105.433,899.043 104.144,901.862 102.086,904.038C99.038,907.263 94.57,908.806 90.163,909.321C85.756,909.836 81.3,909.439 76.863,909.392C72.133,909.341 67.367,909.686 62.698,908.93C60.363,908.552 58.06,907.894 55.956,906.814C53.852,905.734 51.949,904.22 50.567,902.301C48.941,900.043 48.087,897.304 47.693,894.549C47.299,891.794 47.34,888.999 47.352,886.216C47.375,880.856 47.288,875.477 47.939,870.156C48.063,869.147 48.214,868.136 48.506,867.162C48.798,866.188 49.236,865.246 49.887,864.465C50.592,863.619 51.54,862.978 52.587,862.639" style="fill:none;stroke:white;stroke-width:2px;"/>
        <path id="path4660-9-8-8" d="M106.567,894.293C102.979,894.245 99.388,894.438 95.825,894.868C93.335,895.169 90.761,895.625 88.716,897.077C87.335,898.058 86.277,899.446 85.523,900.961C84.231,903.558 83.805,906.576 84.328,909.429" style="fill:none;stroke:white;stroke-width:2px;"/>
        <path id="path4660-9-0-4-2" d="M47.082,892.379C50.92,892.234 54.771,892.449 58.569,893.02C59.778,893.202 60.987,893.421 62.147,893.806C63.308,894.191 64.424,894.747 65.348,895.548C66.745,896.759 67.633,898.467 68.185,900.232C69.075,903.078 69.157,906.173 68.419,909.063" style="fill:none;stroke:white;stroke-width:2px;"/>
        <path id="path4660-9-6-2-0" d="M106.447,881.536C102.849,881.489 99.253,881.267 95.677,880.871C94.634,880.756 93.589,880.625 92.576,880.35C91.563,880.075 90.579,879.651 89.757,878.999C88.445,877.956 87.639,876.41 87.012,874.856C85.488,871.075 84.812,866.956 85.048,862.886" style="fill:none;stroke:white;stroke-width:2px;"/>
        <path id="path4660-9-6-4-5-1" d="M47.409,880.031C51.32,880.017 55.232,879.947 59.141,879.82C60.298,879.782 61.463,879.739 62.593,879.485C63.723,879.232 64.828,878.754 65.661,877.95C66.769,876.88 67.293,875.351 67.689,873.862C68.681,870.13 69.109,866.248 68.954,862.389" style="fill:none;stroke:white;stroke-width:2px;"/>
        <path id="path4744-7-8" d="M81.676,946.953C85.746,946.871 89.824,947.169 93.839,947.843C95.697,948.154 97.551,948.549 99.306,949.234C101.061,949.919 102.722,950.906 104.011,952.279C105.038,953.371 105.811,954.689 106.343,956.09C107.825,959.993 107.411,964.394 106.175,968.382C105.581,970.295 104.8,972.163 103.694,973.833C102.588,975.504 101.146,976.975 99.401,977.959C97.588,978.982 95.52,979.449 93.471,979.815C90.067,980.422 86.619,980.786 83.163,980.903" style="fill:none;stroke:white;stroke-width:2px;"/>
        <path id="path4813" d="M49.208,900.515C44.007,903.833 39.849,908.762 37.456,914.449C35.49,919.12 34.709,924.284 35.205,929.327" style="fill:none;stroke:white;stroke-width:2px;"/>
        <path id="path4817" d="M42.102,932.058C37.947,932.492 34.09,935.146 32.199,938.872C31.441,940.367 30.985,942.02 30.912,943.695C30.84,945.37 31.154,947.065 31.861,948.586C33.226,951.522 36.104,953.704 39.3,954.224" style="fill:none;stroke:white;stroke-width:2px;"/>
        <path id="path4725-9" d="M113.782,996.218C117.499,995.831 121.329,996.607 124.602,998.411C125.591,998.956 126.537,999.599 127.316,1000.42C128.094,1001.24 128.701,1002.24 128.935,1003.35C129.182,1004.51 129.003,1005.74 128.515,1006.82C128.026,1007.9 127.238,1008.84 126.304,1009.57C124.437,1011.04 122.059,1011.69 119.715,1012.08C114.888,1012.86 109.899,1012.64 105.161,1011.43" style="fill:none;stroke:white;stroke-width:2px;"/>
        <path id="path4725-90" d="M111.299,992.38C112.951,992.33 114.6,992.17 116.23,991.901C117.213,991.738 118.204,991.531 119.086,991.068C119.527,990.837 119.937,990.542 120.276,990.177C120.615,989.812 120.882,989.376 121.024,988.899C121.246,988.155 121.155,987.334 120.835,986.627C120.515,985.919 119.976,985.322 119.342,984.874C118.075,983.976 116.487,983.675 114.944,983.498C112.13,983.175 109.278,983.19 106.468,983.54" style="fill:none;stroke:white;stroke-width:2px;"/>
        <path id="path4725-90-4" d="M111.245,1000.82C113.781,1000.69 116.331,1000.85 118.83,1001.3C119.62,1001.44 120.419,1001.61 121.123,1002C121.474,1002.19 121.799,1002.44 122.062,1002.74C122.325,1003.05 122.525,1003.41 122.617,1003.8C122.758,1004.39 122.642,1005.03 122.349,1005.57C122.055,1006.11 121.594,1006.55 121.068,1006.86C120.016,1007.48 118.75,1007.62 117.528,1007.68C114.78,1007.84 112.017,1007.72 109.292,1007.34" style="fill:none;stroke:white;stroke-width:2px;"/>
        <path id="path4051-8-0-7-8" d="M29.798,994.936C29.269,995.955 29.238,997.198 29.622,998.28C29.891,999.038 30.361,999.731 31.001,1000.22C31.64,1000.71 32.452,1000.98 33.254,1000.92C34.105,1000.86 34.911,1000.42 35.483,999.792C36.056,999.159 36.401,998.338 36.518,997.493C36.621,996.75 36.551,995.979 36.281,995.279C36.01,994.579 35.535,993.954 34.911,993.538C34.083,992.984 33.007,992.823 32.047,993.093C31.087,993.362 30.257,994.051 29.798,994.936Z" style="fill:none;stroke:white;stroke-width:2px;"/>
        <path id="path4051-8-0-7-8-4" d="M51.146,994.653C50.617,995.672 50.586,996.915 50.97,997.997C51.239,998.755 51.709,999.448 52.349,999.935C52.989,1000.42 53.801,1000.69 54.603,1000.64C55.454,1000.57 56.26,1000.14 56.832,999.509C57.404,998.876 57.749,998.055 57.866,997.21C57.969,996.467 57.899,995.696 57.629,994.996C57.359,994.296 56.884,993.671 56.26,993.255C55.431,992.701 54.355,992.54 53.395,992.81C52.436,993.079 51.606,993.768 51.146,994.653Z" style="fill:none;stroke:white;stroke-width:2px;"/>
        <path id="path4051-8-0-7-8-1" d="M72.236,994.936C71.707,995.955 71.676,997.198 72.06,998.28C72.329,999.038 72.799,999.731 73.439,1000.22C74.079,1000.71 74.891,1000.98 75.693,1000.92C76.544,1000.86 77.35,1000.43 77.922,999.792C78.494,999.159 78.839,998.338 78.956,997.493C79.059,996.75 78.989,995.979 78.719,995.279C78.449,994.579 77.973,993.954 77.35,993.538C76.521,992.984 75.445,992.824 74.485,993.093C73.526,993.362 72.696,994.051 72.236,994.936Z" style="fill:none;stroke:white;stroke-width:2px;"/>
        <path id="path4710-04-7" d="M15.002,1008.29C12.168,1012.94 10.719,1018.43 10.886,1023.87C10.979,1026.91 11.573,1029.95 12.864,1032.7C14.155,1035.45 16.166,1037.89 18.754,1039.48C21.104,1040.92 23.848,1041.62 26.592,1041.89C29.336,1042.16 32.102,1042.02 34.856,1041.88C37.624,1041.75 40.426,1041.61 43.08,1040.82C45.733,1040.02 48.268,1038.46 49.677,1036.08C50.402,1034.85 50.801,1033.46 51.141,1032.08C51.883,1029.06 52.384,1025.97 52.605,1022.87C52.807,1020.02 52.773,1017.15 52.501,1014.3" style="fill:none;stroke:white;stroke-width:2px;"/>
        <path id="path4710-0-7-3" d="M53.238,1014.98C52.953,1018.66 53.029,1022.37 53.466,1026.03C53.75,1028.41 54.195,1030.81 55.182,1033C56.34,1035.56 58.255,1037.8 60.673,1039.24C64.195,1041.34 68.473,1041.65 72.572,1041.76C75.309,1041.83 78.07,1041.83 80.757,1041.3C83.444,1040.78 86.078,1039.69 88.082,1037.82C90.237,1035.82 91.536,1033.03 92.213,1030.16C92.917,1027.18 92.997,1024.09 92.891,1021.03C92.794,1018.23 92.545,1015.43 92.144,1012.65" style="fill:none;stroke:white;stroke-width:2px;"/>
        <path id="path4710-9-7-0" d="M120.1,1012.01C122.793,1012.18 125.425,1013.2 127.529,1014.89C128.315,1015.52 129.03,1016.24 129.639,1017.05C130.92,1018.74 131.717,1020.76 132.1,1022.85C132.483,1024.94 132.463,1027.08 132.216,1029.19C131.997,1031.05 131.597,1032.91 130.868,1034.64C130.139,1036.37 129.07,1037.97 127.642,1039.19C125.951,1040.63 123.82,1041.48 121.645,1041.93C119.47,1042.38 117.236,1042.45 115.016,1042.5C110.387,1042.58 105.6,1042.51 101.373,1040.62C98.627,1039.39 96.175,1037.36 94.797,1034.69C93.249,1031.69 93.156,1028.17 93.251,1024.8C93.359,1020.94 93.668,1017.1 94.177,1013.28" style="fill:none;stroke:white;stroke-width:2px;"/>
        <path id="path4710-0-7-3-6" d="M62.367,1015.11C62.207,1017.4 62.246,1019.72 62.485,1022.01C62.632,1023.43 62.859,1024.85 63.374,1026.17C63.95,1027.65 64.905,1029.02 66.221,1029.91C67.999,1031.11 70.244,1031.36 72.39,1031.41C73.827,1031.44 75.278,1031.4 76.677,1031.06C78.075,1030.73 79.427,1030.09 80.431,1029.06C81.625,1027.84 82.245,1026.16 82.572,1024.48C82.922,1022.69 82.973,1020.85 82.924,1019.02C82.878,1017.35 82.749,1015.67 82.536,1014.01" style="fill:none;stroke:white;stroke-width:2px;"/>
        <path id="path4973" d="M43.894,1015.03C44.33,1018.16 44.1,1021.38 43.224,1024.41C42.782,1025.94 42.15,1027.47 41.034,1028.61C39.956,1029.71 38.504,1030.37 37.027,1030.8C34.187,1031.64 31.034,1031.71 28.34,1030.48C25.985,1029.41 24.12,1027.41 22.962,1025.09C22.469,1024.11 22.089,1023.02 22.177,1021.92C22.22,1021.38 22.384,1020.83 22.686,1020.37C22.987,1019.91 23.43,1019.53 23.949,1019.35C24.561,1019.13 25.249,1019.19 25.858,1019.41C26.467,1019.64 27.006,1020.02 27.491,1020.46C28.461,1021.32 29.263,1022.4 30.398,1023.03C31.581,1023.69 33.068,1023.78 34.321,1023.26C35.573,1022.74 36.564,1021.63 36.935,1020.33C37.306,1019.02 37.049,1017.56 36.258,1016.46C35.466,1015.36 34.157,1014.65 32.803,1014.58" style="fill:none;stroke:white;stroke-width:2px;"/>
        <path id="path4973-8" d="M102.336,1012.26C101.286,1016.37 101.36,1020.77 102.549,1024.84C102.995,1026.37 103.623,1027.9 104.739,1029.04C105.816,1030.14 107.271,1030.79 108.746,1031.23C111.587,1032.08 114.759,1032.19 117.433,1030.91C119.035,1030.14 120.409,1028.89 121.255,1027.32C121.841,1026.24 122.174,1024.99 121.956,1023.77C121.847,1023.17 121.6,1022.59 121.216,1022.11C120.831,1021.63 120.308,1021.26 119.719,1021.08C119.205,1020.93 118.653,1020.92 118.125,1021.01C117.596,1021.11 117.087,1021.29 116.596,1021.51C115.614,1021.94 114.679,1022.51 113.636,1022.76C112.293,1023.09 110.821,1022.86 109.647,1022.12C108.473,1021.39 107.613,1020.18 107.314,1018.83C107.016,1017.47 107.284,1016.01 108.041,1014.85C108.798,1013.69 110.033,1012.86 111.39,1012.59" style="fill:none;stroke:white;stroke-width:2px;"/>
    </g>
</svg>
