<?xml version="1.0" encoding="UTF-8" standalone="no"?>
<!DOCTYPE svg PUBLIC "-//W3C//DTD SVG 1.1//EN" "http://www.w3.org/Graphics/SVG/1.1/DTD/svg11.dtd">
<svg width="100%" height="100%" viewBox="0 0 140 200" version="1.1" xmlns="http://www.w3.org/2000/svg" xmlns:xlink="http://www.w3.org/1999/xlink" xml:space="preserve" xmlns:serif="http://www.serif.com/" style="fill-rule:evenodd;clip-rule:evenodd;">
    <g id="Calque-1" serif:id="Calque 1" transform="matrix(1,0,0,1,0,-852.362)">
        <path id="path3372" d="M102.492,965.703C104.721,961.784 108.381,958.701 112.622,957.17C117.062,955.568 121.902,955.663 126.598,955.178C127.931,955.04 129.266,954.854 130.605,954.894C131.945,954.935 133.309,955.216 134.436,955.943C135.916,956.898 136.846,958.538 137.298,960.24C137.751,961.943 137.777,963.725 137.797,965.486C137.938,977.855 137.924,990.278 136.158,1002.52C135.182,1009.28 133.656,1016.02 130.826,1022.24C127.997,1028.46 123.797,1034.17 118.187,1038.07C112.229,1042.21 105.022,1044.13 97.89,1045.47C81.734,1048.51 65.19,1048.97 48.761,1048.39C42.067,1048.15 35.335,1047.74 28.828,1046.15C22.321,1044.57 15.999,1041.74 11.094,1037.18C8.741,1034.99 6.701,1032.36 5.77,1029.28C5.382,1028 5.192,1026.64 5.376,1025.31C5.559,1023.98 6.136,1022.68 7.111,1021.76C7.949,1020.97 9.04,1020.49 10.159,1020.22C11.278,1019.95 12.434,1019.88 13.584,1019.81C14.734,1019.75 15.889,1019.69 17.015,1019.45C18.14,1019.2 19.245,1018.76 20.12,1018.02C20.619,1017.59 21.043,1017.06 21.607,1016.73C22.197,1016.37 22.903,1016.25 23.59,1016.27C24.278,1016.28 24.956,1016.42 25.631,1016.55C27.996,1017.01 30.387,1017.41 32.797,1017.42C35.206,1017.43 37.649,1017.04 39.82,1015.99C40.796,1015.52 41.715,1014.91 42.488,1014.15C43.261,1013.39 43.887,1012.47 44.248,1011.45C44.609,1010.43 44.697,1009.3 44.435,1008.25C44.174,1007.2 43.553,1006.23 42.669,1005.6C41.948,1005.09 41.082,1004.82 40.209,1004.68C39.337,1004.54 38.451,1004.52 37.568,1004.47C36.686,1004.43 35.797,1004.35 34.952,1004.1C34.106,1003.84 33.298,1003.39 32.736,1002.71C32.097,1001.93 31.826,1000.92 31.676,999.926C31.525,998.932 31.477,997.917 31.204,996.949C30.837,995.648 30.071,994.476 29.096,993.541C28.12,992.605 26.941,991.897 25.694,991.376C23.199,990.335 20.469,990.035 17.793,989.65C13.325,989.006 8.895,988.093 4.536,986.918C4.695,981.086 4.775,975.253 4.778,969.419C4.78,962.299 4.667,955.18 4.525,948.062C4.327,938.054 4.075,928.046 3.895,918.037C3.677,905.866 3.567,893.673 4.547,881.54C4.825,878.106 5.195,874.652 6.226,871.365C7.257,868.079 8.998,864.939 11.637,862.725C13.444,861.21 15.678,860.155 18.028,859.959C20.378,859.763 22.835,860.478 24.567,862.079C26.024,863.426 26.906,865.326 27.216,867.286C27.527,869.246 27.294,871.264 26.767,873.176C25.711,877.002 23.521,880.402 21.981,884.06C19.223,890.609 18.599,897.888 19.009,904.983C19.419,912.077 20.823,919.071 21.981,926.082C22.592,929.78 23.138,933.505 24.251,937.084C25.364,940.663 27.082,944.126 29.739,946.77C31.413,948.436 33.463,949.758 35.736,950.398C38.01,951.037 40.511,950.963 42.669,950.002C44.286,949.282 45.682,948.074 46.626,946.577C48.683,947.794 50.549,949.331 52.137,951.117C53.022,952.113 53.824,953.187 54.797,954.099C55.44,954.701 56.153,955.227 56.918,955.663C55.128,959.41 53.812,963.383 53.013,967.458C52.715,968.974 52.488,970.514 52.533,972.058C52.578,973.603 52.905,975.16 53.659,976.509C54.354,977.752 55.406,978.792 56.655,979.474C57.905,980.156 59.35,980.477 60.771,980.388" style="fill:none;stroke:white;stroke-width:2px;"/>
        <path id="path3376" d="M19.753,989.746L18.87,1007.96L4.525,1004.78L4.756,987.598" style="fill:none;stroke:white;stroke-width:2px;"/>
        <path id="path3380" d="M6.213,1022.81L4.515,1004.59L20.107,1008.15L21.066,1017.38" style="fill:none;stroke:white;stroke-width:2px;"/>
        <path id="path3384" d="M79.512,995.201C77.397,992.998 74.376,991.691 71.322,991.658C69.487,991.638 67.64,992.068 66.037,992.959C64.433,993.85 63.081,995.209 62.26,996.849C61.321,998.726 61.101,1000.92 61.473,1002.99C61.844,1005.05 62.786,1006.99 64.036,1008.68C66.387,1011.85 69.882,1014.16 73.733,1015.03C76.489,1015.65 79.443,1015.53 82.059,1014.46C83.654,1013.81 85.111,1012.82 86.272,1011.54C87.434,1010.27 88.295,1008.72 88.734,1007.06C89.172,1005.39 89.183,1003.61 88.734,1001.95C88.285,1000.28 87.374,998.742 86.111,997.571C84.351,995.937 81.91,995.061 79.512,995.201Z" style="fill:none;stroke:white;stroke-width:2px;"/>
        <path id="path3388" d="M46.548,946.77C48.827,942.23 53.224,938.81 58.185,937.719C59.511,937.427 60.884,937.294 62.23,937.47C63.577,937.646 64.899,938.144 65.943,939.012C67.281,940.126 68.069,941.745 68.93,943.259C69.361,944.015 69.822,944.76 70.393,945.418C70.964,946.075 71.652,946.645 72.452,946.989C73.18,947.302 73.984,947.42 74.776,947.387C75.568,947.354 76.349,947.174 77.098,946.912C78.738,946.338 80.236,945.363 81.426,944.096" style="fill:none;stroke:white;stroke-width:2px;"/>
        <path id="path3392" d="M57.12,955.758C59.896,955.595 62.63,954.769 65.032,953.369C67.743,951.788 70.022,949.474 71.562,946.74" style="fill:none;stroke:white;stroke-width:2px;"/>
        <path id="path3396" d="M115.12,936.053C115.826,936.432 116.341,937.1 116.68,937.825C117.019,938.55 117.2,939.337 117.38,940.117C117.814,941.991 118.257,943.864 118.572,945.762C118.835,947.347 119.012,948.962 119.563,950.472C119.839,951.227 120.209,951.952 120.706,952.583C121.203,953.214 121.832,953.75 122.56,954.09C123.446,954.504 124.448,954.615 125.426,954.587C126.404,954.56 127.373,954.4 128.346,954.298C129.057,954.223 129.774,954.179 130.474,954.038C131.175,953.896 131.869,953.651 132.435,953.214C133.11,952.694 133.566,951.93 133.854,951.128C134.143,950.325 134.277,949.477 134.411,948.635C134.882,945.695 135.381,942.759 135.721,939.801C136.986,928.783 136.019,917.639 136.422,906.556C136.692,899.115 137.579,891.64 136.675,884.249C136.224,880.554 135.317,876.891 133.719,873.529C132.121,870.166 129.813,867.106 126.834,864.873C122.244,861.432 116.111,860.136 110.521,861.429C104.932,862.722 99.99,866.58 97.38,871.689C95.774,874.833 95.036,878.365 94.812,881.889C94.588,885.413 94.86,888.948 95.178,892.464C96.181,903.561 97.641,914.758 96.131,925.797C95.785,928.322 95.284,930.85 95.402,933.396C95.46,934.669 95.677,935.942 96.132,937.132C96.588,938.323 97.288,939.43 98.235,940.283C99.326,941.267 100.738,941.894 102.202,942.024C103.666,942.154 105.172,941.784 106.398,940.973C107.89,939.987 108.902,938.432 110.232,937.236C110.896,936.638 111.656,936.124 112.513,935.867C113.369,935.609 114.332,935.631 115.12,936.053Z" style="fill:none;stroke:white;stroke-width:2px;"/>
        <path id="path3400" d="M20.863,918.258C27.284,908.921 36.576,901.589 47.15,897.516C58.595,893.107 71.599,892.578 83.179,896.617C87.706,898.196 91.997,900.449 95.868,903.279" style="fill:none;stroke:white;stroke-width:2px;"/>
        <path id="path3404" d="M22.167,884.378C29.325,874.628 40.422,867.859 52.366,865.958C62.307,864.375 72.537,866.064 82.105,869.19C86.773,870.715 91.329,872.581 95.725,874.768" style="fill:none;stroke:white;stroke-width:2px;"/>
    </g>
</svg>
