<?xml version="1.0" encoding="UTF-8" standalone="no"?>
<!DOCTYPE svg PUBLIC "-//W3C//DTD SVG 1.1//EN" "http://www.w3.org/Graphics/SVG/1.1/DTD/svg11.dtd">
<svg width="100%" height="100%" viewBox="0 0 140 200" version="1.1" xmlns="http://www.w3.org/2000/svg" xmlns:xlink="http://www.w3.org/1999/xlink" xml:space="preserve" xmlns:serif="http://www.serif.com/" style="fill-rule:evenodd;clip-rule:evenodd;">
    <g id="Calque-1" serif:id="Calque 1" transform="matrix(1,0,0,1,0,-852.362)">
        <path id="path4462-4-4-5-5-1" d="M22.581,910.564C29.8,905.768 38.468,903.528 47.101,902.754C55.735,901.981 64.424,902.595 73.078,903.069C87.548,903.863 102.289,904.31 115.983,909.049C119.472,910.257 122.927,911.773 125.714,914.196C128.591,916.697 130.623,920.064 131.969,923.631C133.315,927.197 134.009,930.976 134.527,934.753C136.053,945.887 136.099,957.166 136.065,968.405C136.033,978.615 135.935,988.867 134.406,998.962C133.858,1002.58 133.122,1006.18 131.802,1009.59C130.483,1013 128.555,1016.22 125.873,1018.71C123.208,1021.18 119.863,1022.85 116.353,1023.79C112.165,1024.91 107.779,1025.01 103.444,1025.07C93.781,1025.21 84.114,1025.2 74.457,1025.57C60.759,1026.08 46.796,1027.31 33.538,1023.83C24.911,1021.56 16.576,1017.11 11.257,1009.95C8.26,1005.91 6.321,1001.16 5.14,996.28C2.765,986.454 3.387,976.193 3.538,966.084C3.644,959.011 3.512,951.919 4.221,944.88C4.931,937.841 6.518,930.796 9.859,924.561C12.867,918.947 17.276,914.089 22.581,910.564Z" style="fill:none;stroke:white;stroke-width:2px;"/>
        <path id="path5245-8-7" d="M26.379,908.226C20.281,907.784 14.502,904.154 11.456,898.852C9.38,895.239 8.556,890.965 8.867,886.809C9.177,882.652 10.589,878.615 12.699,875.021C14.498,871.955 16.806,869.19 19.482,866.85C26.191,860.985 34.987,857.966 43.803,856.667C52.618,855.369 61.578,855.659 70.489,855.644C80.222,855.628 90.006,855.248 99.643,856.611C109.28,857.975 118.911,861.229 126.241,867.632C129.412,870.403 132.125,873.763 133.787,877.633C135.493,881.609 136.044,886.072 135.366,890.346C134.689,894.62 132.787,898.691 129.953,901.961C126.633,905.793 122.037,908.5 117.076,909.547" style="fill:none;stroke:white;stroke-width:2px;"/>
        <path id="path5245-4-38-6" d="M32.567,905.646C31.141,904.023 29.939,902.205 29.004,900.257C27.792,897.732 27.031,894.98 26.875,892.183C26.719,889.387 27.176,886.546 28.294,883.978C30.24,879.507 34.083,876.075 38.355,873.725C43.392,870.954 49.08,869.524 54.794,868.889C60.508,868.255 66.277,868.39 72.022,868.585C81.813,868.917 91.783,869.457 100.955,872.9C103.831,873.98 106.623,875.351 109.042,877.246C111.46,879.14 113.498,881.584 114.626,884.442C115.588,886.881 115.865,889.563 115.601,892.172C115.337,894.78 114.543,897.318 113.439,899.696C112.221,902.321 110.62,904.769 108.703,906.937" style="fill:none;stroke:white;stroke-width:2px;"/>
        <path id="path5245-4-3-1-2" d="M29.885,906.587C27.289,904.671 25.195,902.08 23.866,899.14C21.288,893.44 21.743,886.55 24.724,881.05C27.033,876.79 30.725,873.378 34.909,870.934C40.514,867.658 46.967,866.058 53.424,865.383C59.881,864.708 66.393,864.92 72.884,865.045C80.105,865.184 87.374,865.217 94.473,866.551C101.571,867.884 108.58,870.618 113.886,875.519C116.502,877.935 118.684,880.889 119.847,884.256C120.882,887.252 121.082,890.512 120.575,893.641C120.067,896.771 118.864,899.769 117.2,902.468C116.007,904.402 114.576,906.19 112.95,907.778" style="fill:none;stroke:white;stroke-width:2px;"/>
        <path id="path3929" d="M40.72,903.474C39.686,898.059 39.152,892.547 39.129,887.034C39.108,882.302 39.463,877.568 40.189,872.892" style="fill:none;stroke:white;stroke-width:2px;"/>
        <path id="path3929-9" d="M53.345,902.265C52.473,896.063 52.354,889.756 52.992,883.526C53.507,878.494 54.515,873.513 55.997,868.677" style="fill:none;stroke:white;stroke-width:2px;"/>
        <path id="path3929-8" d="M66.096,902.517C65.407,897.097 65.315,891.6 65.825,886.16C66.373,880.299 67.619,874.504 69.528,868.936" style="fill:none;stroke:white;stroke-width:2px;"/>
        <path id="path3929-2" d="M79.293,903.235C78.38,897.174 78.41,890.972 79.382,884.921C80.245,879.546 81.85,874.292 84.137,869.352" style="fill:none;stroke:white;stroke-width:2px;"/>
        <path id="path3929-7" d="M104.408,905.596C104.154,900.569 104.724,895.502 106.087,890.658C107.184,886.759 108.793,883.004 110.86,879.521" style="fill:none;stroke:white;stroke-width:2px;"/>
        <path id="path3929-1" d="M92.399,903.948C91.909,898.372 92.117,892.735 93.018,887.211C93.888,881.869 95.405,876.634 97.526,871.654" style="fill:none;stroke:white;stroke-width:2px;"/>
        <path id="path3983" d="M3.192,976.254C8.629,970.526 17.044,967.793 24.81,969.235C30.421,970.277 35.589,973.388 39.305,977.72C42.255,981.159 44.304,985.326 45.486,989.7C46.668,994.074 47,998.653 46.73,1003.18C46.276,1010.8 44.108,1018.31 40.433,1025" style="fill:none;stroke:white;stroke-width:2px;"/>
        <path id="path3983-4" d="M136.188,970.651C129.864,966.956 122.045,965.913 114.974,967.823C109.131,969.401 103.846,972.948 100.125,977.722C97.074,981.638 95.077,986.326 94.082,991.189C93.088,996.053 93.077,1001.09 93.761,1006.01C94.696,1012.72 96.929,1019.26 100.302,1025.14" style="fill:none;stroke:white;stroke-width:2px;"/>
        <path id="path4005" d="M50.751,935.787C52.632,939.452 55.77,942.457 59.514,944.178C62.666,945.627 66.203,946.167 69.664,945.927C73.126,945.688 76.513,944.685 79.641,943.184C81.735,942.179 83.733,940.944 85.452,939.382C87.172,937.82 88.61,935.921 89.489,933.771C90.278,931.839 90.605,929.716 90.399,927.64C90.194,925.563 89.454,923.538 88.245,921.837C87.082,920.202 85.505,918.885 83.759,917.895C82.014,916.906 80.101,916.236 78.151,915.766C73.397,914.622 68.376,914.664 63.615,915.776C59.749,916.68 55.935,918.363 53.281,921.316C51.556,923.235 50.384,925.646 49.94,928.188C49.495,930.73 49.779,933.396 50.751,935.787L50.751,935.787Z" style="fill:none;stroke:white;stroke-width:2px;"/>
        <path id="path4005-8" d="M46.855,937.302C48.726,942.039 52.702,945.779 57.315,947.935C64.526,951.306 73.176,950.923 80.496,947.796C86.133,945.387 91.224,941.24 93.728,935.644C94.94,932.934 95.519,929.929 95.295,926.969C95.07,924.009 94.03,921.1 92.243,918.73C90.69,916.672 88.607,915.048 86.329,913.842C84.05,912.636 81.576,911.834 79.065,911.249C73.181,909.879 66.923,909.698 61.155,911.498C56.787,912.861 52.733,915.391 49.876,918.965C47.851,921.5 46.449,924.539 45.9,927.737C45.351,930.935 45.664,934.285 46.855,937.302Z" style="fill:none;stroke:white;stroke-width:2px;"/>
        <path id="path3983-8" d="M3.936,970.775C9.635,965.761 17.574,963.395 25.088,964.472C29.82,965.151 34.338,967.135 38.138,970.035C41.937,972.936 45.022,976.739 47.22,980.984C50.943,988.174 52.086,996.497 51.595,1004.58C51.156,1011.82 49.445,1018.98 46.565,1025.64" style="fill:none;stroke:white;stroke-width:2px;"/>
        <path id="path3983-4-6" d="M135.752,966.161C128.821,962.34 120.315,961.489 112.764,963.86C105.671,966.089 99.571,971.034 95.405,977.192C90.717,984.122 88.408,992.534 88.318,1000.9C88.23,1009.2 90.286,1017.51 94.234,1024.81" style="fill:none;stroke:white;stroke-width:2px;"/>
        <path id="path4063" d="M20.946,1018.38C17.926,1019.57 15.214,1021.54 13.142,1024.04C11.881,1025.56 10.85,1027.28 10.209,1029.15C9.569,1031.02 9.325,1033.04 9.607,1035C10.084,1038.31 12.046,1041.27 14.557,1043.48C18.14,1046.63 22.792,1048.37 27.498,1049.17C32.203,1049.98 37.007,1049.91 41.78,1049.85C50.266,1049.73 58.751,1049.64 67.236,1049.49C69.752,1049.45 72.377,1049.37 74.59,1048.17C76.308,1047.24 77.658,1045.66 78.327,1043.83C79.093,1041.72 78.97,1039.42 79.05,1037.18C79.098,1035.84 79.223,1034.49 79.198,1033.14C79.172,1031.8 78.989,1030.43 78.448,1029.2C77.717,1027.53 76.326,1026.16 74.646,1025.45" style="fill:none;stroke:white;stroke-width:2px;"/>
        <path id="path4063-7" d="M25.841,1021.09C24.162,1022.28 23.033,1024.22 22.824,1026.27C22.588,1028.58 23.514,1030.94 25.108,1032.63C26.671,1034.29 28.808,1035.33 31.015,1035.9C33.222,1036.47 35.516,1036.61 37.794,1036.71C41.225,1036.86 44.71,1036.92 48.04,1036.08C49.661,1035.67 51.271,1035.02 52.48,1033.87C53.772,1032.63 54.516,1030.87 54.611,1029.09C54.672,1027.96 54.484,1026.82 54.064,1025.78" style="fill:none;stroke:white;stroke-width:2px;"/>
        <path id="path4063-7-3" d="M23.458,1019.98C20.93,1021.65 19.215,1024.5 18.915,1027.52C18.582,1030.87 19.978,1034.29 22.378,1036.64C24.245,1038.48 26.654,1039.69 29.162,1040.43C31.671,1041.17 34.289,1041.47 36.898,1041.67C42.091,1042.05 47.51,1041.99 52.238,1039.81C53.918,1039.03 55.496,1037.99 56.701,1036.58C58.232,1034.79 59.103,1032.45 59.121,1030.1C59.133,1028.63 58.82,1027.16 58.212,1025.83" style="fill:none;stroke:white;stroke-width:2px;"/>
        <path id="path5175-3-6" d="M85.971,1025.39C83.666,1026.03 81.673,1027.72 80.661,1029.89C80.059,1031.18 79.799,1032.6 79.597,1034.01C79.193,1036.83 79.007,1039.76 79.818,1042.5C80.278,1044.06 81.072,1045.54 82.245,1046.66C83.473,1047.83 85.067,1048.57 86.712,1048.99C88.357,1049.41 90.062,1049.54 91.758,1049.63C96.425,1049.87 101.101,1049.83 105.772,1049.97C109.03,1050.08 112.297,1050.28 115.543,1049.99C118.79,1049.7 122.052,1048.9 124.799,1047.14C127.439,1045.46 129.52,1042.91 130.65,1039.99C129.58,1040.36 128.5,1040.69 127.411,1040.99C126.432,1041.25 125.441,1041.5 124.43,1041.59C123.419,1041.68 122.382,1041.61 121.425,1041.27C120.519,1040.94 119.697,1040.37 119.103,1039.62C118.508,1038.86 118.146,1037.92 118.112,1036.96C118.075,1035.88 118.452,1034.8 119.104,1033.94C119.755,1033.08 120.67,1032.43 121.676,1032.04C123.556,1031.31 125.685,1031.47 127.618,1032.05C128.762,1032.39 129.865,1032.88 130.891,1033.49C130.409,1031.6 129.515,1029.82 128.291,1028.3C127.633,1027.49 126.884,1026.75 126.116,1026.04C125.497,1025.47 124.863,1024.91 124.183,1024.42C122.992,1023.55 121.662,1022.87 120.26,1022.41" style="fill:none;stroke:white;stroke-width:2px;"/>
        <path id="path4121" d="M126.81,1026.84C124.81,1026.43 122.749,1026.33 120.718,1026.53C117.505,1026.86 114.296,1028.01 111.956,1030.23C110.402,1031.71 109.263,1033.67 108.955,1035.79C108.695,1037.59 109.04,1039.46 109.839,1041.1C110.811,1043.08 112.455,1044.73 114.437,1045.71C116.419,1046.69 118.682,1046.99 120.89,1046.89C122.87,1046.8 124.835,1046.4 126.69,1045.7" style="fill:none;stroke:white;stroke-width:2px;"/>
    </g>
</svg>
