<?xml version="1.0" encoding="UTF-8" standalone="no"?>
<!DOCTYPE svg PUBLIC "-//W3C//DTD SVG 1.1//EN" "http://www.w3.org/Graphics/SVG/1.1/DTD/svg11.dtd">
<svg width="100%" height="100%" viewBox="0 0 140 200" version="1.1" xmlns="http://www.w3.org/2000/svg" xmlns:xlink="http://www.w3.org/1999/xlink" xml:space="preserve" xmlns:serif="http://www.serif.com/" style="fill-rule:evenodd;clip-rule:evenodd;">
    <g id="Calque-1" serif:id="Calque 1" transform="matrix(1,0,0,1,0,-852.362)">
        <path id="path4997" d="M104.397,867.065C102.269,866.689 100.142,866.306 98.017,865.915C84.097,863.355 69.924,860.475 55.899,862.37C44.96,863.848 34.32,868.352 26.212,875.841C17.466,883.918 12.022,895.053 8.891,906.539C4.515,922.59 4.34,939.5 5.511,956.095C6.741,973.526 9.424,990.854 13.523,1007.84C19.108,1007.28 24.64,1006.18 30.014,1004.56C34.242,1003.28 38.372,1001.68 42.359,999.784C41.233,996.888 39.984,994.04 38.615,991.25C37.021,988 35.222,984.667 35.198,981.047C35.182,978.539 36.049,976.063 37.469,973.997C38.89,971.931 40.844,970.262 43.014,969.005C47.353,966.491 52.429,965.627 57.399,964.956C61.71,964.375 66.189,963.919 70.335,965.237C72.408,965.897 74.361,967.009 75.843,968.601C77.325,970.192 78.312,972.282 78.403,974.455C78.461,975.853 78.153,977.256 77.586,978.536C77.019,979.816 76.198,980.975 75.238,981.992C73.316,984.028 70.868,985.482 68.401,986.804C64.352,988.973 60.088,990.906 56.711,994.02C55.023,995.577 53.576,997.428 52.67,999.538C51.764,1001.65 51.419,1004.03 51.898,1006.28C52.42,1008.72 53.9,1010.91 55.825,1012.5C57.751,1014.09 60.101,1015.12 62.53,1015.71C67.387,1016.9 72.469,1016.37 77.468,1016.27C86.835,1016.09 96.22,1017.43 105.555,1016.63C110.424,1016.21 115.363,1015.16 119.485,1012.53C125.022,1009 128.552,1002.93 130.302,996.608C132.052,990.282 132.208,983.638 132.291,977.074C132.582,953.956 132.094,930.787 129.401,907.825C128.863,903.239 128.238,898.664 127.525,894.102" style="fill:none;stroke:white;stroke-width:2px;"/>
        <path id="path4851-0" d="M14.295,1007.68C11.457,1011.75 9.792,1016.63 9.551,1021.59C9.249,1027.81 11.195,1034.07 14.739,1039.18C17.274,1042.85 20.672,1045.99 24.752,1047.78C29.547,1049.88 34.95,1050.02 40.186,1049.92C56.773,1049.62 73.353,1047.33 89.905,1048.45C97.785,1048.98 105.694,1050.29 113.538,1049.37C120.323,1048.57 126.904,1046.09 132.526,1042.21" style="fill:none;stroke:white;stroke-width:2px;"/>
        <path id="path4855-9" d="M124.896,1007.39C126.158,1009.17 126.865,1011.33 126.893,1013.51C126.921,1015.66 126.312,1017.76 126.008,1019.88C125.268,1025.06 126.351,1030.36 128.323,1035.2C129.39,1037.82 130.717,1040.33 132.277,1042.69" style="fill:none;stroke:white;stroke-width:2px;"/>
        <path id="path4911-8" d="M38.26,1001.47C37.289,1004.32 37.156,1007.46 37.879,1010.39C38.602,1013.32 40.18,1016.03 42.368,1018.1C44.946,1020.55 48.293,1022.07 51.738,1022.94C55.184,1023.81 58.752,1024.06 62.301,1024.25C74.087,1024.88 86.039,1024.82 97.514,1022.06C99.664,1021.55 101.801,1020.93 103.999,1020.69C106.197,1020.46 108.495,1020.61 110.488,1021.57C112.833,1022.7 114.612,1024.95 115.129,1027.5C115.572,1029.68 115.2,1031.96 115.535,1034.16C115.702,1035.26 116.034,1036.33 116.537,1037.33C117.039,1038.32 117.709,1039.21 118.39,1040.09L123.729,1046.98" style="fill:none;stroke:white;stroke-width:2px;"/>
        <path id="path4915-2" d="M30.533,1004.38C28.507,1008.98 27.985,1014.22 29.066,1019.13C30.147,1024.03 32.824,1028.57 36.595,1031.89C41.14,1035.9 47.076,1038.04 53.054,1039C61.168,1040.31 69.47,1039.61 77.612,1038.49C83.126,1037.73 88.615,1036.78 94.057,1035.61C95.733,1035.25 97.423,1034.87 99.136,1034.9C100.85,1034.94 102.619,1035.43 103.857,1036.62C104.926,1037.64 105.505,1039.07 105.864,1040.5C106.222,1041.94 106.391,1043.42 106.8,1044.84C107.291,1046.54 108.129,1048.15 109.248,1049.53" style="fill:none;stroke:white;stroke-width:2px;"/>
        <path id="path4919-0" d="M22.949,1006.6C20.128,1011.75 18.443,1017.51 18.048,1023.37C17.842,1026.43 17.988,1029.54 18.773,1032.5C19.558,1035.47 21.005,1038.29 23.169,1040.47C25.063,1042.37 27.454,1043.73 29.975,1044.65C32.496,1045.58 35.152,1046.08 37.813,1046.43C43.941,1047.24 50.142,1047.25 56.319,1047.47C61.637,1047.65 66.949,1047.98 72.248,1048.46" style="fill:none;stroke:white;stroke-width:2px;"/>
        <path id="path5047" d="M26.286,1005.45C25.374,1002.43 24.665,999.361 24.165,996.254C23.765,993.766 23.499,991.257 23.37,988.741" style="fill:none;stroke:white;stroke-width:2px;"/>
        <path id="path5051" d="M40.035,1000.87C37.665,997.408 35.378,993.886 33.178,990.31C32.177,988.683 31.19,987.038 30.444,985.28C29.697,983.522 29.194,981.636 29.203,979.725C29.213,977.827 29.732,975.947 30.6,974.26C31.469,972.572 32.679,971.073 34.072,969.783C36.856,967.203 40.315,965.481 43.787,963.948C49.756,961.312 56.018,959.108 62.526,958.645C65.478,958.434 68.476,958.59 71.337,959.352C74.197,960.113 76.92,961.499 79.054,963.55C82.006,966.386 83.706,970.423 83.916,974.51C84.212,980.274 81.506,986.104 76.933,989.625C74.423,991.557 71.456,992.793 68.492,993.911C65.774,994.937 62.947,995.93 60.802,997.889C59.844,998.765 59.032,999.796 58.038,1000.63C57.043,1001.47 55.864,1002.04 54.659,1002.53L51.477,1003.81" style="fill:none;stroke:white;stroke-width:2px;"/>
        <path id="path5055" d="M130.402,997.96C123.844,997.33 117.365,995.899 111.152,993.71C107.942,992.579 104.691,991.168 102.428,988.626C101.297,987.355 100.445,985.812 100.123,984.141C99.8,982.471 100.033,980.673 100.902,979.21C101.52,978.168 102.441,977.32 103.489,976.713C104.538,976.106 105.712,975.733 106.908,975.536C109.299,975.142 111.743,975.439 114.152,975.71C120.053,976.373 125.973,976.874 131.902,977.21" style="fill:none;stroke:white;stroke-width:2px;"/>
        <path id="path5055-5" d="M130.706,993.194C127.042,992.843 123.414,992.112 119.9,991.017C118.178,990.481 116.423,989.819 115.161,988.531C114.531,987.887 114.041,987.09 113.832,986.214C113.624,985.337 113.71,984.378 114.145,983.589C114.475,982.993 114.991,982.509 115.583,982.172C116.175,981.836 116.842,981.641 117.517,981.551C118.868,981.371 120.235,981.602 121.584,981.796C124.883,982.272 128.214,982.528 131.548,982.565" style="fill:none;stroke:white;stroke-width:2px;"/>
        <path id="path5055-2" d="M132.435,977.143C125.848,977.244 119.25,976.538 112.834,975.045C109.521,974.274 106.136,973.228 103.608,970.952C102.344,969.814 101.327,968.375 100.821,966.751C100.316,965.127 100.347,963.315 101.046,961.765C101.544,960.659 102.364,959.713 103.338,958.992C104.313,958.271 105.439,957.769 106.606,957.44C108.94,956.782 111.403,956.81 113.828,956.823C120.098,956.858 126.369,956.764 132.635,956.542" style="fill:none;stroke:white;stroke-width:2px;"/>
        <path id="path5055-5-4" d="M132.212,972.373C128.531,972.436 124.844,972.11 121.231,971.402C119.464,971.056 117.65,970.588 116.257,969.448C115.561,968.878 114.987,968.142 114.682,967.295C114.376,966.449 114.352,965.489 114.692,964.655C114.95,964.023 115.406,963.481 115.956,963.076C116.507,962.672 117.148,962.401 117.81,962.235C119.135,961.903 120.523,961.986 121.887,962.052C125.349,962.22 128.816,962.264 132.281,962.185" style="fill:none;stroke:white;stroke-width:2px;"/>
        <path id="path5101" d="M40.152,919.585L49.152,915.46C52.289,917.108 55.671,918.292 59.152,918.96C61.596,919.429 64.102,919.645 66.579,919.41C69.057,919.175 71.51,918.478 73.652,917.21C76.567,915.483 78.783,912.787 80.652,909.96C81.83,908.176 82.897,906.319 83.842,904.402" style="fill:none;stroke:white;stroke-width:2px;"/>
        <path id="path5105" d="M83.562,904.385C86.092,904.116 88.607,903.704 91.091,903.152C92.818,902.768 94.529,902.317 96.221,901.8" style="fill:none;stroke:white;stroke-width:2px;"/>
        <path id="path5109" d="M49.211,915.58C49.314,912.537 50.29,909.528 51.993,907.003C53.695,904.479 56.119,902.446 58.902,901.21C63.608,899.119 69.059,899.368 74.055,900.621C77.501,901.486 80.832,902.807 83.934,904.538" style="fill:none;stroke:white;stroke-width:2px;"/>
        <path id="path5113" d="M50.947,909.147C51.778,910.004 52.937,910.536 54.129,910.606C55.328,910.676 56.56,910.271 57.443,909.456C58.291,908.674 58.794,907.514 58.725,906.363C58.679,905.604 58.39,904.862 57.91,904.272C57.431,903.682 56.763,903.248 56.029,903.048" style="fill:none;stroke:white;stroke-width:2px;"/>
        <path id="path5117" d="M113.035,884.833C111.395,883.294 109.658,881.853 108.134,880.199C106.61,878.544 105.289,876.642 104.668,874.48C104.141,872.649 104.127,870.709 104.248,868.807C104.368,866.905 104.602,865.013 104.802,863.117L105.527,856.261C110.086,860.036 114.535,863.945 118.864,867.981C123.118,871.947 127.305,876.098 130.277,881.097C131.484,883.129 132.502,885.378 132.487,887.741C132.48,888.923 132.205,890.114 131.609,891.134C131.013,892.155 130.085,892.995 128.976,893.403C127.827,893.826 126.544,893.77 125.363,893.45C124.181,893.129 123.085,892.558 122.019,891.957C120.456,891.076 118.931,890.118 117.532,888.994C115.94,887.714 114.525,886.231 113.035,884.833L113.035,884.833Z" style="fill:none;stroke:white;stroke-width:2px;"/>
        <path id="path5159" d="M114.777,874.585C115.976,877.216 117.634,879.638 119.652,881.71C120.83,882.919 122.13,884.01 123.527,884.96" style="fill:none;stroke:white;stroke-width:2px;"/>
        <path id="path5163" d="M19.241,883.806C18.697,881.647 18.753,879.34 19.402,877.21C20.203,874.579 21.879,872.269 23.931,870.438C25.982,868.607 28.401,867.229 30.902,866.085C33.11,865.075 35.476,864.224 37.902,864.335C39.54,864.41 41.156,864.934 42.527,865.835" style="fill:none;stroke:white;stroke-width:2px;"/>
    </g>
</svg>
