<?xml version="1.0" encoding="UTF-8" standalone="no"?>
<!DOCTYPE svg PUBLIC "-//W3C//DTD SVG 1.1//EN" "http://www.w3.org/Graphics/SVG/1.1/DTD/svg11.dtd">
<svg width="100%" height="100%" viewBox="0 0 140 200" version="1.1" xmlns="http://www.w3.org/2000/svg" xmlns:xlink="http://www.w3.org/1999/xlink" xml:space="preserve" xmlns:serif="http://www.serif.com/" style="fill-rule:evenodd;clip-rule:evenodd;">
    <g id="Calque-1" serif:id="Calque 1" transform="matrix(1,0,0,1,0,-852.362)">
        <path id="path4462-4-4-5-5-2-4" d="M124.67,1005.28C120.272,1010.03 114.28,1013.12 108.015,1014.75C101.75,1016.38 95.199,1016.62 88.733,1016.31C83.5,1016.05 78.257,1015.43 73.232,1013.95C68.206,1012.47 63.389,1010.1 59.467,1006.63C55.077,1002.74 51.934,997.566 49.967,992.041C48,986.516 47.169,980.638 46.952,974.778C46.518,963.057 48.493,951.355 48.216,939.629C47.898,926.18 44.621,912.915 44.555,899.462C44.522,892.736 45.312,885.944 47.613,879.624C49.914,873.304 53.797,867.46 59.201,863.456C63.223,860.476 67.976,858.583 72.858,857.481C77.74,856.38 82.765,856.045 87.769,855.973C95.204,855.866 102.728,856.345 109.84,858.516C116.952,860.688 123.669,864.667 128.164,870.591C131.998,875.642 134.049,881.861 135.015,888.129C135.981,894.397 135.921,900.771 135.914,907.112C135.889,929.017 136.511,950.95 135.052,972.805C134.666,978.592 134.128,984.403 132.627,990.005C131.125,995.607 128.61,1001.03 124.67,1005.28Z" style="fill:none;stroke:white;stroke-width:2px;"/>
        <path id="path4851-6" d="M52.203,870.523C48.371,865.511 42.599,862.024 36.38,860.962C29.381,859.768 21.928,861.684 16.312,866.028C12.255,869.167 9.156,873.512 7.441,878.346C5.559,883.649 5.337,889.375 5.16,894.998C4.682,910.21 4.396,925.432 4.63,940.65C4.802,951.82 5.255,962.984 5.63,974.15C5.787,978.802 5.93,983.455 6.059,988.109" style="fill:none;stroke:white;stroke-width:2px;"/>
        <path id="path4911-4" d="M44.63,893.65C43.604,892.031 42.018,890.774 40.207,890.145C38.397,889.515 36.373,889.518 34.564,890.152C32.888,890.739 31.418,891.848 30.288,893.218C29.158,894.588 28.359,896.212 27.832,897.908C26.777,901.299 26.8,904.918 26.827,908.47C26.942,923.464 26.974,938.46 26.918,953.455C26.886,961.954 26.825,970.454 26.736,978.953" style="fill:none;stroke:white;stroke-width:2px;"/>
        <path id="path4047-6" d="M48.049,936.401C51.949,937.1 56.104,936.261 59.426,934.103C61.694,932.63 63.591,930.531 64.606,928.024C65.355,926.172 65.61,924.143 65.518,922.147C65.427,920.151 64.998,918.182 64.422,916.269C63.27,912.443 61.526,908.801 60.59,904.916C59.689,901.169 59.564,897.223 60.351,893.45C61.138,889.677 62.847,886.085 65.375,883.175C67.934,880.229 71.284,878.026 74.894,876.545C78.504,875.065 82.375,874.287 86.261,873.936C93.943,873.243 101.952,874.269 108.675,878.049C112.547,880.226 115.96,883.337 118.077,887.241C121.106,892.827 121.266,899.471 121.24,905.825C121.199,915.623 120.886,925.418 120.637,935.213C120.396,944.691 120.214,954.17 120.003,963.648C119.879,969.194 119.705,974.753 118.899,980.242C118.094,985.73 116.587,991.089 114.938,996.385L109.375,1014.25" style="fill:none;stroke:white;stroke-width:2px;"/>
        <path id="path4051-81" d="M72.172,894.562C70.57,896.225 69.862,898.703 70.345,900.961C70.53,901.825 70.881,902.659 71.409,903.368C71.937,904.078 72.644,904.66 73.461,904.998C74.432,905.401 75.538,905.447 76.552,905.17C77.565,904.893 78.484,904.299 79.187,903.518C80.009,902.604 80.539,901.434 80.704,900.216C80.869,898.997 80.672,897.735 80.162,896.615C79.809,895.838 79.307,895.129 78.691,894.536C77.139,894.448 75.582,894.427 74.028,894.474C73.409,894.493 72.79,894.522 72.172,894.562L72.172,894.562Z" style="fill:none;stroke:white;stroke-width:2px;"/>
        <path id="path4051-2-3" d="M83.634,894.727C82.815,895.415 82.188,896.33 81.844,897.343C81.499,898.356 81.437,899.464 81.667,900.509C81.936,901.734 82.614,902.874 83.591,903.662C84.567,904.45 85.84,904.874 87.092,904.787C88.191,904.711 89.254,904.244 90.08,903.514C90.905,902.785 91.494,901.798 91.78,900.734C92.06,899.695 92.054,898.58 91.764,897.544C91.474,896.507 90.9,895.551 90.121,894.808L83.634,894.727L83.634,894.727Z" style="fill:none;stroke:white;stroke-width:2px;"/>
        <path id="path4051-8-0" d="M76.396,907.027C75.545,908.653 75.485,910.641 76.108,912.367C76.55,913.594 77.333,914.707 78.382,915.481C79.432,916.254 80.751,916.676 82.052,916.581C83.426,916.481 84.736,915.807 85.678,914.801C86.62,913.796 87.202,912.475 87.392,911.11C87.557,909.919 87.431,908.683 86.983,907.567C86.536,906.451 85.763,905.461 84.763,904.794C83.409,903.89 81.658,903.617 80.087,904.044C78.517,904.471 77.15,905.585 76.396,907.027Z" style="fill:none;stroke:white;stroke-width:2px;"/>
        <path id="path4085-3" d="M118.547,980.694C115.101,981.054 111.611,980.987 108.181,980.494C105.268,980.075 102.361,979.335 99.799,977.886C97.121,976.37 94.848,974.039 93.72,971.176C92.562,968.238 92.664,964.91 93.526,961.873C94.274,959.242 95.585,956.76 97.427,954.739C99.828,952.105 103.051,950.328 106.419,949.165C110.902,947.616 115.734,947.088 120.445,947.633" style="fill:none;stroke:white;stroke-width:2px;"/>
        <path id="path4089-4" d="M117.87,983.958C113.528,984.416 109.124,984.284 104.817,983.566C101.559,983.022 98.25,982.092 95.694,979.999C93.282,978.024 91.735,975.159 90.795,972.187C89.674,968.643 89.344,964.815 90.124,961.181C91.166,956.323 94.194,951.974 98.224,949.069C100.407,947.494 102.875,946.322 105.464,945.582C108.265,944.781 111.188,944.485 114.1,944.378C116.129,944.303 118.161,944.318 120.189,944.422" style="fill:none;stroke:white;stroke-width:2px;"/>
        <path id="path4191" d="M60.375,932.983C58.013,924.96 56.21,916.773 54.983,908.5C54.39,904.499 53.931,900.462 54.053,896.42C54.175,892.378 54.895,888.314 56.574,884.635C59.055,879.198 63.558,874.826 68.772,871.907C73.341,869.349 78.447,867.848 83.621,867.045C91.131,865.881 98.939,866.179 106.16,868.548C111.629,870.342 116.787,873.383 120.458,877.816C124.037,882.138 126.052,887.594 126.953,893.133C128.315,901.512 127.255,910.067 126.544,918.526C125.751,927.955 125.394,937.415 125.097,946.873C124.757,957.707 124.493,968.557 123.362,979.337C122.493,987.616 121.112,995.848 119.035,1003.91C118.387,1006.43 117.671,1008.93 116.888,1011.41" style="fill:none;stroke:white;stroke-width:2px;"/>
        <path id="path5509-0-1" d="M109.98,948.241L94.078,972.362" style="fill:none;stroke:white;stroke-width:2px;"/>
        <path id="path5513-4-8" d="M96.852,975.249L115.505,947.418" style="fill:none;stroke:white;stroke-width:2px;"/>
        <path id="path5517-5-5" d="M120.391,947.931L99.998,977.578" style="fill:none;stroke:white;stroke-width:2px;"/>
        <path id="path5521-5-3" d="M103.48,979.194L120.164,954.902" style="fill:none;stroke:white;stroke-width:2px;"/>
        <path id="path5525-0-0" d="M120.019,961.557L107.648,980.203" style="fill:none;stroke:white;stroke-width:2px;"/>
        <path id="path5529-3-5" d="M111.888,980.914L119.888,968.352" style="fill:none;stroke:white;stroke-width:2px;"/>
        <path id="path4150" d="M92.789,967.25L103.845,950.044" style="fill:none;stroke:white;stroke-width:2px;"/>
        <path id="path4154" d="M116.788,980.639L119.35,976.639" style="fill:none;stroke:white;stroke-width:2px;"/>
        <path id="path4158" d="M70.501,894.462L92.005,894.61" style="fill:none;stroke:white;stroke-width:2px;"/>
        <path id="path4051-8-0-4" d="M109.307,934.354C108.457,935.979 108.397,937.968 109.019,939.694C109.462,940.92 110.244,942.033 111.294,942.807C112.343,943.581 113.663,944.003 114.963,943.908C116.338,943.808 117.647,943.134 118.59,942.128C119.532,941.122 120.113,939.802 120.303,938.437C120.469,937.246 120.342,936.01 119.895,934.894C119.448,933.778 118.675,932.788 117.675,932.121C116.321,931.217 114.569,930.944 112.999,931.371C111.428,931.798 110.062,932.912 109.307,934.354Z" style="fill:none;stroke:white;stroke-width:2px;"/>
        <path id="path4051-8-0-9" d="M97.266,936.54C96.416,938.165 96.355,940.154 96.978,941.879C97.421,943.106 98.203,944.219 99.252,944.993C100.302,945.767 101.621,946.188 102.922,946.094C104.297,945.994 105.606,945.32 106.548,944.314C107.491,943.308 108.072,941.987 108.262,940.622C108.428,939.432 108.301,938.195 107.854,937.08C107.406,935.964 106.634,934.973 105.633,934.306C104.28,933.403 102.528,933.13 100.957,933.557C99.387,933.983 98.02,935.097 97.266,936.54Z" style="fill:none;stroke:white;stroke-width:2px;"/>
        <path id="path4051-8-0-7" d="M86.589,942.473C85.739,944.098 85.679,946.087 86.301,947.812C86.744,949.039 87.526,950.152 88.576,950.926C89.625,951.7 90.945,952.121 92.245,952.027C93.62,951.927 94.929,951.253 95.872,950.247C96.814,949.241 97.395,947.92 97.585,946.555C97.751,945.365 97.624,944.128 97.177,943.013C96.729,941.897 95.957,940.906 94.957,940.239C93.603,939.336 91.851,939.063 90.281,939.49C88.71,939.917 87.344,941.03 86.589,942.473Z" style="fill:none;stroke:white;stroke-width:2px;"/>
        <path id="path4051-8-0-0" d="M79.771,952.652C78.92,954.278 78.86,956.266 79.483,957.992C79.925,959.219 80.708,960.332 81.757,961.106C82.807,961.879 84.126,962.301 85.427,962.206C86.801,962.106 88.111,961.432 89.053,960.426C89.995,959.421 90.577,958.1 90.767,956.735C90.932,955.544 90.806,954.308 90.358,953.192C89.911,952.076 89.138,951.086 88.138,950.419C86.784,949.515 85.033,949.242 83.462,949.669C81.892,950.096 80.525,951.21 79.771,952.652Z" style="fill:none;stroke:white;stroke-width:2px;"/>
        <path id="path4051-8-0-6" d="M78.021,965.527C77.17,967.153 77.11,969.141 77.733,970.867C78.175,972.094 78.958,973.207 80.007,973.981C81.057,974.754 82.376,975.176 83.677,975.081C85.051,974.981 86.361,974.307 87.303,973.301C88.245,972.296 88.827,970.975 89.017,969.61C89.182,968.419 89.056,967.183 88.608,966.067C88.161,964.951 87.388,963.961 86.388,963.294C85.034,962.39 83.283,962.117 81.712,962.544C80.142,962.971 78.775,964.085 78.021,965.527Z" style="fill:none;stroke:white;stroke-width:2px;"/>
        <path id="path4051-8-0-05" d="M82.396,977.777C81.545,979.403 81.485,981.391 82.108,983.117C82.55,984.344 83.333,985.457 84.382,986.231C85.432,987.004 86.751,987.426 88.052,987.331C89.426,987.231 90.736,986.557 91.678,985.551C92.62,984.546 93.202,983.225 93.392,981.86C93.557,980.669 93.431,979.433 92.983,978.317C92.536,977.201 91.763,976.211 90.763,975.544C89.409,974.64 87.658,974.367 86.087,974.794C84.517,975.221 83.15,976.335 82.396,977.777Z" style="fill:none;stroke:white;stroke-width:2px;"/>
        <path id="path4051-8-0-5" d="M92.271,985.902C91.42,987.528 91.36,989.516 91.983,991.242C92.425,992.469 93.208,993.582 94.257,994.356C95.307,995.129 96.626,995.551 97.927,995.456C99.301,995.356 100.611,994.682 101.553,993.676C102.495,992.671 103.077,991.35 103.267,989.985C103.432,988.794 103.306,987.558 102.858,986.442C102.411,985.326 101.638,984.336 100.638,983.669C99.284,982.765 97.533,982.492 95.962,982.919C94.392,983.346 93.025,984.46 92.271,985.902Z" style="fill:none;stroke:white;stroke-width:2px;"/>
        <path id="path4051-8-0-76" d="M104.396,987.777C103.545,989.403 103.485,991.391 104.108,993.117C104.55,994.344 105.333,995.457 106.382,996.231C107.432,997.004 108.751,997.426 110.052,997.331C111.426,997.231 112.736,996.557 113.678,995.551C114.62,994.546 115.202,993.225 115.392,991.86C115.557,990.669 115.431,989.433 114.983,988.317C114.536,987.201 113.763,986.211 112.763,985.544C111.409,984.64 109.658,984.367 108.087,984.794C106.517,985.221 105.15,986.335 104.396,987.777Z" style="fill:none;stroke:white;stroke-width:2px;"/>
        <path id="path4244" d="M51.434,995.397C51.688,1000.39 51.743,1005.39 51.6,1010.39C51.441,1015.96 51.036,1021.52 50.88,1027.09C50.82,1029.23 50.796,1031.39 50.449,1033.51C50.103,1035.62 49.416,1037.72 48.147,1039.45C47.386,1040.49 46.421,1041.38 45.313,1042.04C43.622,1043.03 41.656,1043.45 39.711,1043.71C34.941,1044.35 30.102,1044.13 25.291,1044.28C22.11,1044.37 18.895,1044.63 15.769,1044.04C13.415,1043.59 11.097,1042.62 9.413,1040.92C7.378,1038.86 6.465,1035.96 5.838,1033.14C4.38,1026.58 4.091,1019.82 3.911,1013.1C3.775,1008.03 3.698,1002.95 4.1,997.889C4.306,995.299 4.642,992.701 5.448,990.231C6.254,987.761 7.557,985.411 9.475,983.659C11.576,981.74 14.314,980.629 17.103,980.061C19.891,979.494 22.755,979.436 25.6,979.389C28.91,979.334 32.235,979.294 35.516,979.733C38.797,980.173 42.057,981.113 44.85,982.889C46.057,983.656 47.168,984.574 48.149,985.614" style="fill:none;stroke:white;stroke-width:2px;"/>
        <path id="path4051-8-0-05-2" d="M22.876,1009.37C22.025,1010.99 21.965,1012.98 22.588,1014.71C23.03,1015.93 23.813,1017.05 24.862,1017.82C25.912,1018.6 27.231,1019.02 28.532,1018.92C29.906,1018.82 31.216,1018.15 32.158,1017.14C33.101,1016.14 33.682,1014.82 33.872,1013.45C34.037,1012.26 33.911,1011.02 33.464,1009.91C33.016,1008.79 32.243,1007.8 31.243,1007.13C29.889,1006.23 28.138,1005.96 26.567,1006.38C24.997,1006.81 23.63,1007.93 22.876,1009.37Z" style="fill:none;stroke:white;stroke-width:2px;"/>
        <path id="path5509-0-1-0" d="M42.211,891.033L26.884,914.382" style="fill:none;stroke:white;stroke-width:2px;"/>
        <path id="path5517-5-5-4" d="M44.633,894.545L26.928,921.972" style="fill:none;stroke:white;stroke-width:2px;"/>
        <path id="path4150-3" d="M26.845,907.082L37.9,889.876" style="fill:none;stroke:white;stroke-width:2px;"/>
        <path id="path5509-0-1-0-1" d="M44.629,902.666L27.009,929.632" style="fill:none;stroke:white;stroke-width:2px;"/>
        <path id="path5509-0-1-0-0" d="M45.098,909.385L27.009,936.882" style="fill:none;stroke:white;stroke-width:2px;"/>
        <path id="path5509-0-1-0-8" d="M45.786,915.948L26.759,945.069" style="fill:none;stroke:white;stroke-width:2px;"/>
        <path id="path5509-0-1-0-6" d="M46.598,922.948L26.884,952.507" style="fill:none;stroke:white;stroke-width:2px;"/>
        <path id="path5509-0-1-0-02" d="M47.411,928.823L26.884,959.632" style="fill:none;stroke:white;stroke-width:2px;"/>
        <path id="path5509-0-1-0-07" d="M47.911,935.073L26.946,966.632" style="fill:none;stroke:white;stroke-width:2px;"/>
        <path id="path5509-0-1-0-3" d="M48.223,942.135L26.759,974.007" style="fill:none;stroke:white;stroke-width:2px;"/>
        <path id="path5509-0-1-0-06" d="M47.973,949.76L28.071,979.694" style="fill:none;stroke:white;stroke-width:2px;"/>
        <path id="path5509-0-1-0-2" d="M47.473,957.76L33.446,979.569" style="fill:none;stroke:white;stroke-width:2px;"/>
        <path id="path4150-3-6" d="M38.219,980.52L47.088,966.251" style="fill:none;stroke:white;stroke-width:2px;"/>
        <path id="path4150-3-3" d="M42.344,981.457L46.9,973.939" style="fill:none;stroke:white;stroke-width:2px;"/>
        <path id="path4150-3-7" d="M46.094,983.27L47.525,980.751" style="fill:none;stroke:white;stroke-width:2px;"/>
        <path id="path4150-3-61" d="M27.595,898.582L32.338,891.314" style="fill:none;stroke:white;stroke-width:2px;"/>
        <path id="path4430" d="M77.482,1015.18C76.984,1020.05 77.009,1024.97 77.555,1029.83C77.8,1032.01 78.153,1034.19 78.891,1036.26C79.63,1038.33 80.774,1040.29 82.416,1041.74C84.743,1043.81 87.929,1044.73 91.04,1044.75C94.292,1044.78 97.618,1043.85 100.118,1041.77C101.901,1040.29 103.201,1038.29 104.099,1036.15C104.996,1034.01 105.511,1031.73 105.911,1029.44C106.748,1024.66 107.103,1019.8 106.969,1014.95" style="fill:none;stroke:white;stroke-width:2px;"/>
        <path id="path4430-5" d="M87.075,1016.15C86.749,1018.18 86.614,1020.24 86.674,1022.29C86.703,1023.3 86.779,1024.31 87.017,1025.28C87.254,1026.26 87.659,1027.2 88.293,1027.98C88.697,1028.48 89.193,1028.9 89.759,1029.2C90.325,1029.5 90.961,1029.67 91.601,1029.66C92.315,1029.65 93.02,1029.43 93.632,1029.06C94.243,1028.69 94.765,1028.18 95.189,1027.61C96.296,1026.11 96.726,1024.21 96.943,1022.36C97.175,1020.38 97.194,1018.37 97,1016.39" style="fill:none;stroke:white;stroke-width:2px;"/>
        <path id="path4173" d="M81.042,1040.45C77.2,1042.5 72.831,1043.55 68.477,1043.48C66.264,1043.44 64.044,1043.11 61.962,1042.37C59.879,1041.62 57.934,1040.44 56.413,1038.83C54.059,1036.34 52.844,1032.98 52.1,1029.64C51.22,1025.68 50.935,1021.44 52.35,1017.64C53.951,1013.34 57.775,1009.94 62.233,1008.85" style="fill:none;stroke:white;stroke-width:2px;"/>
        <path id="path4173-4" d="M77.915,1031.44C77.017,1031.51 76.109,1031.42 75.238,1031.2C74.509,1031.01 73.802,1030.71 73.183,1030.28C72.208,1029.6 71.463,1028.55 71.306,1027.37C71.161,1026.29 71.528,1025.16 72.18,1024.28C72.705,1023.57 73.413,1022.99 74.217,1022.62C75.021,1022.25 75.92,1022.09 76.803,1022.15" style="fill:none;stroke:white;stroke-width:2px;"/>
        <path id="path4195" d="M54.923,1013.8C56.755,1015.93 58.967,1017.74 61.423,1019.11C62.68,1019.81 63.999,1020.39 65.361,1020.86" style="fill:none;stroke:white;stroke-width:2px;"/>
        <path id="path4199" d="M63.477,1028.38C62.029,1028.33 60.585,1028.17 59.165,1027.88C56.43,1027.32 53.787,1026.32 51.374,1024.92" style="fill:none;stroke:white;stroke-width:2px;"/>
        <path id="path4203" d="M54.465,1036.34C56.184,1036.86 57.968,1037.16 59.762,1037.23C61.666,1037.31 63.581,1037.13 65.439,1036.7" style="fill:none;stroke:white;stroke-width:2px;"/>
        <path id="path4173-8" d="M101.276,1040.89C105.101,1042.98 109.439,1044.12 113.797,1044.19C116.309,1044.22 118.836,1043.9 121.218,1043.11C123.6,1042.31 125.835,1041.03 127.629,1039.27C130.581,1036.38 132.221,1032.27 132.369,1028.14C132.485,1024.89 131.707,1021.6 130.119,1018.76C127.725,1014.48 123.462,1011.29 118.681,1010.21" style="fill:none;stroke:white;stroke-width:2px;"/>
        <path id="path4173-4-5" d="M105.685,1031.27C106.77,1031.49 107.906,1031.47 108.981,1031.2C109.712,1031.01 110.418,1030.71 111.036,1030.28C112.008,1029.6 112.755,1028.55 112.913,1027.37C113.059,1026.29 112.692,1025.16 112.039,1024.28C111.479,1023.52 110.71,1022.91 109.838,1022.55C108.967,1022.19 107.997,1022.06 107.062,1022.2" style="fill:none;stroke:white;stroke-width:2px;"/>
        <path id="path4195-6" d="M126.244,1014.26C124.687,1015.8 122.965,1017.16 121.119,1018.33C120.014,1019.02 118.865,1019.65 117.681,1020.2" style="fill:none;stroke:white;stroke-width:2px;"/>
        <path id="path4199-8" d="M119.681,1028.2C121.132,1028.21 122.583,1028.04 123.994,1027.7C126.877,1027.01 129.585,1025.6 131.806,1023.64" style="fill:none;stroke:white;stroke-width:2px;"/>
        <path id="path4203-6" d="M130.046,1036.24C127.779,1036.34 125.506,1036.31 123.244,1036.14C121.78,1036.03 120.32,1035.86 118.869,1035.64" style="fill:none;stroke:white;stroke-width:2px;"/>
    </g>
</svg>
