<?xml version="1.0" encoding="UTF-8" standalone="no"?>
<!DOCTYPE svg PUBLIC "-//W3C//DTD SVG 1.1//EN" "http://www.w3.org/Graphics/SVG/1.1/DTD/svg11.dtd">
<svg width="100%" height="100%" viewBox="0 0 140 200" version="1.1" xmlns="http://www.w3.org/2000/svg" xmlns:xlink="http://www.w3.org/1999/xlink" xml:space="preserve" xmlns:serif="http://www.serif.com/" style="fill-rule:evenodd;clip-rule:evenodd;">
    <g id="Calque-1" serif:id="Calque 1" transform="matrix(1,0,0,1,0,-852.362)">
        <path id="path4045-7" d="M8.257,983.266C8.268,987.743 8.372,992.221 8.186,996.694C8.029,1000.45 7.667,1004.2 7.541,1007.96C7.398,1012.19 7.554,1016.44 8.174,1020.62C9.129,1027.07 11.338,1033.59 15.961,1038.18C18.706,1040.91 22.18,1042.82 25.829,1044.11C29.477,1045.4 33.31,1046.08 37.146,1046.58C45.808,1047.72 54.561,1047.96 63.296,1048.12C73.183,1048.31 83.148,1048.39 92.868,1046.56C100.471,1045.14 107.924,1042.51 114.335,1038.18C119.659,1034.59 124.233,1029.8 127.216,1024.11C131.83,1015.31 132.401,1005.01 132.775,995.078C133.416,978.098 133.753,960.98 130.872,944.235C130.071,939.582 129.016,934.946 127.225,930.578C125.434,926.209 122.876,922.098 119.382,918.923C114.352,914.352 107.672,911.971 100.976,910.81C91.538,909.174 81.88,909.753 72.301,909.781C62.981,909.809 53.62,909.311 44.368,910.441C35.117,911.571 25.814,914.473 18.705,920.501C13.363,925.031 9.449,931.257 7.83,938.072C6.709,942.79 6.675,947.696 6.889,952.54C7.187,959.281 7.954,965.997 8.174,972.741C8.23,974.457 8.25,976.174 8.256,977.891C8.262,979.683 8.252,981.475 8.257,983.266Z" style="fill:none;stroke:white;stroke-width:2px;"/>
        <path id="path4047-0" d="M8.105,982.061C11.408,982.678 14.842,982.589 18.108,981.802C20.164,981.306 22.225,980.49 23.677,978.952C24.789,977.774 25.474,976.235 25.79,974.647C26.107,973.058 26.073,971.417 25.88,969.809C25.129,963.544 22.042,957.757 21.146,951.511C20.589,947.63 20.905,943.617 22.133,939.893C23.361,936.168 25.504,932.74 28.364,930.058C33.061,925.655 39.45,923.436 45.827,922.553C52.204,921.67 58.676,922.005 65.114,922.049C76.906,922.13 88.837,921.24 100.386,923.622C104.124,924.393 107.888,925.553 110.886,927.913C113.118,929.67 114.829,932.027 116.079,934.578C117.329,937.128 118.136,939.874 118.761,942.644C121.248,953.669 120.918,965.099 121.222,976.397C121.417,983.644 121.878,990.894 121.55,998.136C121.265,1004.44 120.593,1010.72 120.238,1017.01L119.253,1034.45" style="fill:none;stroke:white;stroke-width:2px;"/>
        <path id="path4051-7" d="M44.262,924.564C42.834,925.639 41.842,927.256 41.45,929C41.059,930.745 41.257,932.604 41.931,934.259C42.442,935.513 43.227,936.663 44.256,937.544C45.284,938.425 46.558,939.03 47.901,939.204C49.803,939.451 51.781,938.806 53.249,937.571C54.717,936.335 55.679,934.544 56.015,932.655C56.269,931.227 56.176,929.733 55.711,928.359C55.246,926.984 54.406,925.734 53.286,924.811C52.034,923.78 50.436,923.172 48.815,923.124C47.193,923.075 45.558,923.588 44.262,924.564Z" style="fill:none;stroke:white;stroke-width:2px;"/>
        <path id="path4051-2-7" d="M59.342,923.399C57.932,924.467 56.982,926.093 56.627,927.826C56.273,929.559 56.495,931.388 57.144,933.034C57.623,934.249 58.339,935.382 59.301,936.265C60.264,937.149 61.479,937.774 62.774,937.948C64.608,938.194 66.509,937.503 67.88,936.26C69.25,935.016 70.107,933.263 70.426,931.44C70.673,930.028 70.61,928.556 70.181,927.189C69.752,925.822 68.952,924.564 67.853,923.645C66.678,922.661 65.17,922.082 63.639,922.034C62.107,921.987 60.563,922.474 59.342,923.399Z" style="fill:none;stroke:white;stroke-width:2px;"/>
        <path id="path4051-8-2" d="M53.055,938.321C51.72,939.315 50.755,940.787 50.348,942.401C49.941,944.015 50.09,945.76 50.739,947.293C51.248,948.497 52.062,949.574 53.094,950.377C54.125,951.181 55.373,951.708 56.671,951.868C58.511,952.096 60.429,951.567 61.906,950.447C63.383,949.327 64.407,947.633 64.735,945.808C64.975,944.474 64.85,943.076 64.376,941.807C63.902,940.537 63.08,939.399 62.024,938.55C60.769,937.542 59.184,936.949 57.576,936.903C55.967,936.857 54.346,937.36 53.055,938.321Z" style="fill:none;stroke:white;stroke-width:2px;"/>
        <path id="path4085-6" d="M120.566,1007.86C113.869,1007.68 107.154,1008.16 100.551,1009.29C97.229,1009.86 93.93,1010.59 90.578,1010.94C88.794,1011.12 86.971,1011.19 85.228,1010.77C83.486,1010.35 81.816,1009.38 80.863,1007.86C80.195,1006.8 79.913,1005.49 80.089,1004.25C80.265,1003 80.899,1001.82 81.848,1001C82.764,1000.2 83.935,999.739 85.123,999.476C86.311,999.213 87.529,999.131 88.738,998.994C93.954,998.405 98.998,996.798 104.16,995.848C109.885,994.794 115.758,994.552 121.55,995.133" style="fill:none;stroke:white;stroke-width:2px;"/>
        <path id="path4089-44" d="M120.49,1012.22C115.09,1011.51 109.577,1011.7 104.236,1012.76C98.953,1013.8 93.794,1015.7 88.41,1015.87C86.346,1015.94 84.263,1015.74 82.284,1015.15C80.305,1014.56 78.431,1013.57 76.926,1012.15C75.611,1010.92 74.587,1009.36 74.057,1007.64C73.527,1005.92 73.502,1004.03 74.069,1002.31C74.85,999.956 76.7,998.061 78.839,996.797C80.978,995.534 83.403,994.841 85.825,994.288C90.361,993.252 94.986,992.666 99.566,991.843C104.258,991.001 108.921,989.907 113.675,989.555C116.2,989.368 118.741,989.391 121.262,989.625" style="fill:none;stroke:white;stroke-width:2px;"/>
        <ellipse id="path4093-70" cx="110.172" cy="1017.48" rx="0.659" ry="0.575" style="stroke:white;stroke-width:2px;stroke-linecap:round;stroke-linejoin:round;"/>
        <ellipse id="path4093-6-0" cx="101.485" cy="986.262" rx="0.659" ry="0.575" style="stroke:white;stroke-width:2px;stroke-linecap:round;stroke-linejoin:round;"/>
        <ellipse id="path4093-8-0" cx="93.733" cy="987.912" rx="0.659" ry="0.575" style="stroke:white;stroke-width:2px;stroke-linecap:round;stroke-linejoin:round;"/>
        <ellipse id="path4093-2-1" cx="86.938" cy="989.36" rx="0.659" ry="0.575" style="stroke:white;stroke-width:2px;stroke-linecap:round;stroke-linejoin:round;"/>
        <ellipse id="path4093-1-0" cx="79.375" cy="991.275" rx="0.659" ry="0.575" style="stroke:white;stroke-width:2px;stroke-linecap:round;stroke-linejoin:round;"/>
        <ellipse id="path4093-7-0" cx="72.697" cy="995.011" rx="0.659" ry="0.575" style="stroke:white;stroke-width:2px;stroke-linecap:round;stroke-linejoin:round;"/>
        <ellipse id="path4093-9-1" cx="68.607" cy="1000.93" rx="0.659" ry="0.575" style="stroke:white;stroke-width:2px;stroke-linecap:round;stroke-linejoin:round;"/>
        <ellipse id="path4093-4-8" cx="81.716" cy="1021.51" rx="0.659" ry="0.575" style="stroke:white;stroke-width:2px;stroke-linecap:round;stroke-linejoin:round;"/>
        <ellipse id="path4093-47-5" cx="88.808" cy="1021.67" rx="0.659" ry="0.575" style="stroke:white;stroke-width:2px;stroke-linecap:round;stroke-linejoin:round;"/>
        <ellipse id="path4093-44-0" cx="96.408" cy="1020.56" rx="0.659" ry="0.575" style="stroke:white;stroke-width:2px;stroke-linecap:round;stroke-linejoin:round;"/>
        <ellipse id="path4093-19-7" cx="103.66" cy="1018.87" rx="0.659" ry="0.575" style="stroke:white;stroke-width:2px;stroke-linecap:round;stroke-linejoin:round;"/>
        <ellipse id="path4093-5-3" cx="116.095" cy="1017.86" rx="0.659" ry="0.575" style="stroke:white;stroke-width:2px;stroke-linecap:round;stroke-linejoin:round;"/>
        <ellipse id="path4093-61-4" cx="75.633" cy="1019.44" rx="0.659" ry="0.575" style="stroke:white;stroke-width:2px;stroke-linecap:round;stroke-linejoin:round;"/>
        <ellipse id="path4093-69-2" cx="70.384" cy="1014.9" rx="0.659" ry="0.575" style="stroke:white;stroke-width:2px;stroke-linecap:round;stroke-linejoin:round;"/>
        <ellipse id="path4093-475-9" cx="67.991" cy="1007.83" rx="0.659" ry="0.575" style="stroke:white;stroke-width:2px;stroke-linecap:round;stroke-linejoin:round;"/>
        <ellipse id="path4093-86-8" cx="109.221" cy="984.948" rx="0.659" ry="0.575" style="stroke:white;stroke-width:2px;stroke-linecap:round;stroke-linejoin:round;"/>
        <ellipse id="path4093-447-6" cx="116.032" cy="984.612" rx="0.659" ry="0.575" style="stroke:white;stroke-width:2px;stroke-linecap:round;stroke-linejoin:round;"/>
        <path id="path4047-0-8" d="M23.427,978.827C21.16,974.979 19.376,970.847 18.13,966.559C16.734,961.755 16.014,956.762 15.896,951.761C15.781,946.912 16.237,942.015 17.68,937.383C19.122,932.751 21.584,928.385 25.114,925.058C29.665,920.771 35.755,918.414 41.911,917.321C48.067,916.228 54.362,916.306 60.614,916.299C74.419,916.284 88.361,915.854 101.886,918.622C104.579,919.173 107.257,919.854 109.791,920.918C112.325,921.982 114.719,923.444 116.636,925.413C120.018,928.885 121.688,933.668 122.761,938.394C125.134,948.848 125.051,959.678 125.222,970.397C125.351,978.478 125.631,986.556 125.8,994.636C125.936,1001.1 125.763,1007.57 125.238,1014.01L124.003,1029.14" style="fill:none;stroke:white;stroke-width:2px;"/>
        <path id="path4382" d="M59.95,951.499C60.672,951.805 61.308,952.311 61.769,952.946C62.23,953.581 62.513,954.343 62.58,955.125C62.647,955.907 62.497,956.706 62.151,957.41C61.805,958.114 61.264,958.721 60.604,959.145C59.708,959.721 58.64,959.946 57.63,960.282C57.125,960.45 56.626,960.649 56.175,960.932C55.724,961.215 55.32,961.585 55.051,962.044C54.698,962.647 54.596,963.375 54.682,964.068C54.768,964.76 55.032,965.421 55.369,966.032C56.042,967.254 57.009,968.305 57.608,969.565C58.122,970.646 58.348,971.861 58.258,973.054C58.167,974.247 57.76,975.414 57.09,976.405" style="fill:none;stroke:white;stroke-width:2px;"/>
        <path id="path5245-8-17" d="M26.419,915.496C20.238,914.611 14.557,910.719 11.501,905.273C9.285,901.325 8.436,896.68 8.769,892.165C9.102,887.649 10.58,883.26 12.743,879.283C14.535,875.99 16.804,872.949 19.525,870.372C26.033,864.208 34.842,860.959 43.688,859.516C52.535,858.073 61.554,858.285 70.516,858.151C79.359,858.019 88.245,857.548 97.018,858.671C105.791,859.793 114.583,862.644 121.301,868.396C125.273,871.797 128.433,876.171 130.259,881.071C133.637,890.135 132.118,900.842 126.427,908.664C123.96,912.054 120.768,914.914 117.127,916.995" style="fill:none;stroke:white;stroke-width:2px;"/>
        <path id="path5245-4-38-4" d="M36.917,911.529C36.33,910.583 35.808,909.597 35.355,908.58C32.857,902.969 32.601,896.305 35.082,890.687C36.112,888.353 37.59,886.22 39.392,884.413C43.446,880.346 48.999,878.047 54.635,876.948C60.272,875.849 66.056,875.857 71.799,875.808C78.084,875.755 84.419,875.632 90.598,876.782C96.777,877.932 102.877,880.47 107.221,885.013C109.321,887.21 110.969,889.839 112.015,892.693C113.142,895.766 113.566,899.103 113.168,902.352C112.77,905.601 111.543,908.755 109.58,911.374C109.231,911.838 108.86,912.286 108.469,912.715" style="fill:none;stroke:white;stroke-width:2px;"/>
        <path id="path5245-4-3-1-27" d="M34.798,912.345C33.403,910.834 32.252,909.097 31.405,907.223C30.024,904.167 29.464,900.762 29.657,897.415C29.85,894.067 30.786,890.777 32.263,887.766C33.464,885.316 35.027,883.036 36.946,881.096C41.331,876.663 47.384,874.193 53.514,873.047C59.643,871.901 65.925,871.971 72.16,871.947C78.972,871.921 85.835,871.782 92.538,872.991C99.242,874.199 105.874,876.877 110.65,881.734C112.931,884.054 114.749,886.841 115.86,889.899C118.23,896.421 117.154,904.05 113.214,909.761C112.322,911.054 111.294,912.252 110.153,913.332" style="fill:none;stroke:white;stroke-width:2px;"/>
        <path id="path4452" d="M68.067,858.291L65.768,871.726" style="fill:none;stroke:white;stroke-width:2px;"/>
        <path id="path4456" d="M74.681,858.258L72.158,871.898" style="fill:none;stroke:white;stroke-width:2px;"/>
        <path id="path4460" d="M81.148,858.291L78.938,871.637" style="fill:none;stroke:white;stroke-width:2px;"/>
        <path id="path4829-95" d="M53.906,899.102C53.176,898.535 52.75,897.631 52.661,896.711C52.572,895.791 52.799,894.86 53.195,894.025C54.155,892 56.036,890.567 57.982,889.455C58.61,889.096 59.255,888.76 59.938,888.523C60.621,888.285 61.345,888.146 62.067,888.19C63.05,888.249 64.013,888.659 64.712,889.352C65.412,890.044 65.834,891.017 65.829,892.001C65.824,892.837 65.52,893.653 65.068,894.357C64.617,895.062 64.022,895.663 63.395,896.217C62.051,897.406 60.534,898.405 58.887,899.116C58.086,899.462 57.243,899.742 56.373,899.79C55.502,899.838 54.595,899.637 53.906,899.102Z" style="fill:none;stroke:white;stroke-width:2px;"/>
        <path id="path4829-9-1" d="M80.489,899.292C79.838,898.644 79.514,897.709 79.512,896.79C79.51,895.871 79.811,894.97 80.265,894.171C81.406,892.162 83.439,890.833 85.487,889.763C86.312,889.331 87.162,888.925 88.072,888.726C88.982,888.526 89.965,888.545 90.808,888.94C91.609,889.316 92.24,890.019 92.574,890.839C92.908,891.658 92.951,892.584 92.744,893.444C92.437,894.723 91.609,895.82 90.662,896.734C89.296,898.051 87.647,899.066 85.871,899.735C84.979,900.071 84.04,900.323 83.088,900.302C82.136,900.282 81.164,899.965 80.489,899.292Z" style="fill:none;stroke:white;stroke-width:2px;"/>
    </g>
</svg>
