<?xml version="1.0" encoding="UTF-8" standalone="no"?>
<!DOCTYPE svg PUBLIC "-//W3C//DTD SVG 1.1//EN" "http://www.w3.org/Graphics/SVG/1.1/DTD/svg11.dtd">
<svg width="100%" height="100%" viewBox="0 0 140 200" version="1.1" xmlns="http://www.w3.org/2000/svg" xmlns:xlink="http://www.w3.org/1999/xlink" xml:space="preserve" xmlns:serif="http://www.serif.com/" style="fill-rule:evenodd;clip-rule:evenodd;">
    <g id="Calque-1" serif:id="Calque 1" transform="matrix(1,0,0,1,0,-852.362)">
        <path id="path4045-7-5" d="M8.482,971.734C8.493,975.635 8.595,979.539 8.411,983.436C8.256,986.713 7.899,989.978 7.765,993.256C7.615,996.944 7.75,1000.65 8.399,1004.29C9.425,1010.03 11.858,1015.69 16.19,1019.59C19.016,1022.13 22.53,1023.83 26.173,1024.91C29.816,1026 33.605,1026.51 37.386,1026.91C46.074,1027.84 54.814,1028.21 63.55,1028.25C73.428,1028.3 83.312,1027.91 93.137,1026.89C99.987,1026.18 106.818,1025.17 113.491,1023.46C116.551,1022.68 119.633,1021.73 122.22,1019.92C125.886,1017.36 128.237,1013.28 129.753,1009.08C132.847,1000.49 132.876,991.153 133.066,982.027C133.374,967.213 134.186,952.226 131.161,937.721C130.298,933.582 129.118,929.487 127.282,925.679C125.445,921.872 122.931,918.348 119.666,915.663C114.522,911.432 107.845,909.519 101.25,908.593C91.766,907.262 82.136,907.757 72.56,907.696C63.305,907.637 54.022,907.057 44.815,907.984C35.607,908.911 26.324,911.464 18.936,917.038C13.846,920.878 9.741,926.202 8.055,932.351C6.935,936.432 6.899,940.731 7.113,944.958C7.412,950.835 8.18,956.682 8.399,962.562C8.455,964.058 8.476,965.554 8.481,967.05C8.487,968.612 8.477,970.173 8.482,971.734Z" style="fill:none;stroke:white;stroke-width:2px;"/>
        <path id="path4047-0-7" d="M8.706,980.684C12.272,981.199 15.864,981.541 19.464,981.708C21.557,981.805 23.675,981.841 25.726,981.412C27.777,980.983 29.778,980.05 31.16,978.475C32.073,977.434 32.682,976.155 33.083,974.83C33.485,973.505 33.688,972.13 33.864,970.757C34.702,964.236 34.969,957.634 36.253,951.187C36.684,949.024 37.231,946.874 38.092,944.843C38.952,942.812 40.137,940.897 41.725,939.367C44.133,937.046 47.356,935.719 50.633,935.055C53.91,934.39 57.276,934.34 60.619,934.262C71.509,934.009 82.414,933.434 93.285,934.133C95.989,934.307 98.713,934.565 101.292,935.397C103.87,936.229 106.317,937.685 107.915,939.872C109.03,941.397 109.69,943.218 110.054,945.071C110.419,946.924 110.5,948.821 110.544,950.71C110.696,957.138 110.439,963.568 110.381,969.998C110.327,976.108 110.452,982.228 109.96,988.318C109.491,994.114 108.381,999.837 107.146,1005.52L102.787,1025.59" style="fill:none;stroke:white;stroke-width:2px;"/>
        <path id="path4085-6-5" d="M109.1,993.043C107.139,993.228 105.16,993.228 103.199,993.043C100.938,992.829 98.687,992.364 96.596,991.478C94.813,990.723 93.12,989.627 92.002,988.046C90.96,986.573 90.477,984.744 90.486,982.939C90.504,979.779 92.044,976.676 94.506,974.694C96.359,973.201 98.644,972.349 100.935,971.702C104.041,970.825 107.239,970.28 110.46,970.079" style="fill:none;stroke:white;stroke-width:2px;"/>
        <path id="path4089-44-4" d="M107.274,1003.96C103.716,1004.24 100.116,1003.98 96.637,1003.18C93.858,1002.55 91.147,1001.57 88.677,1000.15C85.975,998.589 83.567,996.485 81.812,993.907C80.205,991.545 79.162,988.796 78.829,985.959C78.351,981.891 79.337,977.728 81.216,974.089C83.132,970.377 85.983,967.143 89.464,964.834C93.099,962.423 97.327,961.054 101.581,960.089C104.454,959.438 107.366,958.957 110.296,958.65" style="fill:none;stroke:white;stroke-width:2px;"/>
        <ellipse id="path4093-70-1" cx="97.076" cy="1016.3" rx="0.659" ry="0.501" style="stroke:white;stroke-width:2px;stroke-linecap:round;stroke-linejoin:round;"/>
        <ellipse id="path4093-6-0-2" cx="72.134" cy="967.22" rx="0.659" ry="0.501" style="stroke:white;stroke-width:2px;stroke-linecap:round;stroke-linejoin:round;"/>
        <ellipse id="path4093-7-0-7" cx="66.831" cy="984.594" rx="0.659" ry="0.501" style="stroke:white;stroke-width:2px;stroke-linecap:round;stroke-linejoin:round;"/>
        <ellipse id="path4093-4-8-6" cx="83.979" cy="1011.94" rx="0.659" ry="0.501" style="stroke:white;stroke-width:2px;stroke-linecap:round;stroke-linejoin:round;"/>
        <ellipse id="path4093-69-2-2" cx="71.766" cy="1002.05" rx="0.659" ry="0.501" style="stroke:white;stroke-width:2px;stroke-linecap:round;stroke-linejoin:round;"/>
        <ellipse id="path4093-86-8-3" cx="83.999" cy="955.325" rx="0.659" ry="0.501" style="stroke:white;stroke-width:2px;stroke-linecap:round;stroke-linejoin:round;"/>
        <ellipse id="path4093-447-6-7" cx="98.064" cy="949.907" rx="0.659" ry="0.501" style="stroke:white;stroke-width:2px;stroke-linecap:round;stroke-linejoin:round;"/>
        <path id="path4047-0-8-0" d="M22.66,981.616C23.544,976.856 24.361,972.083 25.11,967.3C26.135,960.757 27.039,954.177 28.75,947.78C30.163,942.498 32.266,937.147 36.348,933.509C39.653,930.564 43.997,929 48.366,928.291C52.736,927.581 57.19,927.664 61.616,927.626C72.677,927.533 83.757,926.684 94.786,927.526C98.004,927.771 101.231,928.165 104.318,929.105C107.405,930.046 110.364,931.559 112.668,933.819C114.891,935.998 116.435,938.804 117.421,941.756C119.978,949.405 118.883,957.713 118.508,965.77C118.193,972.558 118.412,979.371 117.837,986.143C117.332,992.094 116.123,997.961 114.774,1003.78L110.039,1024.21" style="fill:none;stroke:white;stroke-width:2px;"/>
        <path id="path5245-8-17-0" d="M19.277,916.964C15.281,913.316 12.205,908.669 10.409,903.565C7.634,895.68 7.993,886.799 11.081,879.031C13.261,873.547 16.772,868.589 21.263,864.761C25.755,860.933 31.224,858.249 37.013,857.101C42.802,855.954 48.899,856.353 54.467,858.308C60.035,860.264 65.056,863.777 68.75,868.38C72.257,872.75 74.547,878.064 75.456,883.593C76.796,891.748 75.083,900.368 70.726,907.39" style="fill:none;stroke:white;stroke-width:2px;"/>
        <path id="path4702" d="M42.782,959.098C45.794,958.592 48.788,957.978 51.757,957.257C53.212,956.904 54.664,956.524 56.058,955.978C57.303,955.49 58.495,954.872 59.61,954.136" style="fill:none;stroke:white;stroke-width:2px;"/>
        <path id="path4706" d="M51.8,972.379C52.039,969.729 52.157,967.069 52.153,964.409C52.15,962.116 52.056,959.823 51.873,957.538" style="fill:none;stroke:white;stroke-width:2px;"/>
        <path id="path4710" d="M16.076,1019.18C13.575,1023.17 12.324,1027.92 12.54,1032.62C12.666,1035.36 13.29,1038.1 14.553,1040.53C15.816,1042.97 17.738,1045.09 20.142,1046.41C22.459,1047.68 25.129,1048.18 27.767,1048.35C30.406,1048.53 33.056,1048.4 35.698,1048.53C38.019,1048.64 40.335,1048.94 42.658,1048.88C44.981,1048.83 47.36,1048.38 49.31,1047.12C50.808,1046.14 52,1044.7 52.668,1043.05C53.409,1041.21 53.502,1039.19 53.552,1037.21C53.631,1034.15 53.631,1031.09 53.552,1028.02" style="fill:none;stroke:white;stroke-width:2px;"/>
        <path id="path4710-0" d="M54.561,1028.25C53.937,1030.28 53.637,1032.4 53.677,1034.53C53.728,1037.23 54.347,1039.96 55.71,1042.3C56.738,1044.07 58.191,1045.6 59.953,1046.63C62.082,1047.88 64.578,1048.38 67.042,1048.54C69.506,1048.71 71.981,1048.57 74.448,1048.67C76.498,1048.75 78.542,1048.99 80.593,1048.96C82.644,1048.93 84.734,1048.63 86.558,1047.69C89.212,1046.33 91.084,1043.68 91.861,1040.8C92.348,1038.99 92.437,1037.1 92.391,1035.23C92.326,1032.62 92,1030.01 91.419,1027.45" style="fill:none;stroke:white;stroke-width:2px;"/>
        <path id="path4710-9" d="M118.373,1021.91C120.846,1022.23 123.232,1023.19 125.23,1024.68C125.977,1025.24 126.672,1025.87 127.269,1026.59C128.476,1028.04 129.252,1029.83 129.632,1031.68C130.012,1033.53 130.006,1035.44 129.758,1037.32C129.536,1038.99 129.118,1040.65 128.401,1042.18C127.685,1043.7 126.661,1045.1 125.339,1046.15C123.672,1047.48 121.596,1048.2 119.5,1048.57C117.405,1048.94 115.267,1048.98 113.141,1049.07C108.769,1049.26 104.239,1049.65 100.148,1048.1C97.322,1047.03 94.796,1044.96 93.607,1042.18C92.559,1039.73 92.61,1036.95 92.988,1034.31C93.371,1031.64 94.072,1029.02 95.07,1026.51" style="fill:none;stroke:white;stroke-width:2px;"/>
        <path id="path4744" d="M65.123,864.239C66.631,862.289 68.636,860.728 70.896,859.745C73.156,858.761 75.666,858.358 78.12,858.585C81.001,858.85 83.774,859.975 86.134,861.649C88.493,863.323 90.447,865.534 91.975,867.991C96.187,874.76 97.08,883.121 96.484,891.072C96.058,896.75 94.927,902.374 93.127,907.776" style="fill:none;stroke:white;stroke-width:2px;"/>
        <path id="path4748" d="M96.406,885.365C100.087,885.5 103.762,885.82 107.411,886.323C111.353,886.867 115.398,887.621 119.267,886.686C121.164,886.228 122.976,885.357 124.44,884.066C124.992,883.579 125.494,883.034 125.909,882.427C126.899,880.976 127.355,879.226 127.612,877.488C128.083,874.3 127.936,871.029 127.258,867.879C126.937,866.389 126.489,864.904 125.679,863.612C124.909,862.384 123.827,861.364 122.599,860.593C121.371,859.822 119.999,859.294 118.589,858.958C115.768,858.285 112.827,858.369 109.931,858.508C105.621,858.714 101.235,859.051 97.226,860.648C94.695,861.657 92.361,863.159 90.395,865.045" style="fill:none;stroke:white;stroke-width:2px;"/>
        <path id="path4752" d="M95.654,876.791C98.707,877.174 101.812,877.14 104.855,876.687C106.159,876.494 107.472,876.217 108.635,875.598C109.217,875.289 109.757,874.895 110.204,874.41C110.65,873.925 111,873.347 111.19,872.716C111.318,872.292 111.373,871.843 111.32,871.403C111.267,870.963 111.103,870.533 110.825,870.188C110.511,869.797 110.068,869.531 109.617,869.312C109.166,869.092 108.695,868.91 108.269,868.645C107.842,868.38 107.455,868.018 107.275,867.549C107.185,867.315 107.15,867.058 107.19,866.81C107.23,866.563 107.348,866.326 107.532,866.155C107.741,865.962 108.023,865.864 108.305,865.827C108.587,865.79 108.873,865.81 109.156,865.827C110.662,865.917 112.237,865.929 113.57,866.636C114.407,867.079 115.099,867.785 115.549,868.618C115.999,869.452 116.209,870.41 116.174,871.357C116.115,872.915 115.397,874.407 114.345,875.559C113.279,876.725 111.886,877.561 110.408,878.123C108.931,878.684 107.366,878.981 105.798,879.181C102.497,879.602 99.143,879.602 95.842,879.181" style="fill:none;stroke:white;stroke-width:2px;"/>
        <path id="path4748-9" d="M96.406,885.197C100.344,885.329 104.274,885.717 108.162,886.359C110.876,886.807 113.568,887.379 116.261,887.94C117.796,888.26 119.341,888.579 120.8,889.153C122.26,889.728 123.644,890.576 124.628,891.797C125.93,893.412 126.426,895.527 126.66,897.588C126.923,899.914 126.896,902.297 126.297,904.559C125.188,908.747 122.037,912.343 118.032,913.992" style="fill:none;stroke:white;stroke-width:2px;"/>
        <path id="path4752-0" d="M96.03,894.39C98.423,893.331 101.019,892.733 103.634,892.638C105.187,892.581 106.772,892.707 108.216,893.28C109.66,893.852 110.957,894.915 111.566,896.344C111.738,896.746 111.854,897.175 111.869,897.612C111.884,898.048 111.795,898.493 111.577,898.872C111.322,899.318 110.905,899.65 110.463,899.911C110.021,900.173 109.545,900.373 109.097,900.625C108.65,900.877 108.221,901.188 107.936,901.616C107.794,901.83 107.69,902.071 107.648,902.324C107.605,902.577 107.626,902.843 107.72,903.082C107.82,903.333 108,903.548 108.219,903.707C108.438,903.865 108.694,903.967 108.959,904.022C109.488,904.132 110.037,904.053 110.566,903.94C111.516,903.737 112.452,903.421 113.272,902.901C114.092,902.38 114.793,901.643 115.167,900.746C115.524,899.89 115.569,898.92 115.367,898.015C115.165,897.11 114.725,896.268 114.158,895.534C113.183,894.273 111.841,893.326 110.388,892.67C108.936,892.014 107.372,891.636 105.798,891.381C102.861,890.905 99.857,890.845 96.903,891.205" style="fill:none;stroke:white;stroke-width:2px;"/>
        <path id="path4780" d="M81.837,872.106C83.19,876.223 84.024,880.51 84.311,884.834C84.666,890.168 84.187,895.556 82.897,900.744" style="fill:none;stroke:white;stroke-width:2px;"/>
        <path id="path4784" d="M30.943,890.226C31.699,893.482 34.055,896.282 37.048,897.772C38.894,898.69 40.976,899.137 43.036,899.037C45.095,898.938 47.129,898.292 48.858,897.168C50.589,896.043 52.01,894.441 52.902,892.579C53.794,890.717 54.152,888.599 53.901,886.55C53.481,883.122 51.322,879.986 48.351,878.225C46.207,876.954 43.66,876.371 41.178,876.597C38.696,876.824 36.292,877.861 34.434,879.522C32.966,880.834 31.84,882.53 31.222,884.399C30.604,886.269 30.498,888.308 30.943,890.226Z" style="fill:none;stroke:white;stroke-width:2px;"/>
        <path id="path4784-6" d="M34.515,889.239C34.77,890.271 35.328,891.219 36.062,891.988C36.797,892.757 37.703,893.352 38.677,893.78C39.953,894.341 41.356,894.622 42.75,894.567C44.143,894.513 45.526,894.123 46.729,893.417C47.834,892.768 48.789,891.848 49.417,890.73C50.045,889.613 50.335,888.297 50.166,887.027C50.023,885.95 49.555,884.926 48.883,884.072C48.211,883.218 47.34,882.531 46.382,882.017C44.899,881.221 43.192,880.837 41.513,880.962C39.835,881.087 38.193,881.725 36.895,882.797C35.964,883.566 35.21,884.558 34.774,885.684C34.337,886.809 34.226,888.067 34.515,889.239Z" style="fill:none;stroke:white;stroke-width:2px;"/>
    </g>
</svg>
