<?xml version="1.0" encoding="UTF-8" standalone="no"?>
<!DOCTYPE svg PUBLIC "-//W3C//DTD SVG 1.1//EN" "http://www.w3.org/Graphics/SVG/1.1/DTD/svg11.dtd">
<svg width="100%" height="100%" viewBox="0 0 140 200" version="1.1" xmlns="http://www.w3.org/2000/svg" xmlns:xlink="http://www.w3.org/1999/xlink" xml:space="preserve" xmlns:serif="http://www.serif.com/" style="fill-rule:evenodd;clip-rule:evenodd;">
    <g id="Calque-1" serif:id="Calque 1" transform="matrix(1,0,0,1,0,-852.362)">
        <path id="path4462-4-0-0" d="M60.145,855.726C55.769,855.739 51.401,855.937 47.064,856.513C38.391,857.666 29.754,860.423 22.822,865.762C17.711,869.698 13.673,874.936 10.758,880.691C7.843,886.447 6.025,892.715 4.959,899.078C2.826,911.803 3.661,924.808 3.797,937.711C3.92,949.383 3.473,961.146 5.504,972.64C7.535,984.135 12.342,995.58 21.23,1003.15C28.329,1009.19 37.516,1012.32 46.736,1013.7C55.957,1015.07 65.33,1014.8 74.652,1014.79C81.671,1014.78 89.01,1014.42 95.975,1013.55C102.939,1012.67 108.533,1010.35 114.402,1006.5C119.486,1003.17 124.145,998.303 127.194,993.043C130.244,987.782 131.887,982.486 133.138,976.536C135.639,964.635 136.075,952.876 136.205,940.717C136.35,927.138 137.222,913.438 134.812,900.074C133.608,893.392 131.571,886.823 128.34,880.851C125.109,874.88 120.652,869.513 115.082,865.631C109.131,861.483 102.081,859.132 94.941,857.853C87.802,856.575 80.524,856.321 73.275,856.049C68.904,855.884 64.52,855.713 60.145,855.726Z" style="fill:none;stroke:white;stroke-width:2px;"/>
        <path id="path5075-3-3" d="M36.834,1011.7C28.964,1009.9 20.283,1012.1 14.223,1017.44C12.217,1019.2 10.482,1021.3 9.275,1023.69C8.067,1026.07 7.401,1028.75 7.521,1031.42C7.72,1035.85 10.092,1040.01 13.38,1042.99C17.527,1046.75 23.01,1048.76 28.534,1049.66C34.058,1050.56 39.69,1050.43 45.286,1050.4C51.998,1050.37 58.788,1050.47 65.318,1048.92C67.709,1048.35 70.064,1047.56 72.197,1046.34C74.329,1045.11 76.238,1043.45 77.532,1041.36C78.939,1039.08 79.566,1036.42 80.051,1033.8C80.624,1030.69 81.028,1027.5 80.527,1024.38C80.276,1022.82 79.796,1021.29 79.03,1019.91C78.265,1018.53 77.209,1017.3 75.907,1016.4C74.468,1015.41 72.738,1014.85 70.992,1014.81" style="fill:none;stroke:white;stroke-width:2px;"/>
        <path id="path5075-3-6-1" d="M35.556,1011.19C31.644,1011.82 27.962,1013.79 25.27,1016.7C24.315,1017.73 23.479,1018.88 22.874,1020.15C22.269,1021.42 21.899,1022.81 21.884,1024.21C21.857,1026.81 23.072,1029.35 24.939,1031.16C27.216,1033.36 30.345,1034.5 33.478,1034.98C36.611,1035.46 39.8,1035.33 42.969,1035.32C46.984,1035.32 51.07,1035.51 54.944,1034.45C57.084,1033.87 59.148,1032.89 60.776,1031.38C62.404,1029.88 63.569,1027.81 63.752,1025.6C63.879,1024.06 63.531,1022.5 62.851,1021.11C62.172,1019.73 61.171,1018.51 60.007,1017.5C58.362,1016.06 56.379,1015.02 54.266,1014.47" style="fill:none;stroke:white;stroke-width:2px;"/>
        <path id="path5075-3-6-5-1" d="M38.664,1011.96C34.351,1012.47 30.241,1014.55 27.285,1017.74C26.475,1018.61 25.746,1019.56 25.212,1020.63C24.679,1021.69 24.344,1022.87 24.342,1024.06C24.34,1025.79 25.056,1027.49 26.186,1028.81C27.59,1030.45 29.583,1031.5 31.655,1032.09C33.728,1032.69 35.896,1032.87 38.049,1033C43.51,1033.33 49.093,1033.38 54.326,1031.79C56.017,1031.28 57.684,1030.58 59.041,1029.44C59.719,1028.88 60.313,1028.2 60.755,1027.44C61.196,1026.67 61.482,1025.81 61.545,1024.93C61.632,1023.69 61.274,1022.45 60.667,1021.36C60.06,1020.28 59.213,1019.34 58.289,1018.51C55.35,1015.87 51.546,1014.2 47.609,1013.83" style="fill:none;stroke:white;stroke-width:2px;"/>
        <path id="path5141-0" d="M39.378,1035.25C39.577,1038.12 39.619,1040.99 39.503,1043.86C39.42,1045.95 39.253,1048.03 39.004,1050.1" style="fill:none;stroke:white;stroke-width:2px;"/>
        <path id="path5141-6-6" d="M43.374,1035.55C43.572,1038.41 43.614,1041.29 43.498,1044.16C43.415,1046.25 43.248,1048.33 42.999,1050.4" style="fill:none;stroke:white;stroke-width:2px;"/>
        <path id="path5141-2-6" d="M47.244,1035.4C47.442,1038.26 47.484,1041.14 47.369,1044.01C47.285,1046.1 47.118,1048.18 46.869,1050.25" style="fill:none;stroke:white;stroke-width:2px;"/>
        <path id="path5175-3-0" d="M91.441,1014.01C89.733,1014.05 88.035,1014.53 86.56,1015.39C85.084,1016.25 83.834,1017.5 82.963,1018.97C81.344,1021.7 81.107,1025.01 80.824,1028.17C80.51,1031.67 80.102,1035.28 81.161,1038.63C82.056,1041.45 83.971,1043.9 86.345,1045.68C89.155,1047.79 92.568,1048.98 96.03,1049.56C99.491,1050.15 103.022,1050.16 106.533,1050.11C109.768,1050.05 113.017,1049.94 116.197,1049.35C119.376,1048.75 122.503,1047.64 125.133,1045.76C128.919,1043.05 131.507,1038.72 132.105,1034.1C130.085,1035.64 127.745,1036.76 125.278,1037.36C121.94,1038.18 118.45,1038.06 115.019,1037.86C112.41,1037.7 109.738,1037.49 107.365,1036.39C106.179,1035.84 105.084,1035.07 104.246,1034.07C103.408,1033.06 102.838,1031.82 102.728,1030.52C102.591,1028.89 103.184,1027.25 104.177,1025.95C105.171,1024.65 106.542,1023.67 108.015,1022.97C111.819,1021.13 116.26,1021.03 120.415,1021.78C124.578,1022.53 128.594,1024.09 132.167,1026.35C132.381,1023.08 131.21,1019.74 129,1017.31C127.571,1015.74 125.748,1014.56 123.801,1013.72C121.854,1012.87 119.781,1012.35 117.693,1011.97C113.511,1011.22 109.227,1011.02 104.993,1011.39" style="fill:none;stroke:white;stroke-width:2px;"/>
        <path id="path5424" d="M131.251,1037.72C127.601,1039.56 123.579,1040.65 119.501,1040.92C116.62,1041.11 113.72,1040.88 110.883,1040.35C108.109,1039.83 105.269,1038.95 103.258,1036.97C102.13,1035.87 101.315,1034.44 100.918,1032.91C100.521,1031.38 100.54,1029.74 100.962,1028.21C101.482,1026.34 102.601,1024.65 104.041,1023.34C105.481,1022.02 107.233,1021.08 109.081,1020.46C113.114,1019.12 117.531,1019.34 121.67,1020.31C125.289,1021.16 128.775,1022.57 131.965,1024.48" style="fill:none;stroke:white;stroke-width:2px;"/>
        <path id="path5428" d="M17.508,998.35C18.404,994.933 20.255,991.772 22.796,989.319C25.338,986.865 28.562,985.126 32.008,984.35C35.573,983.548 39.276,983.768 42.93,983.7C46.584,983.633 50.374,983.23 53.508,981.35C55.778,979.989 57.565,977.923 58.908,975.643C60.252,973.363 61.179,970.864 62.008,968.35C65.106,958.959 66.934,949.182 68.008,939.35C68.761,932.456 69.146,925.527 69.508,918.6C70.038,908.442 70.518,898.269 70.258,888.1C69.98,877.241 68.858,866.403 66.904,855.716" style="fill:none;stroke:white;stroke-width:2px;"/>
        <path id="path5440" d="M37.158,891.979C33.917,895.502 32.022,900.189 31.688,904.965C31.353,909.74 32.547,914.58 34.874,918.764C36.482,921.656 38.649,924.27 41.363,926.162C44.078,928.054 47.36,929.193 50.668,929.115C54.323,929.028 57.859,927.454 60.634,925.074C63.408,922.693 65.456,919.544 66.877,916.176C68.903,911.377 69.699,905.986 68.634,900.887C67.568,895.788 64.542,891.03 60.096,888.315C56.516,886.13 52.128,885.341 47.992,886.038C43.856,886.735 39.998,888.892 37.158,891.979Z" style="fill:none;stroke:white;stroke-width:2px;"/>
        <path id="path5497-3-5" d="M32.692,912.992L52.186,885.906" style="fill:none;stroke:white;stroke-width:2px;"/>
        <path id="path5501-41-1" d="M56.792,887.003L34.42,918.283" style="fill:none;stroke:white;stroke-width:2px;"/>
        <path id="path5505-2-3" d="M37.829,922.543L61.17,889.114" style="fill:none;stroke:white;stroke-width:2px;"/>
        <path id="path5509-12-0" d="M64.321,892.339L41.624,925.873" style="fill:none;stroke:white;stroke-width:2px;"/>
        <path id="path5490" d="M80.327,856.307C79.446,861.54 78.881,866.826 78.637,872.127C78.356,878.215 78.497,884.314 78.488,890.409C78.482,894.861 78.396,899.313 78.395,903.766C78.395,907.437 78.452,911.109 78.567,914.778C82.874,915.918 87.502,915.821 91.758,914.502C94.243,913.732 96.633,912.529 98.508,910.725C100.547,908.763 101.88,906.197 103.633,903.975C107.963,898.487 115.024,895.268 122.008,895.6C118.148,895.273 114.18,896.459 111.133,898.85C108.422,900.978 106.505,903.934 104.689,906.862C102.874,909.79 101.069,912.796 98.508,915.1C95.602,917.715 91.891,919.267 88.136,920.35C85.236,921.187 82.264,921.773 79.264,922.1C79.074,928.579 79.046,935.063 79.18,941.543C79.284,946.629 79.488,951.714 79.74,956.795C79.902,960.058 80.086,963.336 80.777,966.528C81.468,969.721 82.693,972.85 84.746,975.391C86.464,977.518 88.741,979.189 91.283,980.194C94.405,981.429 97.826,981.653 101.069,982.522C105.689,983.761 109.94,986.347 113.164,989.881C116.388,993.416 118.573,997.886 119.383,1002.6" style="fill:none;stroke:white;stroke-width:2px;"/>
        <path id="path5497-3-5-4" d="M31.526,906.439L46.27,886.09" style="fill:none;stroke:white;stroke-width:2px;"/>
        <path id="path5497-3-5-8" d="M45.508,927.775L66.902,896.74" style="fill:none;stroke:white;stroke-width:2px;"/>
        <path id="path5497-3-5-3" d="M49.732,928.842L68.617,901.52" style="fill:none;stroke:white;stroke-width:2px;"/>
        <path id="path5497-3-5-5" d="M55.558,928.232L68.779,909.262" style="fill:none;stroke:white;stroke-width:2px;"/>
    </g>
</svg>
