<?xml version="1.0" encoding="UTF-8" standalone="no"?>
<!DOCTYPE svg PUBLIC "-//W3C//DTD SVG 1.1//EN" "http://www.w3.org/Graphics/SVG/1.1/DTD/svg11.dtd">
<svg width="100%" height="100%" viewBox="0 0 140 200" version="1.1" xmlns="http://www.w3.org/2000/svg" xmlns:xlink="http://www.w3.org/1999/xlink" xml:space="preserve" xmlns:serif="http://www.serif.com/" style="fill-rule:evenodd;clip-rule:evenodd;">
    <g id="Calque-1" serif:id="Calque 1" transform="matrix(1,0,0,1,0,-852.362)">
        <path id="path4462-4-4-5-8" d="M23.451,920.316C30.612,915.463 39.401,913.543 48.039,913.072C56.677,912.601 65.326,913.475 73.973,913.703C81.121,913.892 88.29,913.64 95.409,914.297C102.529,914.955 109.692,916.575 115.838,920.227C124.161,925.172 130.059,933.584 133.289,942.711C136.519,951.837 137.268,961.673 136.991,971.35C136.742,980.049 135.658,988.834 132.455,996.927C129.253,1005.02 123.772,1012.42 116.219,1016.74C110.184,1020.19 103.15,1021.54 96.208,1021.92C89.265,1022.31 82.306,1021.79 75.352,1021.78C66.156,1021.78 56.953,1022.68 47.774,1022.11C38.596,1021.53 29.227,1019.35 21.856,1013.86C15.229,1008.91 10.651,1001.57 8.007,993.738C5.364,985.905 4.54,977.568 4.398,969.303C4.242,960.164 4.918,950.902 7.79,942.225C10.661,933.547 15.884,925.444 23.451,920.316Z" style="fill:none;stroke:white;stroke-width:2px;"/>
        <path id="path5075-3-3-0-6" d="M23.71,1015.1C19.463,1015.05 15.225,1016.85 12.316,1019.94C9.581,1022.85 8.053,1026.85 8.066,1030.84C8.08,1034.84 9.616,1038.8 12.24,1041.81C14.05,1043.88 16.365,1045.52 18.936,1046.51C22.854,1048.02 27.165,1047.99 31.36,1048.15C34.765,1048.28 38.226,1048.55 41.541,1047.76C46.777,1046.51 51.272,1042.51 53.112,1037.45C54.953,1032.39 54.082,1026.44 50.872,1022.12" style="fill:none;stroke:white;stroke-width:2px;"/>
        <path id="path5935-6" d="M93.802,1022.02C91.926,1024.74 90.91,1028.05 90.934,1031.36C90.961,1035.07 92.273,1038.7 94.304,1041.81C95.317,1043.36 96.524,1044.8 98.021,1045.89C99.986,1047.32 102.374,1048.07 104.776,1048.42C107.179,1048.78 109.618,1048.76 112.047,1048.78C114.351,1048.8 116.667,1048.86 118.95,1048.54C121.233,1048.22 123.506,1047.51 125.358,1046.14C126.77,1045.1 127.898,1043.69 128.715,1042.13C129.531,1040.58 130.042,1038.87 130.331,1037.14C131.275,1031.46 129.731,1025.38 126.09,1020.93C124.08,1018.46 121.466,1016.5 118.543,1015.25" style="fill:none;stroke:white;stroke-width:2px;"/>
        <path id="path5978-2" d="M53.455,1036.38C52.991,1040.45 53.686,1041.54 55.026,1043.62C56.3,1045.58 58.501,1046.94 60.687,1047.8C64.131,1049.14 68.581,1048.92 71.712,1048.98C74.721,1049.03 78.766,1049.1 82.149,1048.25C84.446,1047.68 87.155,1046.76 88.632,1045.35C90.109,1043.93 90.786,1043.28 91.041,1041.03C91.297,1038.77 91.425,1036.56 91.222,1034.3" style="fill:none;stroke:white;stroke-width:2px;"/>
        <path id="path5969-5" d="M58.003,1022.04C54.351,1025.27 54.024,1026.68 53.76,1028.58" style="fill:none;stroke:white;stroke-width:2px;"/>
        <path id="path7469" d="M115.893,913.266C104.752,914.279 93.537,914.001 82.355,913.637C70.43,913.249 58.492,912.765 46.573,913.295C38.349,913.66 30.145,914.508 21.914,914.596C19.915,914.618 17.906,914.593 15.931,914.278C13.957,913.963 12.007,913.347 10.329,912.259C8.495,911.069 7.033,909.336 6.081,907.368C5.129,905.4 4.678,903.204 4.678,901.018C4.679,897.965 5.561,894.919 7.177,892.329C8.792,889.738 11.133,887.608 13.856,886.227C16.392,884.941 19.202,884.31 21.868,883.323C23.201,882.829 24.507,882.241 25.691,881.455C26.875,880.668 27.938,879.674 28.692,878.469C29.976,876.42 30.288,873.927 30.54,871.522C30.792,869.116 31.039,866.628 32.223,864.52C33.066,863.02 34.352,861.791 35.826,860.903C37.299,860.015 38.956,859.457 40.647,859.139C44.029,858.504 47.506,858.814 50.943,858.98C63.058,859.563 75.207,858.311 87.322,858.901C89.973,859.03 92.644,859.252 95.184,860.021C97.724,860.79 100.149,862.15 101.804,864.225C103.634,866.519 104.38,869.464 105.149,872.296C105.918,875.128 106.824,878.061 108.868,880.167C110.157,881.494 111.829,882.405 113.58,883.002C115.332,883.599 117.17,883.896 119.005,884.129C122.676,884.596 126.52,884.861 129.708,886.738C132.571,888.424 134.645,891.355 135.391,894.592C136.137,897.829 135.572,901.329 133.942,904.223C131.973,907.721 128.541,910.267 124.759,911.61C121.918,912.619 118.895,912.992 115.893,913.266Z" style="fill:none;stroke:white;stroke-width:2px;"/>
        <path id="path4051-8-0-7-8-1-1" d="M39.111,883.708C38.907,884.076 38.878,884.536 39.033,884.927C39.157,885.239 39.393,885.503 39.682,885.671C39.972,885.839 40.314,885.912 40.649,885.89C40.993,885.866 41.333,885.74 41.598,885.52C41.863,885.299 42.051,884.982 42.1,884.64C42.141,884.36 42.087,884.067 41.959,883.814C41.83,883.561 41.627,883.348 41.386,883.199C41.02,882.972 40.564,882.895 40.145,882.989C39.725,883.083 39.346,883.347 39.111,883.708L39.111,883.708Z" style="fill:none;stroke:white;stroke-width:2px;"/>
        <path id="path4051-8-0-7-8-1-1-6" d="M90.36,882.567C90.156,882.935 90.127,883.395 90.282,883.786C90.406,884.098 90.641,884.361 90.931,884.529C91.221,884.698 91.563,884.771 91.898,884.748C92.242,884.725 92.581,884.599 92.847,884.378C93.112,884.158 93.3,883.841 93.349,883.499C93.389,883.218 93.336,882.926 93.207,882.673C93.079,882.42 92.876,882.207 92.634,882.057C92.269,881.831 91.813,881.754 91.393,881.848C90.974,881.942 90.594,882.206 90.36,882.567L90.36,882.567Z" style="fill:none;stroke:white;stroke-width:2px;"/>
        <path id="path4051-8-0-7-8-1-1-2" d="M97.875,889.376C97.671,889.744 97.642,890.204 97.797,890.595C97.921,890.907 98.156,891.17 98.446,891.338C98.736,891.506 99.078,891.58 99.413,891.557C99.757,891.534 100.096,891.408 100.362,891.187C100.627,890.966 100.815,890.65 100.864,890.308C100.904,890.027 100.851,889.735 100.722,889.482C100.594,889.229 100.391,889.016 100.15,888.866C99.784,888.64 99.328,888.563 98.908,888.657C98.489,888.751 98.109,889.015 97.875,889.376L97.875,889.376Z" style="fill:none;stroke:white;stroke-width:2px;"/>
        <path id="path4051-8-0-7-8-1-1-1" d="M105.081,896.258C104.877,896.626 104.847,897.086 105.003,897.477C105.126,897.789 105.362,898.052 105.652,898.22C105.942,898.388 106.284,898.462 106.618,898.439C106.963,898.416 107.302,898.29 107.567,898.069C107.833,897.848 108.02,897.532 108.069,897.19C108.11,896.909 108.057,896.617 107.928,896.364C107.799,896.111 107.596,895.898 107.355,895.748C106.989,895.522 106.534,895.445 106.114,895.539C105.694,895.633 105.315,895.897 105.081,896.258L105.081,896.258Z" style="fill:none;stroke:white;stroke-width:2px;"/>
        <path id="path4868" d="M62.766,913.287C62.587,911.721 62.67,910.125 63.01,908.586C63.267,907.423 63.685,906.264 64.459,905.358C65.508,904.13 67.151,903.483 68.766,903.49C70.299,903.496 71.858,904.092 72.87,905.244C73.668,906.153 74.085,907.336 74.336,908.519C74.655,910.019 74.737,911.569 74.577,913.095" style="fill:none;stroke:white;stroke-width:2px;"/>
        <path id="path4872" d="M49.125,913.118C47.561,918.407 47.583,924.154 49.187,929.431C50.115,932.486 51.58,935.406 53.687,937.806C56.482,940.989 60.343,943.157 64.448,944.202C70.128,945.649 76.439,944.919 81.358,941.733C85.392,939.12 88.314,935.023 90.139,930.577C92.254,925.425 92.988,919.713 92.244,914.193" style="fill:none;stroke:white;stroke-width:2px;"/>
        <path id="path4876" d="M72.762,913.442C70.877,917.968 69.218,922.588 67.793,927.279C66.136,932.733 64.795,938.282 63.78,943.891" style="fill:none;stroke:white;stroke-width:2px;"/>
        <path id="path4880" d="M4.794,965.023C7.676,964.643 10.688,965.348 13.102,966.967C15.462,968.55 17.202,970.934 18.405,973.508C19.933,976.773 20.651,980.345 21.509,983.846C22.367,987.347 23.411,990.883 25.476,993.837C27.209,996.315 29.606,998.284 32.242,999.764C34.879,1001.24 37.758,1002.25 40.679,1003.03C52.704,1006.23 65.359,1005.61 77.802,1005.68C86.692,1005.74 95.872,1006.11 104.142,1002.85C109.233,1000.85 113.912,997.328 116.34,992.423C117.918,989.234 118.473,985.649 118.959,982.124C119.444,978.598 119.893,975.013 121.289,971.74C122.215,969.571 123.636,967.552 125.637,966.305C126.638,965.681 127.757,965.257 128.911,965.015C130.065,964.773 131.248,964.714 132.426,964.669L137.023,964.492" style="fill:none;stroke:white;stroke-width:2px;"/>
        <path id="path4884" d="M61.005,1005.48C60.201,1008.45 59.552,1011.46 59.06,1014.5C58.662,1016.96 58.367,1019.44 58.177,1021.92" style="fill:none;stroke:white;stroke-width:2px;"/>
        <path id="path4884-2" d="M67.317,1005.38C66.513,1008.35 65.864,1011.36 65.372,1014.4C64.974,1016.86 64.679,1019.34 64.488,1021.83" style="fill:none;stroke:white;stroke-width:2px;"/>
        <path id="path4884-1" d="M78.087,1005.57C77.284,1008.54 76.634,1011.55 76.142,1014.59C75.744,1017.05 75.449,1019.53 75.259,1022.01" style="fill:none;stroke:white;stroke-width:2px;"/>
        <path id="path4884-29" d="M84.218,1005.36C83.415,1008.33 82.765,1011.34 82.274,1014.38C81.875,1016.84 81.58,1019.32 81.39,1021.8" style="fill:none;stroke:white;stroke-width:2px;"/>
        <path id="path4922" d="M88.062,1022.02C88.49,1022.74 88.876,1023.48 89.219,1024.24C90.091,1026.18 90.679,1028.24 90.961,1030.35" style="fill:none;stroke:white;stroke-width:2px;"/>
    </g>
</svg>
