<?xml version="1.0" encoding="UTF-8" standalone="no"?>
<!DOCTYPE svg PUBLIC "-//W3C//DTD SVG 1.1//EN" "http://www.w3.org/Graphics/SVG/1.1/DTD/svg11.dtd">
<svg width="100%" height="100%" viewBox="0 0 140 200" version="1.1" xmlns="http://www.w3.org/2000/svg" xmlns:xlink="http://www.w3.org/1999/xlink" xml:space="preserve" xmlns:serif="http://www.serif.com/" style="fill-rule:evenodd;clip-rule:evenodd;">
    <g id="Calque-1" serif:id="Calque 1" transform="matrix(1,0,0,1,0,-852.362)">
        <path id="path4462-4-0" d="M60.354,855.221C55.978,855.234 51.61,855.432 47.274,856.008C38.6,857.16 29.963,859.918 23.031,865.256C17.92,869.193 13.882,874.431 10.967,880.186C8.052,885.941 6.235,892.21 5.168,898.573C3.036,911.298 3.87,924.303 4.006,937.205C4.129,948.878 3.682,960.64 5.713,972.135C7.744,983.63 12.551,995.075 21.44,1002.64C28.538,1008.68 37.725,1011.82 46.946,1013.19C56.166,1014.56 65.539,1014.3 74.862,1014.29C81.88,1014.28 89.22,1013.92 96.184,1013.04C103.148,1012.17 108.742,1009.85 114.611,1006C119.696,1002.66 124.354,997.798 127.403,992.537C130.453,987.277 132.096,981.981 133.347,976.031C135.848,964.13 136.284,952.371 136.414,940.211C136.559,926.633 137.431,912.932 135.022,899.569C133.817,892.887 131.78,886.318 128.549,880.346C125.318,874.374 120.861,869.008 115.291,865.125C109.341,860.978 102.29,858.627 95.151,857.348C88.011,856.069 80.733,855.816 73.485,855.543C69.113,855.379 64.729,855.208 60.354,855.221Z" style="fill:none;stroke:white;stroke-width:2px;"/>
        <path id="path4462-4-3-9" d="M65.296,1003.68C58.63,1004.12 51.889,1003.4 45.463,1001.58C39.565,999.899 33.868,997.24 29.25,993.207C23.463,988.154 19.616,981.14 17.465,973.765C13.817,961.253 14.836,947.94 14.816,934.908C14.799,923.914 14.024,912.842 15.724,901.98C16.574,896.55 18.051,891.189 20.468,886.252C22.886,881.315 26.267,876.806 30.584,873.403C36.356,868.854 43.581,866.442 50.857,865.405C58.133,864.369 65.525,864.63 72.868,864.933C78.954,865.185 85.063,865.468 91.045,866.61C97.028,867.752 102.92,869.791 107.906,873.289C112.757,876.694 116.621,881.403 119.401,886.637C122.181,891.871 123.906,897.623 124.902,903.465C126.894,915.15 126.01,927.101 125.811,938.953C125.634,949.516 125.995,960.19 123.82,970.529C122.733,975.698 121.003,980.761 118.362,985.336C115.721,989.911 112.145,993.991 107.738,996.903C103.101,999.966 97.584,1001.68 92.027,1001.78" style="fill:none;stroke:white;stroke-width:2px;"/>
        <path id="path4462-4-3-4-51" d="M61.105,1001.21C56.527,1001.2 51.95,1000.66 47.496,999.606C41.402,998.161 35.447,995.691 30.674,991.635C26.838,988.375 23.864,984.165 21.748,979.597C19.632,975.028 18.354,970.102 17.627,965.12C16.171,955.157 16.888,945.024 16.89,934.954C16.892,924.281 16.091,913.536 17.682,902.981C18.477,897.704 19.879,892.49 22.199,887.684C24.519,882.878 27.781,878.483 31.963,875.167C37.523,870.757 44.495,868.412 51.519,867.401C58.543,866.39 65.681,866.637 72.772,866.933C78.648,867.178 84.547,867.459 90.321,868.571C96.096,869.684 101.781,871.666 106.587,875.056C111.29,878.374 115.024,882.965 117.7,888.06C120.377,893.155 122.024,898.748 122.97,904.425C124.861,915.779 123.986,927.382 123.868,938.892C123.772,948.323 124.184,957.821 122.657,967.128C121.129,976.435 117.437,985.733 110.43,992.046C106.903,995.224 102.613,997.555 98.018,998.75C95.638,999.37 93.18,999.687 90.72,999.694" style="fill:none;stroke:white;stroke-width:2px;"/>
        <path id="path4462-4-3-4-0-1" d="M118.592,981.195C112.007,983.326 105.119,984.522 98.201,984.738C94.35,984.858 90.465,984.672 86.719,983.773C82.973,982.873 79.359,981.234 76.468,978.688C72.005,974.758 69.573,968.949 68.492,963.102C67.412,957.254 67.545,951.262 67.391,945.318C67.214,938.506 66.659,931.642 67.717,924.911C68.245,921.545 69.183,918.225 70.716,915.183C72.25,912.14 74.395,909.378 77.116,907.328C79.981,905.168 83.414,903.845 86.929,903.123C90.444,902.4 94.052,902.257 97.64,902.283C106.24,902.345 114.833,903.375 123.204,905.346" style="fill:none;stroke:white;stroke-width:2px;"/>
        <path id="path4576-5" d="M43.863,998.508L68.467,963.105M68.566,920.388L66.169,917.334M51.398,898.548L32.285,874.675" style="fill:none;stroke:white;stroke-width:2px;"/>
        <path id="path4576-6-7" d="M23.424,982.292L46.77,950.2C48.425,947.925 50.124,945.53 50.551,942.75C50.849,940.808 50.482,938.771 49.525,937.055M33.836,917.82L18.532,898.868" style="fill:none;stroke:white;stroke-width:2px;"/>
        <path id="path4576-0-79" d="M62.837,1003.74L51.415,987.999M35.213,965.958L21.397,946.532C20.536,945.156 19.954,943.606 19.695,942.003C19.437,940.405 19.499,938.763 19.8,937.172C20.315,934.46 21.532,931.883 23.301,929.763L80.829,867.155" style="fill:none;stroke:white;stroke-width:2px;"/>
        <path id="path4576-0-7-9" d="M92.458,1002.04L66.226,966.132M50.527,942.869C49.946,941.286 49.61,939.614 49.534,937.929C49.479,936.689 49.587,935.422 50.048,934.269C50.51,933.116 51.331,932.15 52.193,931.255L106.635,874.713" style="fill:none;stroke:white;stroke-width:2px;"/>
        <path id="path4462-4-3-4-0-9-2" d="M121.918,971.657C114.977,974.276 107.625,975.803 100.215,976.165C96.969,976.324 93.688,976.258 90.511,975.573C87.334,974.888 84.25,973.558 81.812,971.409C78.212,968.237 76.282,963.527 75.462,958.799C74.642,954.072 74.814,949.238 74.742,944.441C74.664,939.216 74.295,933.951 75.139,928.795C75.56,926.217 76.289,923.675 77.468,921.344C78.646,919.012 80.285,916.892 82.361,915.306C84.769,913.466 87.697,912.393 90.679,911.849C93.661,911.306 96.711,911.27 99.741,911.34C107.811,911.526 115.865,912.454 123.766,914.108" style="fill:none;stroke:white;stroke-width:2px;"/>
        <path id="path4462-4-3-4-0-9-9-9" d="M122.397,969.207C115.568,971.506 108.436,972.902 101.244,973.348C98.089,973.543 94.898,973.554 91.795,972.947C88.693,972.339 85.666,971.082 83.306,968.979C79.985,966.018 78.245,961.625 77.537,957.233C76.83,952.841 77.044,948.361 77.003,943.912C76.959,939.174 76.626,934.401 77.375,929.723C77.749,927.383 78.397,925.076 79.451,922.954C80.504,920.832 81.973,918.897 83.841,917.44C86.168,915.626 89.039,914.607 91.951,914.128C94.863,913.649 97.833,913.683 100.782,913.796C108.634,914.098 116.465,914.948 124.198,916.339" style="fill:none;stroke:white;stroke-width:2px;"/>
        <path id="path4660-9-8" d="M93.733,973.195C93.705,969.607 93.411,966.02 92.852,962.475C92.46,959.983 91.893,957.413 90.335,955.429C89.252,954.05 87.749,953.044 86.144,952.342C83.339,951.114 80.154,950.771 77.152,951.374" style="fill:none;stroke:white;stroke-width:2px;"/>
        <path id="path4660-9-0-4" d="M94.253,913.692C94.525,917.524 94.395,921.384 93.865,925.189C93.696,926.409 93.484,927.629 93.102,928.8C92.721,929.971 92.164,931.098 91.361,932.032C90.104,933.495 88.315,934.408 86.477,934.993C83.474,935.95 80.221,936.114 77.137,935.464" style="fill:none;stroke:white;stroke-width:2px;"/>
        <path id="path4660-9-6-2" d="M107.217,972.234C107.177,968.802 107.325,965.368 107.661,961.952C107.764,960.902 107.886,959.849 108.154,958.829C108.421,957.808 108.841,956.815 109.492,955.985C110.569,954.612 112.189,953.784 113.807,953.13C116.988,951.846 120.375,951.073 123.798,950.85" style="fill:none;stroke:white;stroke-width:2px;"/>
        <path id="path4660-9-6-4-5" d="M107.343,914.25C107.419,917.972 107.588,921.693 107.849,925.407C107.93,926.568 108.022,927.735 108.323,928.859C108.625,929.982 109.152,931.07 109.993,931.874C110.576,932.431 111.293,932.835 112.044,933.13C112.795,933.426 113.582,933.618 114.37,933.791C117.428,934.463 120.545,934.871 123.674,935.008" style="fill:none;stroke:white;stroke-width:2px;"/>
        <path id="path4576-3-0" d="M41.497,997.874L68.045,960.173M67.812,923.489L64.261,919.281M49.573,900.665L30.891,876.339" style="fill:none;stroke:white;stroke-width:2px;"/>
        <path id="path4576-0-9-8" d="M65.673,1003.89L52.969,986.146M36.863,964L23.626,945.815C22.72,944.32 22.134,942.633 21.919,940.899C21.758,939.598 21.804,938.273 22.056,936.987C22.463,934.901 23.416,932.923 24.794,931.305L83.144,867.647" style="fill:none;stroke:white;stroke-width:2px;"/>
        <path id="path5075-3" d="M37.043,1011.2C29.173,1009.39 20.492,1011.6 14.433,1016.93C12.426,1018.7 10.691,1020.8 9.484,1023.18C8.277,1025.57 7.61,1028.25 7.73,1030.92C7.93,1035.35 10.302,1039.5 13.589,1042.48C17.736,1046.24 23.219,1048.25 28.743,1049.16C34.267,1050.06 39.899,1049.93 45.496,1049.9C52.207,1049.86 58.998,1049.97 65.527,1048.42C67.919,1047.85 70.273,1047.05 72.406,1045.83C74.538,1044.61 76.447,1042.94 77.741,1040.85C79.148,1038.58 79.775,1035.92 80.26,1033.29C80.833,1030.18 81.238,1026.99 80.736,1023.87C80.485,1022.31 80.005,1020.78 79.24,1019.4C78.474,1018.02 77.418,1016.79 76.116,1015.9C74.677,1014.91 72.947,1014.35 71.202,1014.3" style="fill:none;stroke:white;stroke-width:2px;"/>
        <path id="path5075-3-6" d="M35.765,1010.68C31.853,1011.31 28.171,1013.29 25.479,1016.2C24.524,1017.23 23.688,1018.38 23.084,1019.65C22.479,1020.91 22.109,1022.31 22.094,1023.71C22.066,1026.31 23.282,1028.84 25.148,1030.65C27.425,1032.86 30.554,1034 33.687,1034.47C36.82,1034.95 40.009,1034.82 43.178,1034.82C47.194,1034.82 51.28,1035.01 55.154,1033.95C57.293,1033.37 59.357,1032.39 60.985,1030.88C62.613,1029.37 63.778,1027.31 63.961,1025.1C64.089,1023.56 63.74,1022 63.061,1020.61C62.381,1019.22 61.38,1018 60.216,1016.99C58.571,1015.56 56.588,1014.51 54.475,1013.97" style="fill:none;stroke:white;stroke-width:2px;"/>
        <path id="path5075-3-6-5" d="M38.873,1011.46C34.56,1011.96 30.45,1014.05 27.494,1017.23C26.684,1018.1 25.955,1019.06 25.422,1020.12C24.888,1021.19 24.554,1022.36 24.552,1023.55C24.549,1025.29 25.265,1026.99 26.395,1028.3C27.8,1029.94 29.792,1030.99 31.865,1031.59C33.937,1032.19 36.106,1032.36 38.259,1032.49C43.719,1032.83 49.302,1032.88 54.535,1031.29C56.226,1030.77 57.893,1030.07 59.25,1028.94C59.928,1028.37 60.522,1027.7 60.964,1026.93C61.405,1026.17 61.691,1025.31 61.754,1024.43C61.841,1023.19 61.483,1021.94 60.876,1020.86C60.269,1019.77 59.422,1018.84 58.498,1018.01C55.559,1015.36 51.755,1013.69 47.818,1013.32" style="fill:none;stroke:white;stroke-width:2px;"/>
        <path id="path5141" d="M39.588,1034.74C39.786,1037.61 39.828,1040.49 39.713,1043.36C39.629,1045.44 39.462,1047.53 39.213,1049.6" style="fill:none;stroke:white;stroke-width:2px;"/>
        <path id="path5141-6" d="M43.583,1035.04C43.781,1037.91 43.823,1040.79 43.708,1043.66C43.624,1045.74 43.457,1047.82 43.208,1049.9" style="fill:none;stroke:white;stroke-width:2px;"/>
        <path id="path5141-2" d="M47.453,1034.89C47.652,1037.76 47.693,1040.64 47.578,1043.51C47.494,1045.59 47.327,1047.67 47.078,1049.75" style="fill:none;stroke:white;stroke-width:2px;"/>
        <path id="path5175-3" d="M91.651,1013.51C89.942,1013.54 88.245,1014.02 86.769,1014.88C85.294,1015.75 84.043,1016.99 83.173,1018.46C81.553,1021.2 81.317,1024.5 81.033,1027.67C80.719,1031.17 80.312,1034.77 81.37,1038.12C82.265,1040.95 84.18,1043.4 86.554,1045.18C89.364,1047.28 92.777,1048.47 96.239,1049.06C99.7,1049.65 103.231,1049.66 106.742,1049.6C109.977,1049.55 113.226,1049.44 116.406,1048.84C119.585,1048.24 122.713,1047.14 125.342,1045.26C129.129,1042.54 131.716,1038.21 132.314,1033.59C130.294,1035.13 127.954,1036.25 125.488,1036.86C122.149,1037.68 118.659,1037.56 115.228,1037.35C112.619,1037.2 109.947,1036.98 107.575,1035.88C106.389,1035.34 105.293,1034.56 104.455,1033.56C103.618,1032.56 103.047,1031.32 102.937,1030.01C102.8,1028.38 103.393,1026.74 104.387,1025.44C105.38,1024.14 106.751,1023.17 108.224,1022.46C112.028,1020.63 116.469,1020.53 120.624,1021.27C124.788,1022.02 128.803,1023.59 132.376,1025.85C132.59,1022.57 131.419,1019.23 129.209,1016.8C127.781,1015.23 125.957,1014.06 124.01,1013.21C122.063,1012.37 119.99,1011.85 117.902,1011.47C113.72,1010.71 109.436,1010.51 105.202,1010.88" style="fill:none;stroke:white;stroke-width:2px;"/>
    </g>
</svg>
