<?xml version="1.0" encoding="UTF-8" standalone="no"?>
<!DOCTYPE svg PUBLIC "-//W3C//DTD SVG 1.1//EN" "http://www.w3.org/Graphics/SVG/1.1/DTD/svg11.dtd">
<svg width="100%" height="100%" viewBox="0 0 140 200" version="1.1" xmlns="http://www.w3.org/2000/svg" xmlns:xlink="http://www.w3.org/1999/xlink" xml:space="preserve" xmlns:serif="http://www.serif.com/" style="fill-rule:evenodd;clip-rule:evenodd;">
    <g id="Calque-1" serif:id="Calque 1" transform="matrix(1,0,0,1,0,-852.362)">
        <path id="path4462-4-4-5" d="M22.964,909.858C30.046,904.849 38.808,902.71 47.46,902.075C56.111,901.44 64.795,902.201 73.466,902.455C80.637,902.664 87.833,902.526 94.961,903.336C102.089,904.145 109.231,905.955 115.313,909.759C124.35,915.41 130.334,925.084 133.357,935.305C136.379,945.525 136.707,956.34 136.457,966.995C136.234,976.557 135.539,986.234 132.513,995.307C129.486,1004.38 123.897,1012.89 115.694,1017.81C109.717,1021.4 102.697,1022.9 95.746,1023.4C88.794,1023.9 81.814,1023.46 74.844,1023.46C65.618,1023.46 56.372,1024.21 47.178,1023.45C37.983,1022.68 28.647,1020.25 21.369,1014.58C14.175,1008.98 9.533,1000.58 7.043,991.806C4.554,983.031 4.056,973.823 3.919,964.703C3.768,954.62 4.058,944.409 6.743,934.689C9.429,924.97 14.731,915.682 22.964,909.858Z" style="fill:none;stroke:white;stroke-width:2px;"/>
        <path id="path5245" d="M26.762,907.549C20.676,907.167 14.883,903.573 11.838,898.289C9.782,894.72 8.963,890.496 9.27,886.388C9.577,882.28 10.98,878.29 13.081,874.747C14.882,871.711 17.194,868.984 19.865,866.676C26.603,860.856 35.399,857.874 44.21,856.597C53.021,855.32 61.973,855.619 70.876,855.607C80.6,855.593 90.374,855.209 100.005,856.55C109.636,857.891 119.266,861.101 126.632,867.448C129.799,870.177 132.523,873.49 134.179,877.328C135.873,881.253 136.4,885.669 135.714,889.889C135.028,894.109 133.137,898.121 130.345,901.36C126.433,905.9 120.742,908.865 114.779,909.47" style="fill:none;stroke:white;stroke-width:2px;"/>
        <path id="path5249" d="M30.109,1019.83C28.496,1009.82 27.272,999.759 26.441,989.663C25.856,982.56 25.466,975.408 26.139,968.312C26.812,961.217 28.585,954.145 32.097,947.943C35.508,941.923 40.55,936.818 46.593,933.448C55.914,928.249 67.062,927.363 77.706,928.144C83.058,928.537 88.415,929.33 93.489,931.076C98.564,932.821 103.364,935.559 107.051,939.458C110.957,943.589 113.483,948.885 114.938,954.381C116.393,959.877 116.826,965.594 116.95,971.278C117.313,987.852 115.09,1004.48 110.387,1020.38" style="fill:none;stroke:white;stroke-width:2px;"/>
        <path id="path5249-6" d="M23.843,1016.53C22.154,1006.67 20.879,996.738 20.02,986.772C19.365,979.168 18.953,971.504 19.737,963.912C20.521,956.32 22.545,948.763 26.481,942.224C30.426,935.668 36.251,930.278 43.038,926.745C53.811,921.136 66.451,920.327 78.574,921.082C84.64,921.459 90.723,922.208 96.52,924.035C102.316,925.862 107.841,928.818 112.091,933.163C116.363,937.531 119.203,943.157 120.894,949.029C122.586,954.9 123.179,961.034 123.398,967.141C124.004,984.055 121.768,1001.07 116.814,1017.25" style="fill:none;stroke:white;stroke-width:2px;"/>
        <path id="path5271" d="M43.765,1022.9C55.111,1015.53 65.778,1007.11 75.585,997.794C90.359,983.754 103.173,967.654 113.54,950.106" style="fill:none;stroke:white;stroke-width:2px;"/>
        <path id="path5271-5" d="M27.883,1005.67C39.028,998.363 49.514,990.054 59.172,980.874C74.05,966.732 86.954,950.516 97.393,932.842" style="fill:none;stroke:white;stroke-width:2px;"/>
        <path id="path5271-3" d="M58.15,981.607C54.628,977.046 51.231,972.389 47.964,967.642C42.883,960.259 38.118,952.659 33.687,944.87" style="fill:none;stroke:white;stroke-width:2px;"/>
        <path id="path5271-3-1" d="M115.172,1000.46C110.864,998.166 106.657,995.685 102.568,993.023C98.081,990.103 93.736,986.964 89.553,983.622" style="fill:none;stroke:white;stroke-width:2px;"/>
        <path id="path5271-3-16" d="M73.723,966.177C70.295,961.795 66.993,957.314 63.823,952.742C59.004,945.791 54.489,938.629 50.296,931.283" style="fill:none;stroke:white;stroke-width:2px;"/>
        <path id="path5271-3-1-6" d="M107.432,1021.38C100.221,1017.71 93.249,1013.58 86.573,1009.01C82.095,1005.94 77.751,1002.68 73.557,999.24" style="fill:none;stroke:white;stroke-width:2px;"/>
        <path id="path5245-4" d="M36.311,903.86C35.672,903.19 35.11,902.448 34.638,901.653C33.162,899.163 32.608,896.182 32.833,893.297C33.059,890.411 34.036,887.615 35.428,885.077C36.576,882.984 38.014,881.044 39.74,879.394C43.864,875.452 49.455,873.34 55.083,872.403C60.711,871.466 66.454,871.608 72.159,871.6C78.388,871.591 84.657,871.404 90.806,872.393C96.956,873.382 103.074,875.652 107.595,879.938C109.655,881.891 111.356,884.25 112.391,886.894C113.477,889.665 113.811,892.723 113.378,895.668C112.945,898.613 111.747,901.439 109.955,903.815C109.286,904.701 108.537,905.526 107.718,906.275" style="fill:none;stroke:white;stroke-width:2px;"/>
        <path id="path5245-4-3" d="M35.056,904.237C33.714,903.057 32.588,901.633 31.75,900.055C30.311,897.349 29.741,894.217 29.952,891.159C30.162,888.102 31.135,885.12 32.608,882.432C33.837,880.187 35.418,878.133 37.293,876.39C41.824,872.178 47.896,869.943 54.003,868.953C60.11,867.963 66.334,868.12 72.521,868.103C79.279,868.085 86.078,867.86 92.756,868.9C99.433,869.94 106.085,872.358 111.026,876.968C113.249,879.042 115.096,881.546 116.238,884.364C117.432,887.31 117.831,890.576 117.371,893.722C116.912,896.868 115.594,899.886 113.59,902.354C112.221,904.041 110.538,905.471 108.653,906.55" style="fill:none;stroke:white;stroke-width:2px;"/>
        <path id="path5391" d="M19.193,1030.5C18.222,1032.87 18.025,1035.55 18.602,1038.05C19.178,1040.55 20.519,1042.87 22.375,1044.64C24.724,1046.88 27.91,1048.24 31.157,1048.33C34.403,1048.41 37.677,1047.21 40.052,1044.99C42.683,1042.54 44.139,1038.9 43.985,1035.31C43.831,1031.71 42.088,1028.23 39.345,1025.9C36.284,1023.31 31.994,1022.2 28.075,1023.07C24.156,1023.94 20.712,1026.78 19.193,1030.5Z" style="fill:none;stroke:white;stroke-width:2px;"/>
        <path id="path5391-1" d="M58.824,1038.96C59.133,1041.5 60.267,1043.94 61.989,1045.84C63.711,1047.75 66.009,1049.11 68.494,1049.76C71.638,1050.57 75.083,1050.2 77.96,1048.7C80.837,1047.19 83.108,1044.54 84.103,1041.45C85.205,1038.03 84.701,1034.13 82.815,1031.07C80.93,1028.01 77.71,1025.82 74.182,1025.12C70.243,1024.35 65.959,1025.47 62.959,1028.14C59.96,1030.81 58.339,1034.97 58.824,1038.96Z" style="fill:none;stroke:white;stroke-width:2px;"/>
        <path id="path5391-8" d="M106.916,1048.76C109.247,1049.83 111.915,1050.15 114.438,1049.68C116.962,1049.21 119.332,1047.98 121.184,1046.2C123.528,1043.95 125.027,1040.83 125.254,1037.59C125.482,1034.35 124.421,1031.02 122.312,1028.55C119.977,1025.82 116.401,1024.2 112.805,1024.2C109.208,1024.2 105.651,1025.79 103.207,1028.42C100.48,1031.37 99.187,1035.61 99.882,1039.56C100.577,1043.51 103.271,1047.08 106.916,1048.76Z" style="fill:none;stroke:white;stroke-width:2px;"/>
        <path id="path5271-5-7" d="M28.816,1008.76C40.628,1000.98 51.725,992.114 61.922,982.312C76.716,968.089 89.607,951.889 100.143,934.279" style="fill:none;stroke:white;stroke-width:2px;"/>
        <path id="path5271-3-16-6" d="M71.16,968.396C67.67,963.898 64.306,959.303 61.073,954.617C56.27,947.655 51.756,940.494 47.546,933.158" style="fill:none;stroke:white;stroke-width:2px;"/>
        <path id="path5271-3-1-4" d="M114.172,1003.96C109.876,1001.64 105.67,999.164 101.568,996.523C96.52,993.274 91.629,989.781 86.918,986.061" style="fill:none;stroke:white;stroke-width:2px;"/>
        <path id="path5475" d="M32.805,894.734L48.714,874.051" style="fill:none;stroke:white;stroke-width:2px;"/>
        <path id="path5477" d="M33.886,899.81L54.511,872.56" style="fill:none;stroke:white;stroke-width:2px;"/>
        <path id="path5479" d="M33.953,888.624L41.136,878.31" style="fill:none;stroke:white;stroke-width:2px;"/>
        <path id="path5481" d="M35.948,903.247L59.948,871.935" style="fill:none;stroke:white;stroke-width:2px;"/>
        <path id="path5489" d="M41.261,902.747L65.073,871.81" style="fill:none;stroke:white;stroke-width:2px;"/>
        <path id="path5493" d="M70.386,871.685L46.761,901.935" style="fill:none;stroke:white;stroke-width:2px;"/>
        <path id="path5497" d="M52.011,901.935L75.511,871.747" style="fill:none;stroke:white;stroke-width:2px;"/>
        <path id="path5501" d="M80.448,871.747L57.386,902.06" style="fill:none;stroke:white;stroke-width:2px;"/>
        <path id="path5505" d="M62.761,902.185L85.261,871.81" style="fill:none;stroke:white;stroke-width:2px;"/>
        <path id="path5509" d="M89.323,872.435L67.886,902.247" style="fill:none;stroke:white;stroke-width:2px;"/>
        <path id="path5513" d="M72.877,902.133L93.886,872.997" style="fill:none;stroke:white;stroke-width:2px;"/>
        <path id="path5517" d="M97.625,874.424L77.92,902.383" style="fill:none;stroke:white;stroke-width:2px;"/>
        <path id="path5521" d="M82.67,902.654L101.416,875.736" style="fill:none;stroke:white;stroke-width:2px;"/>
        <path id="path5525" d="M104.761,877.685L87.327,902.768" style="fill:none;stroke:white;stroke-width:2px;"/>
        <path id="path5529" d="M92.511,902.935L107.636,880.56" style="fill:none;stroke:white;stroke-width:2px;"/>
        <path id="path5533" d="M110.761,883.747L97.511,903.372" style="fill:none;stroke:white;stroke-width:2px;"/>
        <path id="path5537" d="M101.698,904.372L112.761,887.81" style="fill:none;stroke:white;stroke-width:2px;"/>
        <path id="path5541" d="M113.636,893.56L106.011,905.31" style="fill:none;stroke:white;stroke-width:2px;"/>
        <path id="path5509-1" d="M79.351,928.351L63.128,951.535" style="fill:none;stroke:white;stroke-width:2px;"/>
        <path id="path5563" d="M65.862,955.103L84.158,928.94" style="fill:none;stroke:white;stroke-width:2px;"/>
        <path id="path5567" d="M68.248,958.992L88.224,929.912" style="fill:none;stroke:white;stroke-width:2px;"/>
        <path id="path5571" d="M60.824,947.59L74.789,928.144" style="fill:none;stroke:white;stroke-width:2px;"/>
        <path id="path5575" d="M55.697,940.43L65.066,928.144" style="fill:none;stroke:white;stroke-width:2px;"/>
        <path id="path5579" d="M53.576,936.364L59.498,928.94" style="fill:none;stroke:white;stroke-width:2px;"/>
        <path id="path5583" d="M71.165,962.439L92.555,930.884" style="fill:none;stroke:white;stroke-width:2px;"/>
        <path id="path5509-1-5" d="M115.386,957.463L94.51,986.937" style="fill:none;stroke:white;stroke-width:2px;"/>
        <path id="path5605" d="M97.641,989.564L116.325,964.199" style="fill:none;stroke:white;stroke-width:2px;"/>
        <path id="path5609" d="M101.085,991.872L116.95,971.278" style="fill:none;stroke:white;stroke-width:2px;"/>
        <path id="path5613" d="M104.355,994.038L116.994,976.537" style="fill:none;stroke:white;stroke-width:2px;"/>
        <path id="path5617" d="M91.052,984.448L114.033,952.363" style="fill:none;stroke:white;stroke-width:2px;"/>
        <path id="path5605-3" d="M61.289,1023.66L76.669,1001.65" style="fill:none;stroke:white;stroke-width:2px;"/>
        <path id="path5639" d="M79.871,1004.69L67.143,1023.43" style="fill:none;stroke:white;stroke-width:2px;"/>
        <path id="path5643" d="M83.805,1007.08L73.065,1023.21" style="fill:none;stroke:white;stroke-width:2px;"/>
        <path id="path5647" d="M87.871,1009.77L78.634,1023.38" style="fill:none;stroke:white;stroke-width:2px;"/>
        <path id="path5651" d="M91.627,1012.69L84.158,1023.6" style="fill:none;stroke:white;stroke-width:2px;"/>
        <path id="path5655" d="M89.506,1023.43L95.251,1014.99" style="fill:none;stroke:white;stroke-width:2px;"/>
        <path id="path5659" d="M55.962,1023.78L70.988,1002.04" style="fill:none;stroke:white;stroke-width:2px;"/>
        <path id="path5663" d="M50.571,1023.56L58.658,1012.42" style="fill:none;stroke:white;stroke-width:2px;"/>
        <path id="path5563-7" d="M27.041,998.061L47.916,967.604" style="fill:none;stroke:white;stroke-width:2px;"/>
        <path id="path5685" d="M50.259,971.263L28.116,1003.67" style="fill:none;stroke:white;stroke-width:2px;"/>
        <path id="path5689" d="M55.993,979.01L45.683,992.414" style="fill:none;stroke:white;stroke-width:2px;"/>
        <path id="path5693" d="M26.617,990.034L45.194,963.743" style="fill:none;stroke:white;stroke-width:2px;"/>
        <path id="path5697" d="M42.527,959.522L26.087,983.829" style="fill:none;stroke:white;stroke-width:2px;"/>
        <path id="path5701" d="M39.794,955.12L25.947,975.544" style="fill:none;stroke:white;stroke-width:2px;"/>
        <path id="path5705" d="M36.851,950.681L26.294,966.609" style="fill:none;stroke:white;stroke-width:2px;"/>
        <path id="path5709" d="M58.349,944.319L69.751,928.233" style="fill:none;stroke:white;stroke-width:2px;"/>
        <path id="path5713" d="M75.231,963.942L96.621,932.299" style="fill:none;stroke:white;stroke-width:2px;"/>
        <path id="path5735" d="M53.261,974.81L35.386,1000.31" style="fill:none;stroke:white;stroke-width:2px;"/>
        <path id="path5739" d="M51.636,932.31L53.386,930.81" style="fill:none;stroke:white;stroke-width:2px;"/>
        <path id="path5743" d="M34.636,946.685L29.386,953.685" style="fill:none;stroke:white;stroke-width:2px;"/>
        <path id="path5747" d="M107.228,995.938L116.729,982.768" style="fill:none;stroke:white;stroke-width:2px;"/>
        <path id="path5751" d="M110.542,997.883L116.155,989.663" style="fill:none;stroke:white;stroke-width:2px;"/>
        <path id="path5755" d="M98.433,1016.84L94.102,1023.38" style="fill:none;stroke:white;stroke-width:2px;"/>
        <path id="path5759" d="M99.494,1022.94L102.189,1018.74" style="fill:none;stroke:white;stroke-width:2px;"/>
        <path id="path5763" d="M48.549,1019.77L46,1023.31" style="fill:none;stroke:white;stroke-width:2px;"/>
        <path id="path5563-7-9" d="M24.887,1046.44L39.044,1025.88" style="fill:none;stroke:white;stroke-width:2px;"/>
        <path id="path5685-7" d="M42.448,1029.54L29.94,1047.9" style="fill:none;stroke:white;stroke-width:2px;"/>
        <path id="path5693-7" d="M20.928,1043.28L34.908,1023.62" style="fill:none;stroke:white;stroke-width:2px;"/>
        <path id="path5697-9" d="M29.678,1022.84L18.63,1038.4" style="fill:none;stroke:white;stroke-width:2px;"/>
        <path id="path5735-7" d="M43.859,1035.3L35.706,1047.54" style="fill:none;stroke:white;stroke-width:2px;"/>
        <path id="path5477-6" d="M59.103,1034.87L65.012,1026.71" style="fill:none;stroke:white;stroke-width:2px;"/>
        <path id="path5481-2" d="M59.266,1040.78L71.598,1024.67" style="fill:none;stroke:white;stroke-width:2px;"/>
        <path id="path5489-5" d="M61.293,1044.74L75.928,1025.78" style="fill:none;stroke:white;stroke-width:2px;"/>
        <path id="path5493-2" d="M79.384,1027.6L63.793,1047.62" style="fill:none;stroke:white;stroke-width:2px;"/>
        <path id="path5497-1" d="M67.449,1049.71L82.299,1030.85" style="fill:none;stroke:white;stroke-width:2px;"/>
        <path id="path5501-4" d="M84.143,1034.74L72.199,1050.24" style="fill:none;stroke:white;stroke-width:2px;"/>
        <path id="path5505-1" d="M78.637,1048.34L83.86,1041.96" style="fill:none;stroke:white;stroke-width:2px;"/>
        <path id="path5509-0" d="M110.745,1024.28L99.847,1039.76" style="fill:none;stroke:white;stroke-width:2px;"/>
        <path id="path5513-4" d="M101.763,1043.73L115.347,1024.58" style="fill:none;stroke:white;stroke-width:2px;"/>
        <path id="path5517-5" d="M119.301,1025.91L104.596,1046.81" style="fill:none;stroke:white;stroke-width:2px;"/>
        <path id="path5521-5" d="M107.578,1049.12L122.074,1028.32" style="fill:none;stroke:white;stroke-width:2px;"/>
        <path id="path5525-0" d="M124.305,1031.66L112.058,1049.94" style="fill:none;stroke:white;stroke-width:2px;"/>
        <path id="path5529-3" d="M117.861,1048.34L125.236,1036.46" style="fill:none;stroke:white;stroke-width:2px;"/>
    </g>
</svg>
