<?xml version="1.0" encoding="UTF-8" standalone="no"?>
<!DOCTYPE svg PUBLIC "-//W3C//DTD SVG 1.1//EN" "http://www.w3.org/Graphics/SVG/1.1/DTD/svg11.dtd">
<svg width="100%" height="100%" viewBox="0 0 140 200" version="1.1" xmlns="http://www.w3.org/2000/svg" xmlns:xlink="http://www.w3.org/1999/xlink" xml:space="preserve" xmlns:serif="http://www.serif.com/" style="fill-rule:evenodd;clip-rule:evenodd;">
    <g id="Calque-1" serif:id="Calque 1" transform="matrix(1,0,0,1,0,-852.362)">
        <path id="path4462-4-4-5-5" d="M22.762,917.947C29.757,912.755 38.461,910.297 47.126,909.402C55.791,908.507 64.529,909.072 73.235,909.364C80.443,909.605 87.681,909.66 94.817,910.706C101.952,911.752 109.051,913.841 115.059,917.831C120.115,921.189 124.267,925.822 127.388,931.028C130.509,936.235 132.62,942.008 133.974,947.925C136.682,959.759 136.39,972.044 136.19,984.182C136.012,995.06 135.902,1006.07 133.143,1016.59C131.764,1021.86 129.718,1026.97 126.791,1031.55C123.864,1036.14 120.039,1040.19 115.439,1043.09C109.525,1046.83 102.538,1048.55 95.579,1049.24C88.62,1049.93 81.606,1049.64 74.613,1049.64C65.34,1049.64 56.031,1050.16 46.82,1049.09C37.61,1048.02 28.342,1045.22 21.169,1039.35C13.111,1032.75 8.38,1022.79 6.125,1012.62C3.871,1002.45 3.858,991.941 3.729,981.525C3.586,970.012 3.298,958.376 5.701,947.115C8.104,935.854 13.517,924.809 22.762,917.947Z" style="fill:none;stroke:white;stroke-width:2px;"/>
        <path id="path5245-8" d="M26.559,915.269C20.333,914.125 14.705,910.075 11.643,904.535C9.349,900.382 8.486,895.516 8.831,890.784C9.177,886.052 10.692,881.451 12.885,877.244C14.673,873.815 16.922,870.613 19.666,867.887C26.055,861.541 34.838,858.069 43.705,856.494C52.572,854.918 61.641,855.083 70.647,855.055C80.484,855.024 90.39,854.762 100.086,856.422C109.783,858.081 119.403,861.838 126.371,868.783C129.633,872.033 132.256,875.94 133.914,880.236C135.68,884.812 136.335,889.825 135.701,894.689C135.067,899.553 133.134,904.255 130.082,908.095C126.232,912.94 120.605,916.341 114.525,917.497" style="fill:none;stroke:white;stroke-width:2px;"/>
        <path id="path5249-7" d="M29.903,1044.55C28.326,1033.23 27.103,1021.86 26.237,1010.46C24.992,994.074 24.641,976.844 31.891,962.096C35.194,955.377 40.083,949.345 46.378,945.292C55.432,939.464 66.757,938.094 77.473,939.145C82.933,939.68 88.364,940.811 93.43,942.915C98.496,945.02 103.196,948.125 106.801,952.26C111.08,957.167 113.686,963.364 115.079,969.723C116.472,976.083 116.711,982.637 116.695,989.147C116.648,1008.29 114.443,1027.42 110.136,1046.07" style="fill:none;stroke:white;stroke-width:2px;"/>
        <path id="path5249-6-7" d="M23.641,1040.98C22.001,1029.73 20.726,1018.44 19.82,1007.11C19.119,998.342 18.639,989.521 19.397,980.758C20.154,971.996 22.188,963.252 26.278,955.466C30.108,948.173 35.774,941.782 42.825,937.522C53.304,931.191 66.143,929.898 78.34,930.957C84.515,931.494 90.677,932.602 96.467,934.811C102.258,937.02 107.68,940.367 111.838,944.962C116.528,950.143 119.459,956.736 121.081,963.534C122.702,970.331 123.076,977.363 123.139,984.351C123.314,1003.89 121.099,1023.44 116.559,1042.44" style="fill:none;stroke:white;stroke-width:2px;"/>
        <path id="path5271-1" d="M43.926,1048.74C55.217,1040.06 65.746,1030.4 75.353,1019.89C90.601,1003.21 103.514,984.392 113.599,964.166" style="fill:none;stroke:white;stroke-width:2px;"/>
        <path id="path5271-5-3" d="M27.678,1029.01C38.912,1020.37 49.388,1010.74 58.95,1000.27C74.181,983.601 87.078,964.801 97.149,944.59" style="fill:none;stroke:white;stroke-width:2px;"/>
        <path id="path5271-3-6" d="M57.929,1001.12C54.398,995.813 51.003,990.414 47.748,984.932C42.64,976.328 37.879,967.52 33.479,958.534" style="fill:none;stroke:white;stroke-width:2px;"/>
        <path id="path5271-3-1-68" d="M114.48,1022.78C110.31,1020.15 106.252,1017.34 102.321,1014.36C97.811,1010.94 93.468,1007.3 89.313,1003.46" style="fill:none;stroke:white;stroke-width:2px;"/>
        <path id="path5271-3-16-1" d="M73.492,983.234C70.055,978.133 66.756,972.939 63.598,967.66C58.752,959.558 54.241,951.256 50.079,942.783" style="fill:none;stroke:white;stroke-width:2px;"/>
        <path id="path5271-3-1-6-2" d="M106.932,1046.92C99.751,1042.73 92.863,1038.04 86.335,1032.88C81.82,1029.32 77.477,1025.54 73.327,1021.56" style="fill:none;stroke:white;stroke-width:2px;"/>
        <path id="path5245-4-38" d="M36.367,911.169C35.62,910.335 34.969,909.415 34.43,908.434C32.828,905.515 32.259,902.093 32.506,898.772C32.753,895.452 33.786,892.224 35.219,889.219C36.353,886.841 37.749,884.572 39.529,882.631C43.435,878.371 48.997,875.92 54.659,874.757C60.321,873.595 66.149,873.613 71.93,873.596C78.239,873.577 84.601,873.515 90.789,874.747C96.978,875.979 103.065,878.624 107.345,883.261C109.481,885.576 111.121,888.344 112.138,891.325C114.342,897.782 113.455,905.243 109.703,910.941C109.038,911.951 108.29,912.906 107.468,913.793" style="fill:none;stroke:white;stroke-width:2px;"/>
        <path id="path5245-4-3-1" d="M34.936,911.96C33.539,910.355 32.39,908.534 31.543,906.582C30.146,903.36 29.583,899.798 29.779,896.291C29.974,892.784 30.916,889.335 32.401,886.152C33.593,883.596 35.143,881.195 37.083,879.148C41.392,874.603 47.434,872.012 53.575,870.783C59.716,869.553 66.028,869.575 72.291,869.542C79.135,869.506 86.035,869.405 92.755,870.701C99.475,871.998 106.099,874.82 110.774,879.818C113.074,882.278 114.854,885.219 115.983,888.392C117.204,891.825 117.66,895.537 117.227,899.155C116.795,902.774 115.467,906.291 113.337,909.247C111.98,911.13 110.304,912.782 108.402,914.112" style="fill:none;stroke:white;stroke-width:2px;"/>
        <path id="path5271-5-7-9" d="M36.971,1047.24C48.88,1037.8 60.001,1027.36 70.184,1016.08C86.103,998.441 99.716,978.723 110.57,957.586" style="fill:none;stroke:white;stroke-width:2px;"/>
        <path id="path5271-3-16-6-9" d="M62.534,995.971C57.83,989.718 53.431,983.234 49.36,976.551C44.894,969.22 40.821,961.65 37.166,953.884" style="fill:none;stroke:white;stroke-width:2px;"/>
        <path id="path5271-3-1-4-6" d="M110.66,1042.42C105.064,1038.61 99.59,1034.61 94.251,1030.43C88.744,1026.13 83.381,1021.65 78.171,1016.99" style="fill:none;stroke:white;stroke-width:2px;"/>
        <path id="path4108" d="M61.107,874.255C61.116,878.589 61.116,882.922 61.107,887.255C61.091,894.443 61.049,901.631 60.982,908.818" style="fill:none;stroke:white;stroke-width:2px;"/>
        <path id="path4108-7" d="M68.15,873.443C68.146,879.047 68.125,884.651 68.087,890.255C68.045,896.464 67.983,902.672 67.9,908.88" style="fill:none;stroke:white;stroke-width:2px;"/>
        <path id="path4108-5" d="M85.607,874.255C85.715,878.984 85.735,883.714 85.669,888.443C85.571,895.491 85.279,902.536 84.794,909.568" style="fill:none;stroke:white;stroke-width:2px;"/>
        <path id="path4108-5-4" d="M78.523,873.755C78.751,879.55 78.848,885.351 78.814,891.15C78.778,897.251 78.598,903.351 78.273,909.443" style="fill:none;stroke:white;stroke-width:2px;"/>
        <path id="path4156" d="M35.544,889.13C36.87,889.003 38.202,888.951 39.534,888.975C40.597,888.995 41.681,889.067 42.667,889.466C43.16,889.665 43.623,889.946 44.004,890.317C44.384,890.688 44.68,891.152 44.823,891.664C45.056,892.502 44.86,893.429 44.386,894.158C43.913,894.887 43.182,895.428 42.381,895.765C40.778,896.441 38.97,896.327 37.232,896.255C35.733,896.194 34.232,896.173 32.732,896.193" style="fill:none;stroke:white;stroke-width:2px;"/>
        <path id="path4156-8" d="M112.235,891.782C110.383,891.563 108.505,891.57 106.655,891.804C105.929,891.896 105.199,892.024 104.533,892.327C103.867,892.629 103.264,893.123 102.957,893.786C102.635,894.479 102.667,895.308 102.967,896.011C103.265,896.714 103.813,897.294 104.455,897.708C105.739,898.537 107.323,898.708 108.843,898.866C110.382,899.027 111.92,899.197 113.457,899.376" style="fill:none;stroke:white;stroke-width:2px;"/>
    </g>
</svg>
