<?xml version="1.0" encoding="UTF-8" standalone="no"?>
<!DOCTYPE svg PUBLIC "-//W3C//DTD SVG 1.1//EN" "http://www.w3.org/Graphics/SVG/1.1/DTD/svg11.dtd">
<svg width="100%" height="100%" viewBox="0 0 140 200" version="1.1" xmlns="http://www.w3.org/2000/svg" xmlns:xlink="http://www.w3.org/1999/xlink" xml:space="preserve" xmlns:serif="http://www.serif.com/" style="fill-rule:evenodd;clip-rule:evenodd;">
    <g id="Calque-1" serif:id="Calque 1" transform="matrix(1,0,0,1,0,-852.362)">
        <path id="path4462-4-4-5-5-2" d="M16.251,919.412C20.731,914.836 26.819,912.067 33.082,910.731C39.346,909.394 45.819,909.405 52.214,909.759C57.366,910.044 62.529,910.551 67.534,911.811C72.538,913.071 77.397,915.108 81.501,918.236C86.201,921.818 89.782,926.747 92.208,932.134C94.633,937.522 95.939,943.365 96.553,949.242C97.783,960.995 96.3,972.847 96.299,984.664C96.299,995.245 97.485,1005.88 96.137,1016.38C95.462,1021.62 94.142,1026.82 91.811,1031.57C89.48,1036.32 86.105,1040.61 81.767,1043.64C77.697,1046.49 72.893,1048.15 68.011,1049.05C63.129,1049.95 58.143,1050.12 53.178,1050.2C45.847,1050.31 38.435,1050.2 31.316,1048.44C24.198,1046.68 17.319,1043.13 12.753,1037.39C9.272,1033.02 7.302,1027.6 6.281,1022.11C5.259,1016.61 5.134,1010.99 4.998,1005.4C4.53,986.212 3.897,966.958 5.86,947.862C6.387,942.741 7.107,937.609 8.662,932.702C10.218,927.794 12.649,923.091 16.251,919.412Z" style="fill:none;stroke:white;stroke-width:2px;"/>
        <path id="path5245-8-1" d="M22.54,914.685C17.929,912.844 13.992,909.363 11.602,905.011C9.319,900.854 8.458,895.99 8.801,891.26C9.144,886.529 10.654,881.927 12.844,877.72C14.63,874.29 16.88,871.089 19.624,868.364C26.015,862.018 34.797,858.547 43.664,856.972C52.531,855.396 61.6,855.56 70.606,855.531C80.443,855.5 90.349,855.238 100.045,856.898C109.742,858.557 119.362,862.315 126.33,869.259C129.592,872.509 132.215,876.416 133.872,880.712C135.638,885.288 136.294,890.301 135.66,895.165C135.026,900.029 133.093,904.731 130.041,908.571C126.191,913.416 120.564,916.817 114.484,917.973" style="fill:none;stroke:white;stroke-width:2px;"/>
        <path id="path5249-7-6" d="M21.781,1044.44C20.694,1033.31 19.868,1022.14 19.303,1010.97C18.599,997.053 18.313,982.966 21.146,969.321C21.884,965.762 22.843,962.221 24.455,958.963C26.067,955.706 28.371,952.728 31.407,950.729C34.248,948.858 37.615,947.915 40.99,947.483C44.364,947.051 47.779,947.105 51.181,947.074C54.785,947.042 58.403,946.914 61.982,947.339C65.561,947.763 69.14,948.774 72.103,950.826C76.364,953.779 78.984,958.653 80.25,963.681C81.517,968.709 81.571,973.951 81.647,979.135C81.812,990.428 82.111,1001.73 81.665,1013.01C81.229,1024.04 80.081,1035.04 78.231,1045.91" style="fill:none;stroke:white;stroke-width:2px;"/>
        <path id="path5249-6-7-5" d="M17.485,1041.52C16.142,1030.26 15.249,1018.95 14.809,1007.62C14.298,994.459 14.406,981.186 16.886,968.253C17.648,964.281 18.641,960.327 20.291,956.634C21.941,952.941 24.279,949.5 27.418,946.95C30.93,944.097 35.309,942.466 39.76,941.657C44.212,940.847 48.765,940.817 53.289,940.878C57.346,940.931 61.427,941.058 65.404,941.869C69.38,942.68 73.277,944.212 76.392,946.813C80.807,950.499 83.317,956.058 84.432,961.7C85.547,967.342 85.402,973.145 85.35,978.895C85.251,989.875 85.506,1000.86 85.159,1011.83C84.831,1022.25 83.96,1032.66 82.552,1042.99" style="fill:none;stroke:white;stroke-width:2px;"/>
        <path id="path5245-4-38-2" d="M35.442,910.497C35.056,909.992 34.704,909.462 34.389,908.91C32.736,906.013 32.157,902.577 32.415,899.252C32.674,895.927 33.735,892.701 35.178,889.695C36.318,887.321 37.71,885.05 39.487,883.107C43.389,878.841 48.952,876.386 54.615,875.224C60.278,874.061 66.107,874.083 71.888,874.072C78.196,874.06 84.555,874.008 90.741,875.243C96.926,876.478 103.01,879.116 107.303,883.737C109.448,886.046 111.103,888.811 112.097,891.801C114.241,898.251 113.162,905.59 109.662,911.417C108.108,914.005 106.1,916.32 103.758,918.225" style="fill:none;stroke:white;stroke-width:2px;"/>
        <path id="path4108-1" d="M52.659,856.241C52.55,857.697 52.467,859.156 52.409,860.616C52.211,865.617 52.314,870.631 52.718,875.62" style="fill:none;stroke:white;stroke-width:2px;"/>
        <path id="path4108-7-0" d="M68.16,855.169C68.079,857.606 68.017,860.044 67.973,862.482C67.906,866.273 67.886,870.065 67.911,873.857" style="fill:none;stroke:white;stroke-width:2px;"/>
        <path id="path4108-5-44" d="M89.815,855.939C90.039,858.992 90.168,862.052 90.2,865.113C90.235,868.361 90.161,871.611 89.979,874.855" style="fill:none;stroke:white;stroke-width:2px;"/>
        <path id="path4108-5-4-6" d="M74.292,855.18C74.318,858.02 74.331,860.86 74.333,863.7C74.336,867.089 74.322,870.478 74.292,873.867" style="fill:none;stroke:white;stroke-width:2px;"/>
        <path id="path5245-4-38-2-2" d="M38.553,909.747C36.02,904.189 36.21,897.464 39.052,892.057C40.243,889.793 41.866,887.763 43.77,886.055C47.389,882.809 51.965,880.762 56.689,879.612C61.413,878.463 66.302,878.17 71.163,878.106C76.579,878.035 82.033,878.246 87.321,879.418C92.608,880.589 97.75,882.763 101.87,886.278C104.165,888.236 106.144,890.632 107.269,893.43C108.505,896.501 108.658,899.95 107.984,903.191C107.309,906.431 105.836,909.47 103.95,912.19C102.549,914.208 100.917,916.066 99.095,917.714" style="fill:none;stroke:white;stroke-width:2px;"/>
        <path id="path4829" d="M52.869,899.63C51.806,898.2 51.529,896.221 52.158,894.553C52.556,893.498 53.282,892.589 54.132,891.849C54.982,891.108 55.956,890.524 56.945,889.983C57.579,889.636 58.224,889.304 58.905,889.064C59.587,888.825 60.309,888.68 61.03,888.718C62.015,888.77 62.984,889.177 63.685,889.87C64.386,890.564 64.807,891.543 64.792,892.529C64.779,893.364 64.466,894.173 64.013,894.874C63.559,895.575 62.97,896.177 62.358,896.745C61.04,897.972 59.563,899.089 57.85,899.644C56.244,900.165 54.472,900.16 52.869,899.63L52.869,899.63Z" style="fill:none;stroke:white;stroke-width:2px;"/>
        <path id="path4829-9" d="M79.452,899.82C78.801,899.172 78.477,898.237 78.475,897.318C78.473,896.4 78.774,895.498 79.228,894.699C80.369,892.69 82.402,891.361 84.45,890.291C85.275,889.859 86.126,889.454 87.035,889.254C87.945,889.054 88.928,889.073 89.771,889.469C90.572,889.844 91.203,890.548 91.537,891.367C91.871,892.186 91.914,893.112 91.707,893.972C91.4,895.251 90.572,896.348 89.625,897.262C88.259,898.58 86.61,899.595 84.834,900.263C83.942,900.599 83.003,900.851 82.051,900.83C81.099,900.81 80.127,900.493 79.452,899.82Z" style="fill:none;stroke:white;stroke-width:2px;"/>
        <path id="path4851" d="M88.816,1036.98C92.927,1041.58 98.706,1044.65 104.816,1045.48C111.782,1046.43 119.097,1044.44 124.634,1040.1C128.671,1036.94 131.753,1032.6 133.505,1027.79C135.43,1022.49 135.756,1016.76 135.785,1011.13C135.88,993.234 133.179,975.346 134.316,957.482C134.857,948.978 136.265,940.449 135.316,931.982C134.497,924.681 131.901,917.587 127.816,911.482" style="fill:none;stroke:white;stroke-width:2px;"/>
        <path id="path4855" d="M86.816,923.982C87.958,922.27 89.448,920.792 91.169,919.664C93.087,918.406 95.321,917.581 97.614,917.517C99.875,917.454 102.083,918.12 104.316,918.482C109.765,919.365 115.457,918.399 120.432,916.007C123.549,914.508 126.401,912.458 128.816,909.982" style="fill:none;stroke:white;stroke-width:2px;"/>
        <path id="path4859" d="M39.643,1049.65C41.364,1049.92 43.188,1049.51 44.614,1048.5C45.834,1047.64 46.736,1046.4 47.482,1045.11C48.736,1042.94 49.612,1040.55 50.06,1038.08C50.343,1040.41 50.968,1042.69 51.91,1044.84C52.513,1046.21 53.267,1047.56 54.385,1048.56C55.289,1049.37 56.415,1049.93 57.606,1050.16" style="fill:none;stroke:white;stroke-width:2px;"/>
        <path id="path4859-5" d="M40.04,947.632C41.726,947.405 43.491,947.839 44.879,948.82C46.097,949.681 47,950.918 47.747,952.209C49.002,954.38 49.879,956.77 50.325,959.238C50.607,956.912 51.232,954.628 52.175,952.483C52.779,951.108 53.533,949.765 54.65,948.762C55.654,947.86 56.932,947.267 58.269,947.083" style="fill:none;stroke:white;stroke-width:2px;"/>
        <path id="path4859-51" d="M81.869,1005.79C81.951,1004.01 81.397,1002.22 80.329,1000.79C79.433,999.602 78.205,998.691 76.891,997.986C74.828,996.878 72.512,996.245 70.173,996.148C72.271,996.313 74.414,995.871 76.276,994.889C77.587,994.197 78.76,993.24 79.689,992.085C80.696,990.831 81.412,989.345 81.765,987.775" style="fill:none;stroke:white;stroke-width:2px;"/>
        <path id="path4859-51-6" d="M19.018,1004.55C18.792,1002.86 19.32,1001.09 20.432,999.803C21.197,998.918 22.203,998.274 23.245,997.744C25.14,996.782 27.206,996.159 29.317,995.913C26.798,995.928 24.282,995.061 22.306,993.498C21.565,992.912 20.896,992.229 20.365,991.447C19.441,990.085 18.955,988.43 18.996,986.784" style="fill:none;stroke:white;stroke-width:2px;"/>
        <path id="path4907" d="M46.132,997.866C46.302,999.01 46.837,1000.12 47.723,1000.87C48.308,1001.36 49.034,1001.68 49.791,1001.78C50.548,1001.88 51.333,1001.76 52.026,1001.44C53.322,1000.47 54.124,998.874 54.126,997.258C54.127,995.811 53.488,994.366 52.384,993.431C51.967,993.078 51.487,992.796 50.967,992.626C50.447,992.457 49.888,992.402 49.348,992.491C48.743,992.59 48.173,992.869 47.701,993.262C47.23,993.655 46.857,994.159 46.589,994.711C46.118,995.681 45.973,996.799 46.132,997.866Z" style="fill:none;stroke:white;stroke-width:2px;"/>
        <path id="path4911" d="M96.316,1012.48C98.564,1011.71 100.632,1010.41 102.316,1008.73C105.032,1006.02 106.68,1002.39 107.576,998.657C108.471,994.925 108.662,991.066 108.816,987.232C109.325,974.513 109.444,961.63 106.566,949.232C106.027,946.91 105.382,944.602 105.131,942.231C104.881,939.861 105.046,937.387 106.066,935.232C107.248,932.732 109.609,930.798 112.316,930.232C114.612,929.751 117.012,930.147 119.33,929.788C120.49,929.608 121.623,929.253 122.666,928.715C123.708,928.177 124.647,927.461 125.566,926.732L132.816,920.982" style="fill:none;stroke:white;stroke-width:2px;"/>
        <path id="path4915" d="M95.816,1020.48C99.46,1021.58 103.408,1021.65 107.09,1020.69C110.772,1019.72 114.178,1017.73 116.816,1014.98C121.342,1010.27 123.405,1003.7 124.316,997.232C125.551,988.457 124.931,979.523 123.816,970.732C123.06,964.777 122.078,958.85 120.816,952.982C120.427,951.174 120.009,949.351 120.041,947.502C120.057,946.578 120.188,945.651 120.484,944.776C120.781,943.9 121.246,943.076 121.886,942.409C122.965,941.284 124.47,940.667 125.979,940.277C127.488,939.886 129.045,939.691 130.538,939.246C132.338,938.708 134.029,937.806 135.477,936.61" style="fill:none;stroke:white;stroke-width:2px;"/>
        <path id="path4919" d="M92.816,1030.48C97.424,1033.02 102.573,1034.56 107.816,1034.98C111.045,1035.24 114.331,1035.08 117.455,1034.22C120.58,1033.36 123.541,1031.79 125.816,1029.48C127.842,1027.43 129.279,1024.84 130.249,1022.13C131.22,1019.41 131.742,1016.55 132.109,1013.69C132.956,1007.07 132.99,1000.39 133.229,993.721C133.434,987.984 133.792,982.253 134.3,976.535" style="fill:none;stroke:white;stroke-width:2px;"/>
    </g>
</svg>
