<?xml version="1.0" encoding="UTF-8" standalone="no"?>
<!DOCTYPE svg PUBLIC "-//W3C//DTD SVG 1.1//EN" "http://www.w3.org/Graphics/SVG/1.1/DTD/svg11.dtd">
<svg width="100%" height="100%" viewBox="0 0 140 200" version="1.1" xmlns="http://www.w3.org/2000/svg" xmlns:xlink="http://www.w3.org/1999/xlink" xml:space="preserve" xmlns:serif="http://www.serif.com/" style="fill-rule:evenodd;clip-rule:evenodd;">
    <g id="Calque-1" serif:id="Calque 1" transform="matrix(1,0,0,1,0,-852.362)">
        <path id="path4462-4-4-5-5-1-0" d="M30.167,865.558C40.977,859.342 53.851,857.731 66.32,857.867C80.756,858.025 95.227,860.378 108.731,865.483C112.913,867.064 117.072,868.953 120.395,871.945C125.729,876.747 128.336,883.845 130.154,890.788C135.826,912.445 135.676,935.144 135.439,957.53C135.207,979.389 134.848,1001.72 127.515,1022.31C125.783,1027.17 123.616,1031.99 120.161,1035.83C115.237,1041.29 108.103,1044.3 100.922,1045.9C89.093,1048.54 76.816,1047.79 64.696,1047.69C52.631,1047.6 40.162,1048.11 28.968,1043.6C23.539,1041.42 18.505,1038.02 14.991,1033.35C11.098,1028.16 9.27,1021.74 7.941,1015.39C3.844,995.821 3.775,975.656 3.91,955.661C4.02,939.397 4.257,923.08 6.542,906.977C7.922,897.248 10.151,887.373 15.555,879.165C19.249,873.556 24.345,868.906 30.167,865.558Z" style="fill:none;stroke:white;stroke-width:2px;"/>
        <path id="path4462-4-4-5-5-1-0-3" d="M68.787,899.059C74.642,899.023 80.519,900.346 85.722,903.032C90.924,905.718 95.433,909.777 98.515,914.755C101.256,919.182 102.839,924.248 103.725,929.379C104.611,934.51 104.823,939.731 104.991,944.936C105.356,956.276 105.511,967.7 103.633,978.89C102.262,987.063 99.637,995.359 93.96,1001.4C87.943,1007.8 79.006,1010.96 70.224,1011.16C61.791,1011.35 53.075,1008.83 46.905,1003.08C43.44,999.851 40.885,995.723 39.131,991.322C37.376,986.922 36.397,982.245 35.799,977.545C34.344,966.118 35.105,954.541 35.615,943.033C35.863,937.424 36.053,931.789 37.086,926.271C38.119,920.754 40.041,915.308 43.441,910.841C46.364,907.002 50.321,903.988 54.723,902.013C59.125,900.037 63.962,899.088 68.787,899.059Z" style="fill:none;stroke:white;stroke-width:2px;"/>
        <path id="path4462-4-4-5-5-1-0-3-4" d="M68.557,887.181C75.923,887.145 83.327,888.671 89.945,891.903C96.564,895.136 102.373,900.1 106.337,906.308C109.76,911.668 111.763,917.838 112.898,924.096C114.034,930.354 114.333,936.73 114.566,943.086C115.073,956.908 115.272,970.846 112.841,984.462C111.054,994.474 107.635,1004.59 100.548,1011.89C92.823,1019.84 81.468,1023.54 70.383,1023.78C59.722,1024.02 48.657,1021.09 40.748,1013.94C36.435,1010.04 33.208,1005.03 30.963,999.671C28.717,994.307 27.425,988.584 26.633,982.824C24.722,968.913 25.688,954.79 26.399,940.767C26.747,933.916 27.036,927.031 28.365,920.301C29.693,913.572 32.12,906.942 36.346,901.539C40.093,896.748 45.171,893.059 50.769,890.68C56.368,888.302 62.474,887.211 68.557,887.181Z" style="fill:none;stroke:white;stroke-width:2px;"/>
        <path id="path4317-29" d="M27.846,881.639C26.514,881.816 25.264,882.506 24.371,883.509C23.477,884.513 22.939,885.818 22.82,887.156C22.716,888.32 22.924,889.514 23.447,890.559C23.97,891.604 24.809,892.494 25.838,893.048C26.772,893.551 27.854,893.773 28.912,893.69C29.97,893.606 31.001,893.219 31.859,892.593C32.716,891.968 33.399,891.107 33.822,890.134C34.246,889.161 34.411,888.078 34.307,887.021C34.154,885.465 33.4,883.966 32.209,882.953C31.017,881.94 29.396,881.434 27.846,881.639Z" style="fill:none;stroke:white;stroke-width:2px;"/>
        <path id="path4317-29-21" d="M52.467,873.628C52.608,874.75 53.078,875.832 53.823,876.682C54.568,877.533 55.589,878.143 56.696,878.368C57.717,878.575 58.798,878.453 59.758,878.049C60.718,877.645 61.556,876.964 62.171,876.123C63.151,874.782 63.547,873.018 63.184,871.397C62.821,869.776 61.689,868.335 60.18,867.642C59.28,867.229 58.263,867.079 57.281,867.207C56.299,867.335 55.356,867.738 54.58,868.353C53.804,868.968 53.197,869.792 52.832,870.712C52.466,871.632 52.342,872.646 52.467,873.628Z" style="fill:none;stroke:white;stroke-width:2px;"/>
        <path id="path4317-29-1" d="M69.899,873.271C70.04,874.392 70.51,875.474 71.255,876.325C72,877.175 73.021,877.786 74.128,878.01C75.149,878.217 76.23,878.095 77.19,877.691C78.15,877.287 78.988,876.606 79.603,875.765C80.583,874.424 80.979,872.66 80.616,871.039C80.253,869.419 79.121,867.977 77.612,867.284C76.712,866.871 75.695,866.722 74.713,866.849C73.731,866.977 72.788,867.38 72.012,867.995C71.236,868.61 70.629,869.434 70.264,870.354C69.898,871.275 69.774,872.288 69.899,873.271Z" style="fill:none;stroke:white;stroke-width:2px;"/>
        <path id="path4317-29-5" d="M87.567,876.953C87.709,878.074 88.178,879.156 88.923,880.007C89.668,880.857 90.689,881.468 91.797,881.692C92.818,881.899 93.899,881.777 94.859,881.373C95.819,880.969 96.657,880.288 97.271,879.447C98.252,878.106 98.648,876.342 98.284,874.721C97.921,873.101 96.79,871.659 95.281,870.966C94.381,870.553 93.363,870.404 92.381,870.531C91.4,870.659 90.456,871.062 89.68,871.677C88.905,872.292 88.298,873.116 87.932,874.036C87.567,874.957 87.443,875.97 87.567,876.953Z" style="fill:none;stroke:white;stroke-width:2px;"/>
        <path id="path4317-29-53" d="M103.489,887.063C103.631,888.185 104.1,889.267 104.845,890.117C105.59,890.968 106.611,891.578 107.719,891.803C108.739,892.01 109.82,891.888 110.78,891.484C111.74,891.08 112.578,890.399 113.193,889.558C114.173,888.217 114.569,886.453 114.206,884.832C113.843,883.212 112.712,881.77 111.202,881.077C110.302,880.664 109.285,880.514 108.303,880.642C107.321,880.77 106.378,881.173 105.602,881.788C104.826,882.403 104.219,883.227 103.854,884.147C103.488,885.068 103.364,886.081 103.489,887.063Z" style="fill:none;stroke:white;stroke-width:2px;"/>
        <path id="path4317-29-0" d="M115.239,905.813C115.381,906.935 115.85,908.017 116.595,908.867C117.34,909.718 118.361,910.328 119.469,910.553C120.489,910.76 121.57,910.638 122.53,910.234C123.49,909.83 124.328,909.149 124.943,908.308C125.923,906.967 126.319,905.203 125.956,903.582C125.593,901.962 124.462,900.52 122.952,899.827C122.052,899.414 121.035,899.264 120.053,899.392C119.071,899.52 118.128,899.923 117.352,900.538C116.576,901.153 115.969,901.977 115.604,902.897C115.238,903.818 115.114,904.831 115.239,905.813Z" style="fill:none;stroke:white;stroke-width:2px;"/>
        <path id="path4317-29-533" d="M118.739,927.063C118.885,928.18 119.369,929.251 120.117,930.092C120.865,930.934 121.873,931.542 122.969,931.803C123.947,932.036 124.988,931.993 125.945,931.686C126.903,931.378 127.773,930.808 128.443,930.058C129.636,928.721 130.148,926.801 129.764,925.05C129.38,923.299 128.107,921.765 126.452,921.077C125.543,920.7 124.533,920.57 123.559,920.704C122.584,920.838 121.647,921.235 120.871,921.84C120.095,922.445 119.482,923.257 119.111,924.168C118.74,925.079 118.611,926.088 118.739,927.063Z" style="fill:none;stroke:white;stroke-width:2px;"/>
        <path id="path4317-29-7" d="M120.65,948.385C120.789,949.492 121.096,950.591 121.676,951.544C122.256,952.497 123.126,953.296 124.177,953.668C125.157,954.016 126.258,953.976 127.232,953.612C128.205,953.248 129.05,952.57 129.665,951.732C130.28,950.894 130.67,949.9 130.847,948.876C131.025,947.852 130.995,946.798 130.818,945.773C130.629,944.673 130.264,943.589 129.629,942.67C128.994,941.752 128.072,941.008 126.997,940.709C126.05,940.446 125.017,940.54 124.111,940.92C123.205,941.299 122.425,941.956 121.851,942.753C120.703,944.349 120.405,946.435 120.65,948.385Z" style="fill:none;stroke:white;stroke-width:2px;"/>
        <path id="path4317-29-23" d="M126.038,962.886C125.18,962.742 124.282,962.869 123.488,963.223C122.693,963.577 122.002,964.154 121.491,964.858C120.47,966.267 120.204,968.149 120.613,969.84C120.861,970.863 121.348,971.837 122.081,972.592C122.814,973.347 123.799,973.871 124.846,973.974C125.529,974.041 126.227,973.93 126.863,973.672C127.498,973.413 128.072,973.008 128.543,972.509C129.484,971.511 129.996,970.15 130.091,968.781C130.181,967.476 129.897,966.131 129.188,965.032C128.479,963.933 127.328,963.103 126.038,962.886Z" style="fill:none;stroke:white;stroke-width:2px;"/>
        <path id="path4317-29-3" d="M118.532,986.442C117.792,988.059 117.593,989.971 118.246,991.625C118.573,992.451 119.108,993.2 119.808,993.748C120.508,994.296 121.374,994.638 122.261,994.682C123.303,994.733 124.342,994.373 125.195,993.773C126.048,993.173 126.723,992.344 127.236,991.437C128.048,990 128.473,988.3 128.176,986.676C128.027,985.864 127.699,985.082 127.197,984.427C126.695,983.772 126.017,983.247 125.245,982.956C124.595,982.711 123.886,982.633 123.196,982.709C122.506,982.786 121.836,983.016 121.232,983.359C120.026,984.047 119.109,985.179 118.532,986.442Z" style="fill:none;stroke:white;stroke-width:2px;"/>
        <path id="path4317-29-32" d="M113.032,1011.36C113.304,1012.44 113.764,1013.49 114.476,1014.35C115.189,1015.21 116.167,1015.87 117.261,1016.1C118.273,1016.3 119.342,1016.13 120.283,1015.71C121.225,1015.28 122.044,1014.62 122.736,1013.85C123.565,1012.93 124.226,1011.86 124.623,1010.68C125.02,1009.51 125.15,1008.24 124.952,1007.02C124.754,1005.8 124.223,1004.63 123.4,1003.7C122.577,1002.78 121.459,1002.11 120.245,1001.87C119.084,1001.64 117.854,1001.8 116.774,1002.29C115.694,1002.77 114.765,1003.57 114.09,1004.55C113.415,1005.52 112.991,1006.66 112.824,1007.83C112.657,1009 112.743,1010.21 113.032,1011.36Z" style="fill:none;stroke:white;stroke-width:2px;"/>
        <path id="path4317-29-28" d="M101.567,1028.83C101.709,1029.95 102.178,1031.04 102.923,1031.88C103.668,1032.74 104.689,1033.35 105.797,1033.57C106.818,1033.78 107.899,1033.66 108.859,1033.25C109.819,1032.85 110.657,1032.17 111.271,1031.33C112.252,1029.99 112.648,1028.22 112.284,1026.6C111.921,1024.98 110.79,1023.54 109.281,1022.85C108.381,1022.43 107.363,1022.28 106.381,1022.41C105.4,1022.54 104.456,1022.94 103.68,1023.56C102.905,1024.17 102.298,1025 101.932,1025.91C101.567,1026.84 101.443,1027.85 101.567,1028.83Z" style="fill:none;stroke:white;stroke-width:2px;"/>
        <path id="path4317-29-19" d="M83.739,1035.81C83.881,1036.93 84.35,1038.02 85.095,1038.87C85.84,1039.72 86.861,1040.33 87.969,1040.55C88.989,1040.76 90.07,1040.64 91.03,1040.23C91.99,1039.83 92.828,1039.15 93.443,1038.31C94.423,1036.97 94.819,1035.2 94.456,1033.58C94.093,1031.96 92.962,1030.52 91.452,1029.83C90.552,1029.41 89.535,1029.26 88.553,1029.39C87.571,1029.52 86.628,1029.92 85.852,1030.54C85.076,1031.15 84.469,1031.98 84.104,1032.9C83.738,1033.82 83.614,1034.83 83.739,1035.81Z" style="fill:none;stroke:white;stroke-width:2px;"/>
        <path id="path4317-29-8" d="M64.739,1038.06C64.881,1039.18 65.35,1040.27 66.095,1041.12C66.84,1041.97 67.861,1042.58 68.969,1042.8C69.989,1043.01 71.07,1042.89 72.03,1042.48C72.99,1042.08 73.828,1041.4 74.443,1040.56C75.423,1039.22 75.819,1037.45 75.456,1035.83C75.093,1034.21 73.962,1032.77 72.452,1032.08C71.552,1031.66 70.535,1031.51 69.553,1031.64C68.571,1031.77 67.628,1032.17 66.852,1032.79C66.076,1033.4 65.469,1034.23 65.104,1035.15C64.738,1036.07 64.614,1037.08 64.739,1038.06Z" style="fill:none;stroke:white;stroke-width:2px;"/>
        <path id="path4317-29-6" d="M45.153,1036C45.295,1037.12 45.764,1038.21 46.509,1039.06C47.254,1039.91 48.275,1040.52 49.383,1040.74C50.404,1040.95 51.484,1040.83 52.445,1040.42C53.405,1040.02 54.242,1039.34 54.857,1038.5C55.837,1037.16 56.233,1035.39 55.87,1033.77C55.507,1032.15 54.376,1030.71 52.866,1030.02C51.967,1029.6 50.949,1029.45 49.967,1029.58C48.985,1029.71 48.042,1030.11 47.266,1030.73C46.49,1031.34 45.883,1032.17 45.518,1033.09C45.152,1034.01 45.029,1035.02 45.153,1036Z" style="fill:none;stroke:white;stroke-width:2px;"/>
        <path id="path4317-29-320" d="M25.585,1028.62C25.721,1029.92 26.211,1031.18 27.037,1032.19C27.863,1033.2 29.028,1033.94 30.307,1034.19C31.456,1034.41 32.67,1034.24 33.738,1033.76C34.805,1033.28 35.725,1032.49 36.419,1031.55C37.576,1029.97 38.094,1027.92 37.705,1026C37.511,1025.04 37.097,1024.13 36.493,1023.36C35.889,1022.59 35.094,1021.97 34.196,1021.59C33.169,1021.15 32.013,1021.02 30.911,1021.2C29.808,1021.39 28.763,1021.88 27.911,1022.61C27.059,1023.33 26.401,1024.28 26.003,1025.32C25.606,1026.37 25.467,1027.51 25.585,1028.62Z" style="fill:none;stroke:white;stroke-width:2px;"/>
        <path id="path4317-29-88" d="M14.092,1010.95C14.234,1012.07 14.703,1013.16 15.448,1014.01C16.193,1014.86 17.214,1015.47 18.322,1015.69C19.343,1015.9 20.424,1015.78 21.384,1015.37C22.344,1014.97 23.182,1014.29 23.797,1013.45C24.777,1012.11 25.173,1010.34 24.81,1008.72C24.446,1007.1 23.315,1005.66 21.806,1004.97C20.906,1004.55 19.888,1004.4 18.907,1004.53C17.925,1004.66 16.982,1005.06 16.206,1005.68C15.43,1006.29 14.823,1007.12 14.457,1008.04C14.092,1008.96 13.968,1009.97 14.092,1010.95Z" style="fill:none;stroke:white;stroke-width:2px;"/>
        <path id="path4317-29-4" d="M9.446,989.892C9.588,991.013 10.057,992.096 10.802,992.946C11.547,993.796 12.568,994.407 13.676,994.631C14.696,994.838 15.777,994.716 16.737,994.312C17.698,993.908 18.535,993.227 19.15,992.386C20.13,991.046 20.526,989.281 20.163,987.661C19.8,986.04 18.669,984.598 17.159,983.906C16.259,983.493 15.242,983.343 14.26,983.47C13.278,983.598 12.335,984.002 11.559,984.617C10.783,985.232 10.176,986.056 9.811,986.976C9.445,987.896 9.321,988.91 9.446,989.892Z" style="fill:none;stroke:white;stroke-width:2px;"/>
        <path id="path4317-29-24" d="M8.739,967.063C8.881,968.185 9.35,969.267 10.095,970.117C10.84,970.968 11.861,971.578 12.969,971.803C13.989,972.01 15.07,971.888 16.03,971.484C16.99,971.08 17.828,970.399 18.443,969.558C19.423,968.217 19.819,966.453 19.456,964.832C19.093,963.212 17.962,961.77 16.452,961.077C15.552,960.664 14.535,960.514 13.553,960.642C12.571,960.77 11.628,961.173 10.852,961.788C10.076,962.403 9.469,963.227 9.104,964.147C8.738,965.068 8.614,966.081 8.739,967.063Z" style="fill:none;stroke:white;stroke-width:2px;"/>
        <path id="path4317-29-216" d="M8.739,947.063C8.881,948.185 9.35,949.267 10.095,950.117C10.84,950.968 11.861,951.578 12.969,951.803C13.989,952.01 15.07,951.888 16.03,951.484C16.99,951.08 17.828,950.399 18.443,949.558C19.423,948.217 19.819,946.453 19.456,944.832C19.093,943.212 17.962,941.77 16.452,941.077C15.552,940.664 14.535,940.514 13.553,940.642C12.571,940.77 11.628,941.173 10.852,941.788C10.076,942.403 9.469,943.227 9.104,944.147C8.738,945.068 8.614,946.081 8.739,947.063Z" style="fill:none;stroke:white;stroke-width:2px;"/>
        <path id="path4317-29-73" d="M9.834,925.898C9.917,927.131 10.291,928.36 11.012,929.364C11.734,930.367 12.82,931.129 14.037,931.35C15.078,931.539 16.172,931.326 17.113,930.844C18.055,930.362 18.85,929.62 19.476,928.767C20.615,927.219 21.216,925.234 20.904,923.337C20.748,922.388 20.367,921.474 19.78,920.713C19.193,919.952 18.399,919.347 17.498,919.012C16.542,918.656 15.479,918.609 14.487,918.85C13.496,919.09 12.579,919.613 11.845,920.321C10.378,921.738 9.696,923.863 9.834,925.898Z" style="fill:none;stroke:white;stroke-width:2px;"/>
        <path id="path4317-29-64" d="M16.5,910.09C17.761,910.757 19.273,910.917 20.657,910.571C22.041,910.224 23.288,909.382 24.161,908.254C25.096,907.048 25.604,905.507 25.523,903.983C25.442,902.458 24.763,900.965 23.635,899.937C22.309,898.728 20.399,898.211 18.633,898.531C16.867,898.851 15.277,899.984 14.348,901.519C13.493,902.93 13.193,904.677 13.578,906.281C13.963,907.885 15.042,909.32 16.5,910.09Z" style="fill:none;stroke:white;stroke-width:2px;"/>
        <path id="path4317-29-27" d="M36.256,878.614C36.398,879.735 36.868,880.818 37.613,881.668C38.358,882.518 39.378,883.129 40.486,883.353C41.507,883.56 42.588,883.438 43.548,883.034C44.508,882.63 45.346,881.949 45.961,881.108C46.941,879.768 47.337,878.003 46.974,876.382C46.611,874.762 45.479,873.32 43.97,872.627C43.07,872.214 42.053,872.065 41.071,872.192C40.089,872.32 39.146,872.723 38.37,873.338C37.594,873.953 36.987,874.777 36.621,875.698C36.256,876.618 36.132,877.631 36.256,878.614Z" style="fill:none;stroke:white;stroke-width:2px;"/>
        <path id="path4635" d="M35.353,953.761L105.119,953.673" style="fill:none;stroke:white;stroke-width:2px;"/>
        <path id="path4317-29-21-6" d="M59.941,979.336C59.926,980.408 60.327,981.468 60.981,982.319C61.635,983.169 62.53,983.818 63.508,984.259C65.464,985.141 67.683,985.199 69.828,985.136C71.513,985.086 73.233,984.963 74.789,984.316C75.568,983.992 76.297,983.537 76.889,982.937C77.481,982.337 77.933,981.589 78.131,980.77C78.391,979.696 78.203,978.537 77.696,977.556C77.189,976.575 76.379,975.768 75.442,975.184C73.568,974.015 71.277,973.743 69.069,973.703C67.075,973.667 65.016,973.812 63.227,974.695C62.333,975.136 61.521,975.762 60.924,976.561C60.328,977.361 59.955,978.338 59.941,979.336Z" style="fill:none;stroke:white;stroke-width:2px;"/>
        <path id="path4657" d="M51.259,953.43C50.934,949.199 51.69,944.889 53.438,941.022C54.747,938.125 56.657,935.426 59.29,933.644C62.409,931.533 66.308,930.859 70.074,930.925C74.342,931.001 78.764,932.054 81.99,934.849C83.823,936.437 85.183,938.511 86.227,940.7C88.151,944.734 89.061,949.248 88.85,953.712" style="fill:none;stroke:white;stroke-width:2px;"/>
        <path id="path4665" d="M59.985,953.225C59.976,951.286 60.229,949.346 60.735,947.475C61.079,946.199 61.56,944.922 62.446,943.941C62.888,943.45 63.429,943.043 64.042,942.794C64.654,942.546 65.338,942.462 65.985,942.6C66.883,942.791 67.654,943.397 68.2,944.135C68.746,944.873 69.091,945.74 69.381,946.611C70.116,948.825 70.531,951.144 70.61,953.475C70.459,951.286 70.697,949.07 71.309,946.963C71.55,946.135 71.851,945.317 72.311,944.588C72.771,943.859 73.4,943.219 74.179,942.85C74.78,942.565 75.458,942.448 76.12,942.508C76.782,942.569 77.427,942.805 77.975,943.182C78.779,943.735 79.357,944.572 79.735,945.472C80.112,946.373 80.302,947.34 80.449,948.305C80.711,950.015 80.848,951.744 80.86,953.475" style="fill:none;stroke:white;stroke-width:2px;"/>
    </g>
</svg>
